<?xml version="1.0" encoding="UTF-8" standalone="no"?>
<!DOCTYPE svg  PUBLIC '-//W3C//DTD SVG 1.1//EN'  'http://www.w3.org/Graphics/SVG/1.1/DTD/svg11.dtd'>
<svg xmlns="http://www.w3.org/2000/svg" xmlns:xlink="http://www.w3.org/1999/xlink" version="1.1">
<defs>
<font id="MyriadPro-Bold" horiz-adv-x="300">
<font-face underline-position="-150" font-weight="700" descent="-200" panose-1="2 11 7 3 3 4 3 2 2 4" units-per-em="1000" unicode-range="U+0020-FB04" bbox="-163 -250 1256 989" x-height="489" underline-thickness="50" font-family="MyriadPro" ascent="800" cap-height="674"/>
<missing-glyph d="M50 605v-510l170 255zM80 50h340l-170 255zM280 350l170 -255v510zM250 395l170 255h-340zM0 0v700h500v-700h-500z" horiz-adv-x="500"/>
<glyph glyph-name="f_f_j" horiz-adv-x="886" unicode="ffj" d="M782 695l-33 -114q-44 20 -100 20q-108 0 -108 -95v-17h298v-424q0 -150 -69 -214q-64 -60 -189 -60l-15 119q64 5 90 32q30 31 30 159v276h-144v-377h-152v377h-159v-377h-153v377h-64v112h64v11q0 99 63 158q55 52 147 52q42 0 85 -16l-34 -110q-22 10 -43 10 q-28 0 -45 -17q-21 -22 -21 -71v-17h160v21q0 99 70 155t185 56q83 0 137 -26z"/>
<glyph glyph-name="f_j" horiz-adv-x="586" unicode="fj" d="M231 0h-153v377h-64v112h64v21q0 99 70 155t186 56q94 0 144 -30l-29 -115q-46 25 -111 25q-108 0 -108 -95v-17h297v-424q0 -151 -69 -214q-64 -60 -189 -60l-14 119q63 5 89 32q17 17 24 52t7 107v276h-144v-377z"/>
<glyph glyph-name="f_f" horiz-adv-x="650" unicode="ff" d="M539 0h-152v377h-156v-377h-153v377h-64v112h64v10q0 101 56 157q54 54 150 54q35 0 65 -12l-21 -112q-21 7 -39 7q-59 0 -59 -86v-18h157v19q0 108 62 164q52 49 135 49q46 0 81 -10l-6 -117q-25 7 -50 7q-36 0 -53.5 -24t-17.5 -63v-25h98v-112h-97v-377z"/>
<glyph glyph-name="f_f_i" horiz-adv-x="899" unicode="ffi" d="M782 695l-33 -114q-44 20 -100 20q-108 0 -108 -95v-17h298v-489h-153v377h-144v-377h-152v377h-159v-377h-153v377h-64v112h64v11q0 99 63 158q55 52 147 52q42 0 85 -16l-34 -110q-22 10 -43 10q-28 0 -45 -17q-21 -22 -21 -71v-17h160v21q0 99 70 155t185 56 q83 0 137 -26z"/>
<glyph glyph-name="f_f_l" horiz-adv-x="899" unicode="ffl" d="M375 697l-32 -112q-21 8 -45 8q-31 0 -46 -17q-22 -22 -22 -70v-17h160v22q0 42 19.5 84.5t54.5 70.5q69 55 186 55q115 0 189 -41v-680h-153v598q-18 10 -57 10q-44 0 -66 -27.5t-22 -71.5v-20h89v-112h-88v-377h-152v377h-159v-377h-153v377h-64v112h64v9q0 101 62 157 q58 55 159 55q39 0 76 -13z"/>
<glyph glyph-name="f_i" horiz-adv-x="588" unicode="fi" d="M231 0h-153v377h-64v112h64v21q0 99 70 155t186 56q94 0 144 -30l-29 -115q-46 25 -111 25q-108 0 -108 -95v-17h297v-489h-152v377h-144v-377z"/>
<glyph glyph-name="f_l" horiz-adv-x="588" unicode="fl" d="M231 0h-153v377h-64v112h64v22q0 42 20 84.5t55 70.5q68 55 186 55q114 0 188 -41v-680h-152v598q-20 10 -58 10q-44 0 -65.5 -27.5t-21.5 -71.5v-20h88v-112h-87v-377z"/>
<glyph glyph-name=".notdef" d="M50 605v-510l170 255zM80 50h340l-170 255zM280 350l170 -255v510zM250 395l170 255h-340zM0 0v700h500v-700h-500z" horiz-adv-x="500"/>
<glyph glyph-name=".null" horiz-adv-x="0"/>
<glyph glyph-name="nonmarkingreturn" horiz-adv-x="333"/>
<glyph glyph-name="space" horiz-adv-x="202" unicode=" "/>
<glyph glyph-name="exclam" horiz-adv-x="268" unicode="!" d="M134 -11q-40 0 -65 26t-25 65q0 40 25 65.5t65 25.5q39 0 63.5 -25.5t25.5 -65.5q0 -40 -24.5 -65.5t-64.5 -25.5zM191 221h-114l-23 453h159z"/>
<glyph glyph-name="quotedbl" horiz-adv-x="397" unicode='&quot;' d="M227 685h135l-23 -271h-89zM35 685h135l-23 -271h-89z"/>
<glyph glyph-name="numbersign" horiz-adv-x="550" unicode="#" d="M182 0h-90l26 179h-81v92h97l16 112h-85v93h99l25 174h89l-25 -174h91l26 174h89l-26 -174h80v-93h-94l-16 -112h83v-92h-98l-25 -179h-90l25 179h-91zM223 271h91l16 112h-91z"/>
<glyph glyph-name="dollar" horiz-adv-x="555" unicode="$" d="M323 -87h-98v95q-104 5 -170 43l30 117q80 -44 166 -44q44 0 70 16.5t26 45.5q0 28 -25 48t-81 39q-88 29 -134 72t-46 111q0 67 45 114.5t124 63.5v95h98v-88q85 -4 145 -33l-29 -113q-80 34 -144 34q-45 0 -65.5 -16t-20.5 -40t27 -42.5t93 -43.5q89 -31 128 -75 t39 -112q0 -69 -47 -119.5t-131 -65.5v-102z"/>
<glyph glyph-name="percent" horiz-adv-x="880" unicode="%" d="M675 308q-66 0 -66 -121q0 -51 17.5 -82t48.5 -31q64 0 64 117t-64 117zM677 391q82 0 128.5 -53.5t46.5 -139.5q0 -97 -52.5 -152t-127.5 -55q-76 0 -126 53.5t-51 142.5q0 89 50 146.5t132 57.5zM293 -11h-81l373 672h82zM206 578q-32 0 -49 -32.5t-17 -84.5 q0 -53 17.5 -85t49.5 -32q64 0 64 117t-65 117zM209 661q82 0 128.5 -53.5t46.5 -139.5q0 -97 -52.5 -152t-127.5 -55q-76 0 -126.5 53.5t-50.5 142.5t50 146.5t132 57.5z"/>
<glyph glyph-name="ampersand" horiz-adv-x="678" unicode="&amp;" d="M305 590q-28 0 -44.5 -20.5t-16.5 -48.5q0 -46 46 -97q39 27 56.5 49t17.5 50q0 27 -15.5 47t-43.5 20zM287 99q57 0 93 34q-50 50 -152 165q-53 -38 -53 -93q0 -44 31 -75t81 -31zM672 0h-177q-28 30 -44 48q-76 -59 -185 -59q-114 0 -174.5 56.5t-60.5 134.5 q0 127 128 193v4q-51 56 -51 130q0 70 53.5 124t148.5 54q80 0 131.5 -43.5t51.5 -114.5q0 -106 -133 -173l-1 -4q11 -13 52.5 -59.5t60.5 -66.5q42 66 57 164h136q-29 -163 -112 -256q75 -85 119 -132z"/>
<glyph glyph-name="quotesingle" horiz-adv-x="205" unicode="&apos;" d="M35 685h135l-23 -271h-89z"/>
<glyph glyph-name="parenleft" horiz-adv-x="314" unicode="(" d="M174 691h106q-101 -163 -101 -405q0 -234 101 -402h-106q-114 163 -114 403q1 241 114 404z"/>
<glyph glyph-name="parenright" horiz-adv-x="314" unicode=")" d="M141 -116h-106q101 169 101 404t-101 403h106q114 -166 114 -403q-1 -238 -114 -404z"/>
<glyph glyph-name="asterisk" horiz-adv-x="454" unicode="*" d="M284 685l88 -50l-108 -127l1 -3l159 32v-101l-160 28l-1 -3l109 -123l-89 -52l-57 155l-2 -1l-58 -154l-86 52l107 125v2l-157 -29v101l155 -31l1 2l-106 126l89 51l56 -153h2z"/>
<glyph glyph-name="plus" horiz-adv-x="596" unicode="+" d="M249 532h98v-218h209v-94h-209v-220h-98v220h-209v94h209v218z"/>
<glyph glyph-name="comma" horiz-adv-x="260" unicode="," d="M103 -110l-101 -9q51 146 72 284l155 10q-55 -169 -126 -285z"/>
<glyph glyph-name="hyphen" horiz-adv-x="322" unicode="-" d="M30 313h262v-101h-262v101z"/>
<glyph glyph-name="period" horiz-adv-x="260" unicode="." d="M139 -11q-39 0 -64 26t-25 66q0 41 25 67t65 26t64.5 -26t24.5 -67q0 -40 -25 -66t-65 -26z"/>
<glyph glyph-name="slash" horiz-adv-x="331" unicode="/" d="M117 -40h-101l214 725h101z"/>
<glyph glyph-name="zero" horiz-adv-x="555" unicode="0" d="M278 546q-43 0 -68 -54.5t-25 -161.5v-6v-6q0 -106 24.5 -160t69.5 -54q91 0 91 222q0 220 -92 220zM280 661q51 0 92 -17.5t68.5 -48t46 -73.5t27 -91t8.5 -103q0 -156 -63 -247.5t-184 -91.5q-120 0 -181 94t-62 241q0 149 63.5 243t184.5 94z"/>
<glyph glyph-name="one" horiz-adv-x="555" unicode="1" d="M236 0v515h-2l-124 -59l-25 114l172 80h126v-650h-147z"/>
<glyph glyph-name="two" horiz-adv-x="555" unicode="2" d="M503 0h-461v92l84 76q116 103 164 162.5t49 113.5q0 42 -26.5 68.5t-80.5 26.5q-68 0 -139 -54l-43 109q89 67 213 67q108 0 168 -56.5t60 -147.5q0 -75 -45 -140.5t-128 -139.5l-60 -50v-2h245v-125z"/>
<glyph glyph-name="three" horiz-adv-x="555" unicode="3" d="M38 35l31 114q77 -40 151 -40q57 0 88 24.5t31 62.5q0 45 -38 69t-93 24h-62v109h59q46 1 81 19t35 56q0 30 -25 49t-71 19q-70 0 -136 -39l-31 110q32 20 86.5 34.5t114.5 14.5q101 0 158.5 -46t57.5 -116q0 -109 -119 -151v-2q61 -11 101 -53.5t40 -104.5 q0 -88 -72 -143.5t-194 -55.5q-120 0 -193 46z"/>
<glyph glyph-name="four" horiz-adv-x="555" unicode="4" d="M165 269h146v144q0 51 5 121h-4q-5 -9 -26 -53t-34 -68l-87 -142v-2zM455 0h-144v155h-288v99l246 396h186v-381h78v-114h-78v-155z"/>
<glyph glyph-name="five" horiz-adv-x="555" unicode="5" d="M476 650v-125h-252l-14 -100q14 2 42 2q105 0 171 -47q79 -53 79 -163q0 -95 -76 -161.5t-203 -66.5q-111 0 -181 37l27 114q66 -32 147 -32q53 0 91.5 25.5t38.5 73.5q0 108 -183 108q-47 0 -88 -6l43 341h358z"/>
<glyph glyph-name="six" horiz-adv-x="555" unicode="6" d="M286 101q40 0 64 32.5t24 82.5q0 48 -25 80t-72 32q-30 0 -54 -16t-36 -42q-6 -12 -6 -38q2 -56 29 -93.5t76 -37.5zM457 659v-117h-14q-9 0 -45 -2q-95 -8 -146.5 -50.5t-65.5 -105.5h3q50 52 138 52q85 0 143 -57t58 -155t-68 -166.5t-172 -68.5q-124 0 -191 80.5 t-67 203.5q0 182 115 289q97 88 251 96q32 2 40 2q4 0 11 -0.5t10 -0.5z"/>
<glyph glyph-name="seven" horiz-adv-x="555" unicode="7" d="M49 650h459v-96l-268 -554h-161l268 523v2h-298v125z"/>
<glyph glyph-name="eight" horiz-adv-x="555" unicode="8" d="M276 558q-37 0 -58 -21.5t-21 -53.5q0 -60 92 -88q28 8 47 30.5t19 52.5q0 33 -20 56.5t-59 23.5zM279 94q40 0 64.5 23t24.5 58q0 80 -102 107q-79 -22 -79 -99q0 -36 25.5 -62.5t66.5 -26.5zM273 -11q-116 0 -178.5 54t-62.5 127q0 112 116 163v3q-94 48 -94 142 q0 81 65 132t164 51q106 0 160.5 -50t54.5 -117q0 -44 -24 -82t-70 -61v-3q52 -20 85.5 -61.5t33.5 -100.5q0 -89 -68.5 -143t-181.5 -54z"/>
<glyph glyph-name="nine" horiz-adv-x="555" unicode="9" d="M271 550q-39 0 -64 -30.5t-25 -80.5q0 -46 23.5 -76.5t68.5 -30.5q58 0 84 43q8 14 8 38q0 58 -23.5 97.5t-71.5 39.5zM90 -9v119q20 -2 29 -2q7 0 37 2q77 5 128 40q63 44 82 120l-3 1q-45 -47 -130 -47t-144 55.5t-59 147.5q0 97 69.5 165.5t175.5 68.5 q120 0 183 -79.5t63 -200.5q0 -195 -114 -299q-94 -85 -248 -91q-11 -1 -32 -1q-27 0 -37 1z"/>
<glyph glyph-name="colon" horiz-adv-x="260" unicode=":" d="M139 -11q-39 0 -64 26t-25 65q0 40 25 66t65 26q39 0 63.5 -25.5t25.5 -66.5q0 -39 -25 -65t-65 -26zM139 312q-39 0 -64 26t-25 65q0 41 25 66.5t65 25.5t64 -25.5t25 -66.5q0 -39 -25 -65t-65 -26z"/>
<glyph glyph-name="semicolon" horiz-adv-x="260" unicode=";" d="M145 312q-39 0 -64 25.5t-25 63.5q0 42 24.5 68t64.5 26t64 -25.5t25 -66.5q0 -40 -24.5 -65.5t-64.5 -25.5zM102 -110l-100 -9q50 143 73 284l153 10q-55 -169 -126 -285z"/>
<glyph glyph-name="less" horiz-adv-x="596" unicode="&lt;" d="M58 223v86l480 223v-106l-363 -159v-2l363 -159v-106z"/>
<glyph glyph-name="equal" horiz-adv-x="596" unicode="=" d="M556 118h-516v93h516v-93zM556 325h-516v93h516v-93z"/>
<glyph glyph-name="greater" horiz-adv-x="596" unicode="&gt;" d="M538 312v-92l-480 -220v106l371 159v2l-371 159v106z"/>
<glyph glyph-name="question" horiz-adv-x="445" unicode="?" d="M201 -11q-39 0 -64 26t-25 65q0 40 25 65.5t64 25.5q40 0 64.5 -25.5t25.5 -65.5q0 -39 -25 -65t-65 -26zM272 218h-134l-1 26v11q0 76 59 146q30 35 44 58t14 46q0 57 -73 60q-56 0 -99 -30l-34 109q70 41 167 41q94 0 143 -44.5t49 -111.5q0 -35 -15.5 -69.5t-29 -51.5 t-40.5 -47q-52 -57 -50 -125v-18z"/>
<glyph glyph-name="at" horiz-adv-x="770" unicode="@" d="M528 -10l18 -58q-80 -36 -183 -36q-130 0 -221 86.5t-91 228.5q0 158 104.5 269.5t269.5 111.5q132 0 217 -81.5t85 -207.5q0 -108 -53.5 -173t-136.5 -65q-79 0 -86 77h-2q-47 -77 -129 -77q-50 0 -81 35t-31 95q0 95 65 164t169 69q74 0 119 -25l-30 -185 q-4 -23 -4 -43q0 -43 29 -44h1q36 0 66 45t30 124q0 101 -63 166t-176 65q-119 0 -203 -86t-84 -225q0 -123 71 -192.5t185 -69.5q84 0 145 32zM443 250l14 95q-16 4 -31 4q-49 0 -83.5 -42t-34.5 -100q0 -62 50 -62q28 0 53 31t32 74z"/>
<glyph glyph-name="A" horiz-adv-x="656" unicode="A" d="M245 287h149l-42 143q-9 30 -34 130h-2q-3 -13 -14 -60.5t-17 -69.5zM416 173h-193l-48 -173h-158l206 674h200l209 -674h-164z"/>
<glyph glyph-name="B" horiz-adv-x="604" unicode="B" d="M217 298v-190q15 -2 59 -2q57 0 93.5 23.5t36.5 73.5q0 48 -38 71.5t-99 23.5h-52zM217 564v-157h50q59 0 91 22.5t32 60.5q0 78 -108 78q-39 0 -65 -4zM66 3v662q70 14 197 14q135 0 199 -38q81 -43 81 -132q0 -47 -28 -85.5t-83 -58.5v-2q60 -16 97 -59.5t37 -106.5 q0 -86 -70 -143q-77 -61 -265 -61q-97 0 -165 10z"/>
<glyph glyph-name="C" horiz-adv-x="595" unicode="C" d="M538 138l23 -119q-58 -29 -173 -29q-169 0 -261 93.5t-92 243.5q0 167 104.5 262.5t263.5 95.5q108 0 166 -30l-31 -121q-60 25 -128 25q-95 0 -155 -57.5t-60 -165.5q0 -102 57.5 -161t158.5 -59q72 0 127 22z"/>
<glyph glyph-name="D" horiz-adv-x="696" unicode="D" d="M219 556v-441q13 -3 53 -3h3q105 0 165 59.5t60 176.5q1 103 -55.5 158.5t-156.5 55.5q-43 0 -69 -6zM66 3v662q87 14 206 14q180 0 276 -72q114 -85 114 -254q0 -178 -112 -273q-105 -87 -311 -87q-97 0 -173 10z"/>
<glyph glyph-name="E" horiz-adv-x="534" unicode="E" d="M467 409v-124h-248v-160h277v-125h-430v674h416v-125h-263v-140h248z"/>
<glyph glyph-name="F" horiz-adv-x="527" unicode="F" d="M66 0v674h412v-125h-259v-154h242v-124h-242v-271h-153z"/>
<glyph glyph-name="G" horiz-adv-x="682" unicode="G" d="M629 386v-355q-112 -38 -225 -38q-180 0 -274 91q-95 89 -95 241q0 167 107 261.5t278 94.5q119 0 187 -33l-32 -122q-67 29 -157 29q-99 0 -161 -56t-62 -162q0 -103 58.5 -162t153.5 -59q55 0 75 10v141h-104v119h251z"/>
<glyph glyph-name="H" horiz-adv-x="689" unicode="H" d="M66 674h153v-259h251v259h152v-674h-152v282h-251v-282h-153v674z"/>
<glyph glyph-name="I" horiz-adv-x="285" unicode="I" d="M66 674h153v-674h-153v674z"/>
<glyph glyph-name="J" horiz-adv-x="411" unicode="J" d="M198 250v424h152v-426q0 -138 -61.5 -198.5t-178.5 -60.5q-63 0 -111 16l17 123q36 -12 78 -12q52 0 78 29.5t26 104.5z"/>
<glyph glyph-name="K" horiz-adv-x="614" unicode="K" d="M66 0v674h151v-298h3q3 5 46 74l153 224h187l-223 -287l235 -387h-178l-165 291l-58 -71v-220h-151z"/>
<glyph glyph-name="L" horiz-adv-x="511" unicode="L" d="M66 0v674h153v-546h268v-128h-421z"/>
<glyph glyph-name="M" horiz-adv-x="846" unicode="M" d="M646 0l-10 258q-6 162 -6 277h-3q-31 -128 -75 -261l-82 -263h-119l-72 261q-38 136 -61 263h-2q-1 -12 -5 -120.5t-7 -158.5l-12 -256h-141l43 674h203l66 -225q38 -142 57 -241h3q34 140 64 242l72 224h199l37 -674h-149z"/>
<glyph glyph-name="N" horiz-adv-x="690" unicode="N" d="M206 0h-140v674h178l140 -247q63 -112 110 -231h3q-13 116 -13 281v197h140v-674h-160l-144 260q-71 128 -117 238l-3 -1q6 -133 6 -294v-203z"/>
<glyph glyph-name="O" horiz-adv-x="717" unicode="O" d="M359 564q-76 0 -119.5 -64t-43.5 -165q0 -100 44.5 -162.5t119.5 -62.5t118.5 64t43.5 165q0 95 -43.5 160t-119.5 65zM363 685q150 0 235 -97.5t85 -243.5q0 -164 -91 -259.5t-240 -95.5q-146 0 -231.5 97.5t-85.5 245.5q0 154 90.5 253.5t237.5 99.5z"/>
<glyph glyph-name="P" horiz-adv-x="581" unicode="P" d="M217 558v-199q17 -4 51 -4q61 0 96 29t35 81q0 47 -31 73t-88 26q-41 0 -63 -6zM66 0v665q82 14 206 14q138 0 206 -54q72 -57 72 -156q0 -101 -62 -160q-75 -71 -219 -71q-31 0 -52 3v-241h-151z"/>
<glyph glyph-name="Q" horiz-adv-x="717" unicode="Q" d="M359 110q76 0 119.5 64t43.5 165q0 96 -43.5 160.5t-118.5 64.5q-76 0 -120 -65.5t-44 -165.5q0 -97 44.5 -160t118.5 -63zM686 2l-44 -118q-133 39 -266 95q-21 8 -47 10q-123 8 -208.5 97t-85.5 245q0 154 90.5 254t238.5 100q149 0 234 -97.5t85 -242.5 q0 -110 -45 -189.5t-115 -111.5v-4q52 -15 163 -38z"/>
<glyph glyph-name="R" horiz-adv-x="593" unicode="R" d="M217 561v-186h60q57 0 89 26t32 71q0 92 -112 94q-42 0 -69 -5zM66 0v665q86 14 203 14q151 0 218 -53q62 -50 62 -141q0 -60 -35.5 -104t-83.5 -62v-3q62 -25 90 -126q49 -179 55 -190h-156q-16 27 -47 157q-13 62 -37 84.5t-72 23.5h-46v-265h-151z"/>
<glyph glyph-name="S" horiz-adv-x="540" unicode="S" d="M40 31l31 126q82 -42 169 -42q52 0 79.5 19.5t27.5 53.5q0 31 -25.5 52t-87.5 43q-185 64 -185 199q0 88 69 145.5t186 57.5q96 0 172 -34l-34 -123q-66 32 -141 32q-47 0 -72.5 -18.5t-25.5 -46.5q0 -30 27 -49t98 -46q90 -33 132.5 -81.5t42.5 -119.5q0 -90 -70 -149.5 t-202 -59.5q-55 0 -107.5 12t-83.5 29z"/>
<glyph glyph-name="T" horiz-adv-x="548" unicode="T" d="M196 0v546h-181v128h518v-128h-184v-546h-153z"/>
<glyph glyph-name="U" horiz-adv-x="682" unicode="U" d="M65 674h153v-388q0 -86 31.5 -130.5t90.5 -44.5q124 0 124 175v388h152v-378q0 -153 -73 -230t-208 -77q-270 0 -270 309v376z"/>
<glyph glyph-name="V" horiz-adv-x="636" unicode="V" d="M403 0h-178l-216 674h167l82 -285q42 -145 60 -241h3q24 114 61 238l86 288h162z"/>
<glyph glyph-name="W" horiz-adv-x="888" unicode="W" d="M342 0h-167l-160 674h163l51 -278q14 -77 40 -235h2q13 84 44 237l57 276h162l54 -284q20 -104 36 -226h2q6 47 39 234l55 276h155l-174 -674h-165l-57 290q-23 119 -32 208h-2q-20 -128 -39 -208z"/>
<glyph glyph-name="X" horiz-adv-x="613" unicode="X" d="M597 0h-176l-61 122q-13 24 -60 121h-2q-8 -23 -52 -121l-56 -122h-174l195 341l-188 333h175l59 -123q28 -58 51 -112h2q16 44 46 112l57 123h174l-190 -329z"/>
<glyph glyph-name="Y" horiz-adv-x="603" unicode="Y" d="M374 0h-152v276l-213 398h174l69 -162q22 -51 52 -129h2q17 46 51 129l68 162h171l-222 -393v-281z"/>
<glyph glyph-name="Z" horiz-adv-x="577" unicode="Z" d="M23 0v82l321 462v4h-291v126h489v-88l-314 -456v-4h319v-126h-524z"/>
<glyph glyph-name="bracketleft" horiz-adv-x="314" unicode="[" d="M273 -112h-205v797h205v-84h-95v-629h95v-84z"/>
<glyph glyph-name="backslash" horiz-adv-x="330" unicode="\" d="M314 -40h-100l-202 725h101z"/>
<glyph glyph-name="bracketright" horiz-adv-x="314" unicode="]" d="M42 686h204v-798h-204v84h95v630h-95v84z"/>
<glyph glyph-name="asciicircum" horiz-adv-x="596" unicode="^" d="M554 177h-109l-146 356h-3l-147 -356h-107l210 473h92z"/>
<glyph glyph-name="underscore" horiz-adv-x="500" unicode="_" d="M0 -75h500v-50h-500v50z"/>
<glyph glyph-name="grave" d="M4 702h140l86 -152h-104z" unicode="`"/>
<glyph glyph-name="a" horiz-adv-x="528" unicode="a" d="M321 178v53h-6q-136 0 -136 -77q0 -28 16.5 -43t43.5 -15q28 0 49.5 16t29.5 40q3 12 3 26zM476 0h-137l-9 49h-3q-49 -60 -140 -60q-71 0 -114.5 44.5t-43.5 105.5q0 92 75.5 139.5t207.5 47.5h4v7q0 63 -89 63q-76 0 -135 -37l-28 98q77 43 190 43q114 0 164.5 -58 t50.5 -153v-170q0 -81 7 -119z"/>
<glyph glyph-name="b" horiz-adv-x="598" unicode="b" d="M213 280v-72q0 -15 3 -27q8 -31 32.5 -51.5t56.5 -20.5q49 0 77 36t28 102q0 60 -27 98t-78 38q-31 0 -56.5 -21t-32.5 -54q-3 -13 -3 -28zM186 0h-129q4 64 4 146v564h152v-279h2q48 69 148 69q88 0 145 -67t57 -177q0 -126 -66.5 -196.5t-157.5 -70.5q-99 0 -147 79h-2 z"/>
<glyph glyph-name="c" horiz-adv-x="451" unicode="c" d="M410 124l18 -112q-50 -22 -136 -22q-119 0 -189 67.5t-70 182.5q0 112 74 186t206 74q65 0 116 -19l-24 -113q-34 15 -85 15q-59 0 -95 -37.5t-36 -97.5q0 -66 37.5 -102.5t96.5 -36.5q49 0 87 15z"/>
<glyph glyph-name="d" horiz-adv-x="596" unicode="d" d="M383 218v64q0 11 -2 27q-7 32 -31 53.5t-58 21.5q-50 0 -77.5 -39.5t-27.5 -99.5q0 -62 28.5 -98.5t75.5 -36.5q33 0 57 20.5t31 52.5q4 15 4 35zM383 710h152v-564q0 -80 4 -146h-135l-7 72h-2q-23 -40 -63.5 -61.5t-89.5 -21.5q-89 0 -149 70t-60 183q0 118 64 188 t155 70q93 0 129 -55h2v265z"/>
<glyph glyph-name="e" horiz-adv-x="528" unicode="e" d="M177 300h180q0 37 -19.5 68t-66.5 31q-43 0 -66.5 -30.5t-27.5 -68.5zM493 196h-315q4 -45 42.5 -69t95.5 -24q72 0 135 20l20 -103q-75 -30 -177 -30q-123 0 -192 66.5t-69 182.5q0 65 25 122.5t83 98t139 40.5q110 0 164 -71t54 -173q0 -32 -5 -60z"/>
<glyph glyph-name="f" horiz-adv-x="341" unicode="f" d="M231 0h-153v377h-64v112h64v19q0 108 62 164q52 49 135 49q46 0 81 -10l-6 -117q-23 7 -49 7q-36 0 -53.5 -24t-17.5 -63v-25h98v-112h-97v-377z"/>
<glyph glyph-name="g" horiz-adv-x="585" unicode="g" d="M372 218v72q0 16 -3 28q-8 31 -29.5 49t-52.5 18q-43 0 -71.5 -37t-28.5 -102q0 -57 26.5 -93.5t73.5 -36.5q29 0 50.5 17.5t29.5 44.5q5 14 5 40zM396 489h132q-4 -62 -4 -145v-273q0 -154 -74 -220q-70 -60 -199 -60q-109 0 -176 38l30 115q64 -37 142 -37q57 0 92 32 t35 97v32h-2q-45 -64 -132 -64q-91 0 -149 66.5t-58 172.5q0 115 64.5 186t157.5 71q91 0 134 -69h2z"/>
<glyph glyph-name="h" horiz-adv-x="586" unicode="h" d="M61 0v710h152v-279h2q23 30 60 50q35 19 79 19q77 0 124 -54t47 -160v-286h-152v269q0 108 -79 108q-54 0 -76 -53q-5 -13 -5 -34v-290h-152z"/>
<glyph glyph-name="i" horiz-adv-x="274" unicode="i" d="M137 702q36 0 58 -21.5t23 -55.5q0 -32 -22.5 -54t-59.5 -22q-35 0 -57.5 22t-21.5 54q-1 33 21.5 55t58.5 22zM213 0h-152v489h152v-489z"/>
<glyph glyph-name="j" horiz-adv-x="291" unicode="j" d="M157 702q36 0 57.5 -21.5t22.5 -55.5q0 -32 -22.5 -54t-59.5 -22q-35 0 -57 22t-22 54q0 34 22 55.5t59 21.5zM-25 -209l-15 119q64 5 90 32q30 31 30 159v388h153v-424q0 -150 -69 -214q-64 -60 -189 -60z"/>
<glyph glyph-name="k" horiz-adv-x="542" unicode="k" d="M213 710v-427h2q15 28 35 59l99 147h183l-175 -198l200 -291h-187l-118 201l-39 -48v-153h-152v710h152z"/>
<glyph glyph-name="l" horiz-adv-x="275" unicode="l" d="M61 0v710h152v-710h-152z"/>
<glyph glyph-name="m" horiz-adv-x="860" unicode="m" d="M61 0v333q0 70 -4 156h128l7 -66h3q52 77 148 77q47 0 82.5 -22t51.5 -61h2q26 37 63 59q40 24 93 24q74 0 119.5 -53.5t45.5 -158.5v-288h-148v266q0 112 -72 112q-25 0 -43.5 -15t-26.5 -38q-6 -17 -6 -39v-286h-148v274q0 104 -70 104q-51 0 -71 -55q-6 -14 -6 -38 v-285h-148z"/>
<glyph glyph-name="n" horiz-adv-x="586" unicode="n" d="M61 0v333q0 70 -4 156h132l7 -67h3q19 30 58 54t93 24q79 0 127 -53t48 -157v-290h-152v271q0 106 -77 106q-29 0 -48.5 -16.5t-28.5 -40.5q-6 -13 -6 -38v-282h-152z"/>
<glyph glyph-name="o" horiz-adv-x="577" unicode="o" d="M290 392q-51 0 -75.5 -43t-24.5 -104q0 -65 26.5 -106t73.5 -41q44 0 70.5 40.5t26.5 106.5q0 61 -24.5 104t-72.5 43zM294 500q112 0 181 -69.5t69 -180.5q0 -126 -75.5 -193.5t-182.5 -67.5q-110 0 -181.5 68t-71.5 184q0 118 71.5 188.5t189.5 70.5z"/>
<glyph glyph-name="p" horiz-adv-x="598" unicode="p" d="M213 277v-67q0 -19 3 -32q8 -31 32.5 -51.5t56.5 -20.5q49 0 77 37.5t28 100.5q0 61 -27 99t-76 38q-32 0 -58 -21.5t-33 -55.5q-3 -12 -3 -27zM61 -198v523q0 74 -4 164h132l7 -68h2q55 79 163 79q84 0 143.5 -68t59.5 -181q0 -125 -66 -193.5t-156 -68.5q-88 0 -127 56 h-2v-243h-152z"/>
<glyph glyph-name="q" horiz-adv-x="595" unicode="q" d="M383 211v73q0 13 -3 25q-6 31 -30 52t-57 21q-51 0 -78 -38t-27 -100t27.5 -98.5t75.5 -36.5q32 0 56 19.5t32 49.5q4 13 4 33zM383 -198v259h-2q-49 -72 -145 -72q-83 0 -143 68t-60 181q0 123 65 192.5t151 69.5q95 0 136 -68h2l4 57h147q-3 -141 -3 -147v-540h-152z "/>
<glyph glyph-name="r" horiz-adv-x="380" unicode="r" d="M61 0v328q0 77 -4 161h131l5 -90h4q17 50 55 75.5t77 25.5q21 0 32 -2v-143q-22 4 -41 4q-42 0 -69 -20.5t-35 -56.5q-3 -15 -3 -34v-248h-152z"/>
<glyph glyph-name="s" horiz-adv-x="434" unicode="s" d="M33 24l27 109q23 -14 61 -25.5t70 -11.5q65 0 65 41q0 19 -14.5 30.5t-57.5 25.5q-139 47 -139 145q0 71 54.5 116.5t144.5 45.5q82 0 138 -28l-27 -105q-51 28 -106 28q-58 0 -58 -40q0 -17 16.5 -28.5t62.5 -27.5q69 -24 100.5 -60t32.5 -91q0 -71 -55 -114.5 t-157 -43.5q-95 0 -158 34z"/>
<glyph glyph-name="t" horiz-adv-x="367" unicode="t" d="M82 595l149 34v-140h109v-112h-109v-177q0 -46 13 -66t47 -20q23 0 45 4l1 -115q-33 -13 -99 -13q-74 0 -114 42q-42 44 -42 145v200h-65v112h65v106z"/>
<glyph glyph-name="u" horiz-adv-x="583" unicode="u" d="M522 489v-332q0 -75 4 -157h-132l-7 69h-3q-51 -80 -153 -80q-79 0 -125.5 52.5t-46.5 160.5v287h153v-263q0 -114 76 -114q54 0 76 53q5 11 5 33v291h153z"/>
<glyph glyph-name="v" horiz-adv-x="530" unicode="v" d="M9 489h165l66 -227q17 -59 28 -119h3q13 67 27 119l63 227h160l-182 -489h-152z"/>
<glyph glyph-name="w" horiz-adv-x="759" unicode="w" d="M11 489h155l39 -200q18 -94 28 -161h2q10 56 36 160l52 201h120l49 -195q26 -110 36 -166h2q8 67 28 167l42 194h149l-150 -489h-143l-46 172q-17 68 -31 152h-2q-12 -81 -32 -152l-49 -172h-143z"/>
<glyph glyph-name="x" horiz-adv-x="519" unicode="x" d="M7 489h170l48 -81q7 -12 20 -36.5t20 -36.5h2q32 63 38 75l43 79h165l-161 -233l163 -256h-172l-49 88q-14 24 -38 74h-3l-37 -74l-46 -88h-167l166 249z"/>
<glyph glyph-name="y" horiz-adv-x="523" unicode="y" d="M6 489h169l73 -240q18 -67 24 -91h3q4 15 11.5 48t10.5 43l60 240h163l-114 -322q-50 -140 -89.5 -211t-82.5 -110q-65 -56 -147 -67l-32 129q31 5 66 26q38 20 63 61q8 11 8 22t-7 25z"/>
<glyph glyph-name="z" horiz-adv-x="469" unicode="z" d="M22 0v87l154 193q32 38 78 87v2h-215v120h400v-91l-147 -185q-58 -69 -80 -90v-2h235v-121h-425z"/>
<glyph glyph-name="braceleft" horiz-adv-x="314" unicode="{" d="M30 249v77q46 1 61 20t15 48q0 24 -6 78q-5 45 -5 79q0 135 152 135h35v-85h-18q-61 0 -61 -71q0 -4 5 -57t5 -72q0 -52 -21 -77t-64 -35v-2q43 -10 64 -35.5t21 -77.5q0 -19 -5 -74q-5 -50 -5 -56q0 -72 61 -72h18v-84h-36q-151 0 -151 136q0 34 5 79q6 54 6 78 q0 18 -4 30.5t-22 24.5t-50 13z"/>
<glyph glyph-name="bar" horiz-adv-x="283" unicode="|" d="M88 750h106v-1000h-106v1000z"/>
<glyph glyph-name="braceright" horiz-adv-x="314" unicode="}" d="M284 326v-77q-76 -2 -76 -68q0 -24 6 -78t6 -79q0 -136 -152 -136h-36v84h18q61 1 61 72q0 23 -5 56q-5 55 -5 74q0 52 21 77.5t65 35.5v2q-44 10 -65 35t-21 77q0 19 5 72q5 35 5 57q0 70 -61 71h-18v85h35q153 0 153 -135q0 -25 -6 -79t-6 -78q0 -29 15 -48t61 -20z "/>
<glyph glyph-name="asciitilde" horiz-adv-x="596" unicode="~" d="M138 192h-95q-1 96 36.5 141.5t102.5 45.5q34 0 63.5 -10.5t76.5 -37.5q72 -39 95 -39q37 0 41 81h95v-18q0 -171 -133 -171q-54 0 -140 48q-71 42 -95 42q-42 0 -47 -82z"/>
<glyph glyph-name="uni00A0" horiz-adv-x="202" unicode=" "/>
<glyph glyph-name="exclamdown" horiz-adv-x="268" unicode="¡" d="M134 495q40 0 64.5 -25.5t24.5 -66.5q0 -39 -24.5 -64.5t-64.5 -25.5q-39 0 -64 25.5t-25 64.5q0 40 25 66t64 26zM214 -198h-159l22 455h115z"/>
<glyph glyph-name="cent" horiz-adv-x="555" unicode="¢" d="M377 -12h-98v98q-93 15 -148 77q-56 64 -56 164q0 93 54 162t150 88v96h99v-91q53 -3 95 -20l-24 -112q-36 18 -89 18q-59 0 -94 -37t-35 -98q0 -65 37 -99.5t93 -34.5q55 0 99 17l18 -109q-40 -20 -101 -23v-96z"/>
<glyph glyph-name="sterling" horiz-adv-x="555" unicode="£" d="M507 0h-456v81q44 18 78 58.5t34 88.5q0 19 -3 40h-98v103h80q-8 40 -8 81q0 94 62.5 151.5t163.5 57.5q74 0 118 -24l-25 -115q-31 18 -84 18q-49 0 -71 -26.5t-22 -67.5q0 -38 9 -75h137v-103h-124v-11q0 -36 -9 -60q-15 -41 -49 -71v-2h267v-124z"/>
<glyph glyph-name="currency" horiz-adv-x="555" unicode="¤" d="M276 448q-40 0 -66 -31.5t-26 -82.5q0 -55 28.5 -86t63.5 -31q37 0 65 30.5t28 87.5q0 49 -26.5 81t-66.5 32zM278 550q68 0 116 -35l77 83l66 -68l-87 -78q32 -55 32 -116q0 -72 -34 -121l84 -81l-65 -66l-74 87q-47 -39 -117 -39q-72 0 -116 38l-72 -86l-65 66l83 79 q-36 52 -36 120q0 65 35 119l-87 77l67 70l77 -86q46 37 116 37z"/>
<glyph glyph-name="yen" horiz-adv-x="555" unicode="¥" d="M344 0h-143v160h-155v71h155v64h-155v71h119l-163 284h163l70 -160q9 -19 42 -109h2q1 3 17 45t26 65l71 159h160l-171 -284h119v-71h-157v-64h157v-71h-157v-160z"/>
<glyph glyph-name="brokenbar" horiz-adv-x="283" unicode="¦" d="M88 674h106v-350h-106v350zM88 174h106v-350h-106v350z"/>
<glyph glyph-name="section" horiz-adv-x="561" unicode="§" d="M464 654l-24 -92q-58 28 -131 28q-43 0 -66.5 -13t-23.5 -35t25 -37.5t82 -32.5q94 -29 142 -66.5t48 -108.5q0 -76 -73 -122q17 -13 30.5 -37t13.5 -55q0 -43 -21 -76t-55 -50.5t-70.5 -25.5t-74.5 -8q-117 0 -187 44l29 92q72 -42 151 -42q41 0 66 13.5t25 38.5 q0 24 -23.5 40t-82.5 35q-96 29 -147.5 66.5t-51.5 105.5q0 34 21.5 68t61.5 54q-17 13 -28.5 38.5t-11.5 52.5q0 73 61.5 114t156.5 41t158 -30zM163 343q0 -48 87 -78q17 -6 44 -15t45.5 -16t28.5 -12q29 19 29 52q0 45 -69 72q-14 5 -43 15.5t-51 19t-35 14.5 q-36 -19 -36 -52z"/>
<glyph glyph-name="dieresis" d="M256 557q-30 0 -50.5 20.5t-20.5 49.5q0 31 20.5 51t50.5 20q29 0 49 -20t20 -51q0 -29 -19.5 -49.5t-49.5 -20.5zM46 557q-30 0 -51 20.5t-21 49.5q0 30 21 50.5t51 20.5q29 0 48.5 -20t19.5 -51q0 -29 -19.5 -49.5t-48.5 -20.5z" unicode="¨"/>
<glyph glyph-name="copyright" horiz-adv-x="677" unicode="©" d="M474 492l-15 -53q-38 22 -95 22q-58 0 -91 -33t-33 -91q0 -55 34 -90t89 -35q63 0 100 25l15 -52q-49 -32 -124 -32q-86 0 -135.5 51t-49.5 130q0 83 57.5 134.5t137.5 51.5q35 0 67.5 -8.5t42.5 -19.5zM339 591q-101 0 -171.5 -73.5t-70.5 -178.5t70.5 -178.5 t171.5 -73.5q100 0 170.5 73.5t70.5 178.5t-70.5 178.5t-170.5 73.5zM340 648q128 0 216.5 -90t88.5 -218q0 -129 -88.5 -219.5t-216.5 -90.5q-129 0 -218.5 90.5t-89.5 219.5q0 128 89.5 218t218.5 90z"/>
<glyph glyph-name="ordfeminine" horiz-adv-x="378" unicode="ª" d="M234 381v35q-99 0 -99 -49q0 -16 12.5 -27t31.5 -11q16 0 30 8.5t20 21.5q5 12 5 22zM341 266h-94l-7 33h-2q-38 -38 -99 -38q-48 0 -77 28t-29 70q0 57 53 86.5t144 29.5v7q0 7 -3.5 14.5t-18.5 15.5t-39 8q-53 0 -92 -25l-20 64q53 32 132 32q76 0 111.5 -39.5 t35.5 -100.5v-107q0 -54 5 -78z"/>
<glyph glyph-name="guillemotleft" horiz-adv-x="465" unicode="«" d="M442 443l-119 -191l119 -191h-106l-116 191l116 191h106zM248 443l-119 -191l119 -191h-106l-116 191l116 191h106z"/>
<glyph glyph-name="logicalnot" horiz-adv-x="596" unicode="¬" d="M40 422h516v-316h-97v223h-419v93z"/>
<glyph glyph-name="uni00AD" horiz-adv-x="291" unicode="­" d="M30 313h262v-101h-262v101z"/>
<glyph glyph-name="registered" horiz-adv-x="459" unicode="®" d="M229 642q-53 0 -88.5 -38t-35.5 -92t35.5 -91.5t89.5 -37.5t89.5 37.5t35.5 92.5q0 54 -36 91.5t-90 37.5zM230 685q74 0 125.5 -50.5t51.5 -121.5q0 -72 -51.5 -122.5t-125.5 -50.5t-126 50.5t-52 122.5q0 71 52 121.5t126 50.5zM210 560v-38h14q30 0 30 19q0 20 -28 20 q-3 0 -8.5 -0.5t-7.5 -0.5zM208 489v-58h-49v159q27 5 70 5t64 -12q17 -12 17 -35q0 -26 -37 -36v-2q26 -9 33 -41q6 -28 11 -38h-55q-5 6 -11 34q-5 24 -27 24h-16z"/>
<glyph glyph-name="macron" d="M25 665h251v-83h-251v83z" unicode="¯"/>
<glyph glyph-name="degree" horiz-adv-x="356" unicode="°" d="M179 615q-32 0 -52 -23t-20 -55t20.5 -54t51.5 -22t51 22t20 55q0 31 -19 54t-52 23zM179 685q66 0 109 -42.5t43 -103.5q0 -63 -45 -105.5t-108 -42.5q-66 0 -108.5 42.5t-42.5 104.5q0 61 44.5 104t107.5 43z"/>
<glyph glyph-name="plusminus" horiz-adv-x="596" unicode="±" d="M40 93h516v-93h-516v93zM249 579h98v-173h209v-93h-209v-176h-98v176h-209v93h209v173z"/>
<glyph glyph-name="twosuperior" horiz-adv-x="352" unicode="²" d="M15 443v56l61 55q81 72 97 93q20 26 20 51q0 22 -16 35.5t-43 13.5q-45 0 -86 -28l-30 76q62 43 145 43q73 0 113 -34t40 -87q0 -34 -18.5 -66t-38 -50t-58.5 -50l-24 -20v-2h146v-86h-308z"/>
<glyph glyph-name="threesuperior" horiz-adv-x="347" unicode="³" d="M47 733l-22 73q55 32 140 32q69 0 107 -28t38 -71q0 -31 -23 -54.5t-60 -34.5v-2q42 -5 69.5 -30t27.5 -62q0 -53 -49 -85.5t-131 -32.5q-87 0 -135 28l23 77q50 -26 98 -26q31 0 51 13t20 32q0 24 -25 37.5t-61 13.5h-30v68h28q30 0 53.5 10t23.5 31q0 36 -53 36 q-47 0 -90 -25z"/>
<glyph glyph-name="acute" d="M161 702h141l-122 -152h-105z" unicode="´"/>
<glyph glyph-name="mu" horiz-adv-x="585" unicode="µ" d="M391 67h-3q-14 -30 -45.5 -52t-75.5 -22q-43 0 -69 29v-42q0 -126 11 -178h-135q-13 35 -13 177v510h152v-273q0 -105 74 -105q27 0 49 16.5t30 37.5q5 15 5 33v291h152v-330q0 -31 10 -43t32 -13l-9 -105q-18 -9 -54 -9q-88 0 -111 78z"/>
<glyph glyph-name="paragraph" horiz-adv-x="542" unicode="¶" d="M302 -47h-96v311h-7q-32 0 -69.5 19.5t-68 65t-30.5 104.5q0 43 13 80t44 71.5t92 54t147 19.5q100 0 143 -11v-714h-97v631h-71v-631z"/>
<glyph glyph-name="periodcentered" horiz-adv-x="260" unicode="·" d="M130 167q-40 0 -65 26t-25 66t25.5 66.5t64.5 26.5q40 0 64.5 -26t25.5 -67q0 -40 -25 -66t-65 -26z"/>
<glyph glyph-name="cedilla" d="M121 4h82l-27 -48q30 -3 51 -23t21 -49q0 -46 -34 -67t-87 -21q-48 0 -81 20l20 57q31 -17 55 -17q35 0 35 25q0 31 -77 37z" unicode="¸"/>
<glyph glyph-name="onesuperior" d="M235 443h-117v294h-2l-79 -35l-16 83l112 48h102v-390z" unicode="¹"/>
<glyph glyph-name="ordmasculine" horiz-adv-x="386" unicode="º" d="M192 517q-31 0 -46 -28t-15 -64q0 -38 17 -64t45 -26q29 0 45 25.5t16 66.5q0 35 -16.5 62.5t-45.5 27.5zM194 591q76 0 121.5 -45.5t45.5 -116.5q0 -80 -50 -124t-120 -44q-71 0 -119.5 44.5t-48.5 117.5q0 75 48 121.5t123 46.5z"/>
<glyph glyph-name="guillemotright" horiz-adv-x="465" unicode="»" d="M334 252l-120 191h105l117 -191l-117 -191h-105zM142 252l-119 191h104l117 -191l-117 -191h-104z"/>
<glyph glyph-name="onequarter" horiz-adv-x="831" unicode="¼" d="M635 164v74q0 26 4 74h-3q-23 -46 -36 -65l-56 -81l3 -2h88zM743 0h-108v90h-196v63l170 241h134v-230h53v-74h-53v-90zM256 -11h-83l369 672h82zM249 266h-117v295h-1l-80 -35l-16 82l112 48h102v-390z"/>
<glyph glyph-name="onehalf" horiz-adv-x="831" unicode="½" d="M485 0v56l61 56q50 44 67 60t33.5 39.5t16.5 44.5t-16 34.5t-43 13.5q-45 0 -86 -28l-31 76q59 43 146 43q72 0 112 -34t40 -87q0 -33 -18.5 -65t-37.5 -50.5t-58 -50.5l-24 -19v-2h146v-87h-308zM232 -11h-83l369 672h82zM237 266h-117v295h-2l-79 -35l-16 82l112 48 h102v-390z"/>
<glyph glyph-name="threequarters" horiz-adv-x="831" unicode="¾" d="M644 164v74q0 15 2 41t2 33h-2q-30 -56 -36 -65l-56 -81l2 -2h88zM752 0h-108v90h-195v63l170 241h133v-230h53v-74h-53v-90zM288 -11h-83l368 672h83zM64 557l-22 72q52 32 140 32q70 0 107.5 -28t37.5 -71q0 -31 -22.5 -54t-59.5 -34v-2q42 -5 69.5 -30t27.5 -62 q0 -53 -49.5 -86t-131.5 -33q-85 0 -134 28l22 78q50 -26 98 -26q31 0 51.5 12.5t20.5 32.5q0 24 -25.5 37t-61.5 13h-30v68h28q30 0 53.5 10.5t23.5 31.5q0 35 -52 35q-45 0 -91 -24z"/>
<glyph glyph-name="questiondown" horiz-adv-x="445" unicode="¿" d="M178 260h133l1 -25v-11q0 -72 -58 -143q-23 -27 -31.5 -38t-18 -29.5t-9.5 -34.5q0 -58 73 -59q56 0 100 29l33 -109q-70 -41 -167 -41q-94 0 -143 44.5t-49 111.5q0 14 2.5 28t5 24t10 23.5t11 20t14 20t13.5 17t16 18t14 15.5q51 58 51 122zM248 495q40 0 64.5 -25.5 t24.5 -65.5t-24.5 -65.5t-64.5 -25.5q-39 0 -64 25.5t-26 65.5q0 40 25 65.5t65 25.5z"/>
<glyph glyph-name="Agrave" horiz-adv-x="656" unicode="À" d="M153 833h160l84 -121h-122zM245 287h149l-42 143q-9 30 -34 130h-2q-3 -13 -14 -60.5t-17 -69.5zM416 173h-193l-48 -173h-158l206 674h200l209 -674h-164z"/>
<glyph glyph-name="Aacute" horiz-adv-x="656" unicode="Á" d="M337 833h160l-122 -123h-122zM245 287h149l-42 143q-9 30 -34 130h-2q-3 -13 -14 -60.5t-17 -69.5zM416 173h-193l-48 -173h-158l206 674h200l209 -674h-164z"/>
<glyph glyph-name="Acircumflex" horiz-adv-x="656" unicode="Â" d="M271 833h114l101 -123h-107l-50 62h-2l-50 -62h-106zM245 287h149l-42 143q-9 30 -34 130h-2q-3 -13 -14 -60.5t-17 -69.5zM416 173h-193l-48 -173h-158l206 674h200l209 -674h-164z"/>
<glyph glyph-name="Atilde" horiz-adv-x="656" unicode="Ã" d="M261 715h-70v11q0 56 21 86t56 30q31 0 64 -20q30 -19 44 -19q13 0 18.5 9t8.5 34h68v-12q0 -113 -79 -113q-31 0 -65 19q-34 18 -42 18q-21 0 -24 -43zM245 287h149l-42 143q-9 30 -34 130h-2q-3 -13 -14 -60.5t-17 -69.5zM416 173h-193l-48 -173h-158l206 674h200 l209 -674h-164z"/>
<glyph glyph-name="Adieresis" horiz-adv-x="656" unicode="Ä" d="M435 712q-29 0 -48.5 20.5t-19.5 48.5q0 29 19.5 48.5t48.5 19.5t48 -19.5t19 -48.5q0 -28 -19 -48.5t-48 -20.5zM228 712q-29 0 -49 20.5t-20 48.5q0 29 20 48.5t49 19.5q28 0 47 -19.5t19 -48.5q0 -28 -19 -48.5t-47 -20.5zM245 287h149l-42 143q-9 30 -34 130h-2 q-3 -13 -14 -60.5t-17 -69.5zM416 173h-193l-48 -173h-158l206 674h200l209 -674h-164z"/>
<glyph glyph-name="Aring" horiz-adv-x="656" unicode="Å" d="M324 847q-21 0 -32.5 -14.5t-11.5 -34.5q0 -18 12 -31.5t32 -13.5t32 13t12 33t-12 34t-32 14zM325 898q55 0 84.5 -28t29.5 -71q0 -42 -30.5 -69.5t-83.5 -27.5t-84 27.5t-31 68.5q0 43 30.5 71.5t84.5 28.5zM245 287h149l-42 143q-9 30 -34 130h-2q-3 -13 -14 -60.5 t-17 -69.5zM416 173h-193l-48 -173h-158l206 674h200l209 -674h-164z"/>
<glyph glyph-name="AE" horiz-adv-x="868" unicode="Æ" d="M278 306h134l-20 163q-1 10 -12 98h-3q-4 -12 -34 -99zM159 0h-157l288 674h513v-125h-277l18 -143h255v-124h-235l20 -157h256v-125h-387l-24 184h-196z"/>
<glyph glyph-name="Ccedilla" horiz-adv-x="597" unicode="Ç" d="M538 138l23 -119q-55 -28 -159 -29l-19 -34q32 -7 52.5 -28t20.5 -54q0 -48 -35 -70t-84 -22q-52 0 -86 19l20 62q23 -14 56 -14q36 0 36 25q0 29 -79 37l39 83q-139 18 -213.5 108.5t-74.5 224.5q0 167 104.5 262.5t263.5 95.5q108 0 166 -30l-31 -121q-60 25 -128 25 q-95 0 -155 -57.5t-60 -165.5q0 -102 57.5 -161t158.5 -59q72 0 127 22z"/>
<glyph glyph-name="Egrave" horiz-adv-x="534" unicode="È" d="M111 833h160l84 -121h-122zM467 409v-124h-248v-160h277v-125h-430v674h416v-125h-263v-140h248z"/>
<glyph glyph-name="Eacute" horiz-adv-x="534" unicode="É" d="M289 833h160l-123 -123h-121zM467 409v-124h-248v-160h277v-125h-430v674h416v-125h-263v-140h248z"/>
<glyph glyph-name="Ecircumflex" horiz-adv-x="534" unicode="Ê" d="M221 833h115l101 -123h-107l-51 62h-2l-50 -62h-106zM467 409v-124h-248v-160h277v-125h-430v674h416v-125h-263v-140h248z"/>
<glyph glyph-name="Edieresis" horiz-adv-x="534" unicode="Ë" d="M376 713q-30 0 -49.5 20t-19.5 48q0 29 20 49t49 20q28 0 47.5 -20t19.5 -49q0 -28 -19.5 -48t-47.5 -20zM169 713q-30 0 -50 20t-20 48q0 29 20.5 49t49.5 20q28 0 47 -20t19 -49q0 -28 -19 -48t-47 -20zM467 409v-124h-248v-160h277v-125h-430v674h416v-125h-263v-140 h248z"/>
<glyph glyph-name="Igrave" horiz-adv-x="285" unicode="Ì" d="M-27 833h160l84 -121h-122zM66 674h153v-674h-153v674z"/>
<glyph glyph-name="Iacute" horiz-adv-x="285" unicode="Í" d="M153 833h160l-123 -123h-122zM66 674h153v-674h-153v674z"/>
<glyph glyph-name="Icircumflex" horiz-adv-x="285" unicode="Î" d="M85 833h114l101 -123h-107l-50 62h-2l-50 -62h-106zM66 674h153v-674h-153v674z"/>
<glyph glyph-name="Idieresis" horiz-adv-x="285" unicode="Ï" d="M247 713q-29 0 -48.5 20t-19.5 48q0 29 19.5 49t48.5 20q28 0 47.5 -20t19.5 -49q0 -28 -19 -48t-48 -20zM40 713q-30 0 -49.5 20t-19.5 48q0 29 20 49t49 20q28 0 47 -20t19 -49q0 -28 -19 -48t-47 -20zM66 674h153v-674h-153v674z"/>
<glyph glyph-name="Eth" horiz-adv-x="704" unicode="Ð" d="M360 403v-119h-134v-172q14 -2 53 -2q108 0 168.5 59.5t60.5 179.5q0 107 -56 161t-157 54q-41 0 -69 -6v-155h134zM3 284v119h71v264q93 15 206 15q182 0 276 -71q113 -84 113 -257q0 -182 -111 -276q-106 -88 -311 -88q-97 0 -173 10v284h-71z"/>
<glyph glyph-name="Ntilde" horiz-adv-x="690" unicode="Ñ" d="M277 715h-70v8q0 58 20.5 88.5t57.5 30.5q30 0 63 -20q32 -19 44 -19q13 0 19 9.5t8 33.5h69v-9q0 -116 -79 -116q-31 0 -65 19q-36 18 -43 18q-19 0 -24 -43zM206 0h-140v674h178l140 -247q63 -112 110 -231h3q-13 116 -13 281v197h140v-674h-160l-144 260 q-71 128 -117 238l-3 -1q6 -133 6 -294v-203z"/>
<glyph glyph-name="Ograve" horiz-adv-x="717" unicode="Ò" d="M188 834h160l84 -121h-121zM359 564q-76 0 -119.5 -64t-43.5 -165q0 -100 44.5 -162.5t119.5 -62.5t118.5 64t43.5 165q0 95 -43.5 160t-119.5 65zM363 685q150 0 235 -97.5t85 -243.5q0 -164 -91 -259.5t-240 -95.5q-146 0 -231.5 97.5t-85.5 245.5q0 154 90.5 253.5 t237.5 99.5z"/>
<glyph glyph-name="Oacute" horiz-adv-x="717" unicode="Ó" d="M373 834h160l-122 -123h-122zM359 564q-76 0 -119.5 -64t-43.5 -165q0 -100 44.5 -162.5t119.5 -62.5t118.5 64t43.5 165q0 95 -43.5 160t-119.5 65zM363 685q150 0 235 -97.5t85 -243.5q0 -164 -91 -259.5t-240 -95.5q-146 0 -231.5 97.5t-85.5 245.5q0 154 90.5 253.5 t237.5 99.5z"/>
<glyph glyph-name="Ocircumflex" horiz-adv-x="717" unicode="Ô" d="M302 833h114l101 -122h-107l-50 62h-2l-50 -62h-107zM359 564q-76 0 -119.5 -64t-43.5 -165q0 -100 44.5 -162.5t119.5 -62.5t118.5 64t43.5 165q0 95 -43.5 160t-119.5 65zM363 685q150 0 235 -97.5t85 -243.5q0 -164 -91 -259.5t-240 -95.5q-146 0 -231.5 97.5 t-85.5 245.5q0 154 90.5 253.5t237.5 99.5z"/>
<glyph glyph-name="Otilde" horiz-adv-x="717" unicode="Õ" d="M289 714h-70v11q0 57 20.5 87t56.5 30q26 0 64 -20q30 -19 44 -19q12 0 18 9t9 33h68v-12q0 -112 -79 -112q-29 0 -65 18q-31 18 -42 18q-21 0 -24 -43zM359 564q-76 0 -119.5 -64t-43.5 -165q0 -100 44.5 -162.5t119.5 -62.5t118.5 64t43.5 165q0 95 -43.5 160 t-119.5 65zM363 685q150 0 235 -97.5t85 -243.5q0 -164 -91 -259.5t-240 -95.5q-146 0 -231.5 97.5t-85.5 245.5q0 154 90.5 253.5t237.5 99.5z"/>
<glyph glyph-name="Odieresis" horiz-adv-x="717" unicode="Ö" d="M463 713q-29 0 -48.5 20t-19.5 48q0 29 19.5 49t48.5 20t48 -20t19 -49q0 -28 -19 -48t-48 -20zM256 713q-29 0 -49 20t-20 48q0 29 20 49t49 20q28 0 47 -20t19 -49q0 -28 -19 -48t-47 -20zM359 564q-76 0 -119.5 -64t-43.5 -165q0 -100 44.5 -162.5t119.5 -62.5 t118.5 64t43.5 165q0 95 -43.5 160t-119.5 65zM363 685q150 0 235 -97.5t85 -243.5q0 -164 -91 -259.5t-240 -95.5q-146 0 -231.5 97.5t-85.5 245.5q0 154 90.5 253.5t237.5 99.5z"/>
<glyph glyph-name="multiply" horiz-adv-x="596" unicode="×" d="M40 459l65 67l193 -197l193 197l65 -67l-192 -196l192 -196l-66 -67l-192 196l-192 -196l-66 67l192 196z"/>
<glyph glyph-name="Oslash" horiz-adv-x="717" unicode="Ø" d="M505 454l-220 -323q31 -23 74 -23q79 0 125 63.5t46 167.5q0 57 -22 114zM215 214l223 328q-35 24 -78 24q-80 0 -126 -63.5t-46 -165.5q0 -65 26 -123h1zM154 -66l-82 64l56 85q-93 98 -93 253q0 151 90.5 250t234.5 99q84 0 149 -35l55 81l87 -58l-57 -84 q89 -95 89 -248q0 -162 -90.5 -257t-233.5 -95q-79 0 -144 34z"/>
<glyph glyph-name="Ugrave" horiz-adv-x="682" unicode="Ù" d="M174 833h160l84 -121h-122zM65 674h153v-388q0 -86 31.5 -130.5t90.5 -44.5q124 0 124 175v388h152v-378q0 -153 -73 -230t-208 -77q-270 0 -270 309v376z"/>
<glyph glyph-name="Uacute" horiz-adv-x="682" unicode="Ú" d="M348 833h160l-122 -123h-122zM65 674h153v-388q0 -86 31.5 -130.5t90.5 -44.5q124 0 124 175v388h152v-378q0 -153 -73 -230t-208 -77q-270 0 -270 309v376z"/>
<glyph glyph-name="Ucircumflex" horiz-adv-x="682" unicode="Û" d="M294 833h114l101 -123h-107l-50 62h-2l-50 -62h-106zM65 674h153v-388q0 -86 31.5 -130.5t90.5 -44.5q124 0 124 175v388h152v-378q0 -153 -73 -230t-208 -77q-270 0 -270 309v376z"/>
<glyph glyph-name="Udieresis" horiz-adv-x="682" unicode="Ü" d="M451 713q-29 0 -48.5 20t-19.5 48q0 29 19.5 49t48.5 20q28 0 47.5 -20t19.5 -49q0 -28 -19 -48t-48 -20zM244 713q-30 0 -49.5 20t-19.5 48q0 29 20 49t49 20q28 0 47 -20t19 -49q0 -28 -19 -48t-47 -20zM65 674h153v-388q0 -86 31.5 -130.5t90.5 -44.5q124 0 124 175 v388h152v-378q0 -153 -73 -230t-208 -77q-270 0 -270 309v376z"/>
<glyph glyph-name="Yacute" horiz-adv-x="603" unicode="Ý" d="M319 832h160l-122 -124h-122zM374 0h-152v276l-213 398h174l69 -162q22 -51 52 -129h2q17 46 51 129l68 162h171l-222 -393v-281z"/>
<glyph glyph-name="Thorn" horiz-adv-x="580" unicode="Þ" d="M217 436v-185q25 -5 62 -5q59 0 89.5 27t30.5 72q0 46 -30.5 71t-85.5 25q-39 0 -66 -5zM66 0v674h151v-121q27 3 82 3q122 0 185 -53q65 -55 65 -146q0 -117 -73.5 -173t-190.5 -56q-42 0 -68 4v-132h-151z"/>
<glyph glyph-name="germandbls" horiz-adv-x="600" unicode="ß" d="M213 0h-152v431q0 156 77 227q66 63 180 63q93 0 154 -51t61 -134q0 -52 -24 -82q-57 -28 -57 -69q0 -32 34 -67q25 -27 37.5 -41.5t27 -47.5t14.5 -68q0 -78 -53.5 -125t-147.5 -47q-68 0 -107 16l19 112q32 -14 69 -14q31 0 49 14.5t18 37.5q0 31 -36 68 q-25 25 -36.5 39t-26 43.5t-14.5 59.5q0 81 81 124q7 19 7 35q0 35 -21.5 58t-56.5 23q-96 0 -96 -161v-444z"/>
<glyph glyph-name="agrave" horiz-adv-x="528" unicode="à" d="M100 702h141l86 -152h-104zM321 178v53h-6q-136 0 -136 -77q0 -28 16.5 -43t43.5 -15q28 0 49.5 16t29.5 40q3 12 3 26zM476 0h-137l-9 49h-3q-49 -60 -140 -60q-71 0 -114.5 44.5t-43.5 105.5q0 92 75.5 139.5t207.5 47.5h4v7q0 63 -89 63q-76 0 -135 -37l-28 98 q77 43 190 43q114 0 164.5 -58t50.5 -153v-170q0 -81 7 -119z"/>
<glyph glyph-name="aacute" horiz-adv-x="528" unicode="á" d="M281 702h141l-122 -152h-105zM321 178v53h-6q-136 0 -136 -77q0 -28 16.5 -43t43.5 -15q28 0 49.5 16t29.5 40q3 12 3 26zM476 0h-137l-9 49h-3q-49 -60 -140 -60q-71 0 -114.5 44.5t-43.5 105.5q0 92 75.5 139.5t207.5 47.5h4v7q0 63 -89 63q-76 0 -135 -37l-28 98 q77 43 190 43q114 0 164.5 -58t50.5 -153v-170q0 -81 7 -119z"/>
<glyph glyph-name="acircumflex" horiz-adv-x="528" unicode="â" d="M210 702h102l99 -152h-99l-50 87h-2l-51 -87h-99zM321 178v53h-6q-136 0 -136 -77q0 -28 16.5 -43t43.5 -15q28 0 49.5 16t29.5 40q3 12 3 26zM476 0h-137l-9 49h-3q-49 -60 -140 -60q-71 0 -114.5 44.5t-43.5 105.5q0 92 75.5 139.5t207.5 47.5h4v7q0 63 -89 63 q-76 0 -135 -37l-28 98q77 43 190 43q114 0 164.5 -58t50.5 -153v-170q0 -81 7 -119z"/>
<glyph glyph-name="atilde" horiz-adv-x="528" unicode="ã" d="M185 558h-72v10q0 57 22.5 89t59.5 32q25 0 65 -20q32 -20 42 -20q13 0 19 9.5t7 35.5h70v-12q0 -117 -82 -117q-27 0 -69 22q-29 16 -38 16q-23 0 -24 -45zM321 178v53h-6q-136 0 -136 -77q0 -28 16.5 -43t43.5 -15q28 0 49.5 16t29.5 40q3 12 3 26zM476 0h-137l-9 49 h-3q-49 -60 -140 -60q-71 0 -114.5 44.5t-43.5 105.5q0 92 75.5 139.5t207.5 47.5h4v7q0 63 -89 63q-76 0 -135 -37l-28 98q77 43 190 43q114 0 164.5 -58t50.5 -153v-170q0 -81 7 -119z"/>
<glyph glyph-name="adieresis" horiz-adv-x="528" unicode="ä" d="M370 557q-30 0 -50.5 20.5t-20.5 49.5q0 31 20.5 51t50.5 20q29 0 49 -20t20 -51q0 -29 -19.5 -49.5t-49.5 -20.5zM160 557q-30 0 -51 20.5t-21 49.5q0 30 21 50.5t51 20.5q29 0 48.5 -20t19.5 -51q0 -29 -19.5 -49.5t-48.5 -20.5zM321 178v53h-6q-136 0 -136 -77 q0 -28 16.5 -43t43.5 -15q28 0 49.5 16t29.5 40q3 12 3 26zM476 0h-137l-9 49h-3q-49 -60 -140 -60q-71 0 -114.5 44.5t-43.5 105.5q0 92 75.5 139.5t207.5 47.5h4v7q0 63 -89 63q-76 0 -135 -37l-28 98q77 43 190 43q114 0 164.5 -58t50.5 -153v-170q0 -81 7 -119z"/>
<glyph glyph-name="aring" horiz-adv-x="528" unicode="å" d="M265 589q22 0 34 14t12 34t-12.5 34.5t-34.5 14.5q-21 0 -32.5 -15t-11.5 -35q0 -18 12.5 -32.5t32.5 -14.5zM266 539q-52 0 -84 27.5t-32 68.5q0 44 31.5 72.5t85.5 28.5q53 0 82.5 -28t29.5 -72q0 -42 -31 -69.5t-82 -27.5zM321 178v53h-6q-136 0 -136 -77 q0 -28 16.5 -43t43.5 -15q28 0 49.5 16t29.5 40q3 12 3 26zM476 0h-137l-9 49h-3q-49 -60 -140 -60q-71 0 -114.5 44.5t-43.5 105.5q0 92 75.5 139.5t207.5 47.5h4v7q0 63 -89 63q-76 0 -135 -37l-28 98q77 43 190 43q114 0 164.5 -58t50.5 -153v-170q0 -81 7 -119z"/>
<glyph glyph-name="ae" horiz-adv-x="803" unicode="æ" d="M459 305h174q1 34 -18 65t-65 31q-43 0 -66.5 -31t-24.5 -65zM322 178v51h-5q-63 0 -101 -18.5t-38 -57.5q0 -27 18 -42t45 -15q54 0 77 51q4 8 4 31zM770 203h-310q2 -46 38 -73.5t94 -27.5q75 0 137 26l21 -102q-71 -37 -180 -37q-62 0 -112 23t-74 64h-4 q-64 -87 -182 -87q-78 0 -123.5 44t-45.5 109q0 87 76.5 133.5t208.5 46.5h4v14q0 10 -6.5 22t-29 24.5t-57.5 12.5q-69 0 -131 -37l-30 96q83 46 173 46q116 0 161 -79h3q60 79 167 79q101 0 153 -72t52 -171q0 -18 -3 -54z"/>
<glyph glyph-name="ccedilla" horiz-adv-x="451" unicode="ç" d="M410 125l18 -113q-38 -19 -112 -22l-19 -34q31 -7 52 -28t21 -53q0 -48 -35 -70.5t-85 -22.5q-54 0 -85 19l20 62q23 -14 56 -14q36 0 36 25q0 29 -79 37l40 84q-96 14 -150.5 79t-54.5 166q0 112 74 186t206 74q65 0 116 -19l-24 -113q-34 15 -85 15q-59 0 -95 -37.5 t-36 -97.5q0 -66 37.5 -102.5t96.5 -36.5q50 0 87 16z"/>
<glyph glyph-name="egrave" horiz-adv-x="528" unicode="è" d="M120 702h140l86 -152h-104zM177 300h180q0 37 -19.5 68t-66.5 31q-43 0 -66.5 -30.5t-27.5 -68.5zM493 196h-315q4 -45 42.5 -69t95.5 -24q72 0 135 20l20 -103q-75 -30 -177 -30q-123 0 -192 66.5t-69 182.5q0 65 25 122.5t83 98t139 40.5q110 0 164 -71t54 -173 q0 -32 -5 -60z"/>
<glyph glyph-name="eacute" horiz-adv-x="528" unicode="é" d="M300 702h141l-122 -152h-105zM177 300h180q0 37 -19.5 68t-66.5 31q-43 0 -66.5 -30.5t-27.5 -68.5zM493 196h-315q4 -45 42.5 -69t95.5 -24q72 0 135 20l20 -103q-75 -30 -177 -30q-123 0 -192 66.5t-69 182.5q0 65 25 122.5t83 98t139 40.5q110 0 164 -71t54 -173 q0 -32 -5 -60z"/>
<glyph glyph-name="ecircumflex" horiz-adv-x="528" unicode="ê" d="M224 702h102l99 -152h-99l-50 87h-2l-50 -87h-100zM177 300h180q0 37 -19.5 68t-66.5 31q-43 0 -66.5 -30.5t-27.5 -68.5zM493 196h-315q4 -45 42.5 -69t95.5 -24q72 0 135 20l20 -103q-75 -30 -177 -30q-123 0 -192 66.5t-69 182.5q0 65 25 122.5t83 98t139 40.5 q110 0 164 -71t54 -173q0 -32 -5 -60z"/>
<glyph glyph-name="edieresis" horiz-adv-x="528" unicode="ë" d="M386 557q-30 0 -50.5 20.5t-20.5 49.5q0 31 20.5 51t50.5 20q29 0 49 -20t20 -51q0 -29 -19.5 -49.5t-49.5 -20.5zM176 557q-30 0 -51 20.5t-21 49.5q0 30 21 50.5t51 20.5q29 0 48.5 -20t19.5 -51q0 -29 -19.5 -49.5t-48.5 -20.5zM177 300h180q0 37 -19.5 68t-66.5 31 q-43 0 -66.5 -30.5t-27.5 -68.5zM493 196h-315q4 -45 42.5 -69t95.5 -24q72 0 135 20l20 -103q-75 -30 -177 -30q-123 0 -192 66.5t-69 182.5q0 65 25 122.5t83 98t139 40.5q110 0 164 -71t54 -173q0 -32 -5 -60z"/>
<glyph glyph-name="igrave" horiz-adv-x="274" unicode="ì" d="M-30 702h140l86 -152h-104zM213 0h-152v489h152v-489z"/>
<glyph glyph-name="iacute" horiz-adv-x="274" unicode="í" d="M158 702h141l-122 -152h-105zM213 0h-152v489h152v-489z"/>
<glyph glyph-name="icircumflex" horiz-adv-x="274" unicode="î" d="M86 702h102l100 -152h-99l-51 87h-2l-50 -87h-99zM213 0h-152v489h152v-489z"/>
<glyph glyph-name="idieresis" horiz-adv-x="274" unicode="ï" d="M243 557q-30 0 -50.5 20.5t-20.5 49.5q0 31 20.5 51t50.5 20q29 0 49 -20t20 -51q0 -29 -19.5 -49.5t-49.5 -20.5zM33 557q-30 0 -51 20.5t-21 49.5q0 30 21 50.5t51 20.5q29 0 48.5 -20t19.5 -51q0 -29 -19.5 -49.5t-48.5 -20.5zM213 0h-152v489h152v-489z"/>
<glyph glyph-name="eth" horiz-adv-x="574" unicode="ð" d="M107 478l-27 60l105 47q-35 23 -94 48l66 85q81 -29 158 -80l138 60l30 -59l-106 -45q80 -63 123 -151q41 -79 41 -186q0 -130 -74.5 -199t-180.5 -69q-110 0 -181.5 67.5t-71.5 180.5q0 107 69 172t168 65q37 0 66 -20l2 2q-38 51 -87 84zM287 98q46 0 71.5 39.5 t25.5 104.5q0 76 -24 106q-26 33 -71 33q-51 0 -75 -44t-24 -99q0 -60 26 -100t71 -40z"/>
<glyph glyph-name="ntilde" horiz-adv-x="586" unicode="ñ" d="M224 558h-72v10q0 57 22 89t60 32q25 0 65 -20q32 -20 42 -20q12 0 18 9.5t8 35.5h70v-12q0 -117 -82 -117q-27 0 -69 22q-29 16 -38 16q-22 0 -24 -45zM61 0v333q0 70 -4 156h132l7 -67h3q19 30 58 54t93 24q79 0 127 -53t48 -157v-290h-152v271q0 106 -77 106 q-29 0 -48.5 -16.5t-28.5 -40.5q-6 -13 -6 -38v-282h-152z"/>
<glyph glyph-name="ograve" horiz-adv-x="577" unicode="ò" d="M133 702h140l86 -152h-104zM290 392q-51 0 -75.5 -43t-24.5 -104q0 -65 26.5 -106t73.5 -41q44 0 70.5 40.5t26.5 106.5q0 61 -24.5 104t-72.5 43zM294 500q112 0 181 -69.5t69 -180.5q0 -126 -75.5 -193.5t-182.5 -67.5q-110 0 -181.5 68t-71.5 184q0 118 71.5 188.5 t189.5 70.5z"/>
<glyph glyph-name="oacute" horiz-adv-x="577" unicode="ó" d="M307 702h141l-122 -152h-105zM290 392q-51 0 -75.5 -43t-24.5 -104q0 -65 26.5 -106t73.5 -41q44 0 70.5 40.5t26.5 106.5q0 61 -24.5 104t-72.5 43zM294 500q112 0 181 -69.5t69 -180.5q0 -126 -75.5 -193.5t-182.5 -67.5q-110 0 -181.5 68t-71.5 184q0 118 71.5 188.5 t189.5 70.5z"/>
<glyph glyph-name="ocircumflex" horiz-adv-x="577" unicode="ô" d="M238 702h102l99 -152h-99l-50 87h-2l-50 -87h-100zM290 392q-51 0 -75.5 -43t-24.5 -104q0 -65 26.5 -106t73.5 -41q44 0 70.5 40.5t26.5 106.5q0 61 -24.5 104t-72.5 43zM294 500q112 0 181 -69.5t69 -180.5q0 -126 -75.5 -193.5t-182.5 -67.5q-110 0 -181.5 68 t-71.5 184q0 118 71.5 188.5t189.5 70.5z"/>
<glyph glyph-name="otilde" horiz-adv-x="577" unicode="õ" d="M218 558h-72v10q0 57 22 89t60 32q25 0 65 -20q32 -20 42 -20q12 0 18 9.5t8 35.5h70v-12q0 -117 -82 -117q-27 0 -69 22q-29 16 -38 16q-22 0 -24 -45zM290 392q-51 0 -75.5 -43t-24.5 -104q0 -65 26.5 -106t73.5 -41q44 0 70.5 40.5t26.5 106.5q0 61 -24.5 104 t-72.5 43zM294 500q112 0 181 -69.5t69 -180.5q0 -126 -75.5 -193.5t-182.5 -67.5q-110 0 -181.5 68t-71.5 184q0 118 71.5 188.5t189.5 70.5z"/>
<glyph glyph-name="odieresis" horiz-adv-x="577" unicode="ö" d="M394 557q-30 0 -50.5 20.5t-20.5 49.5q0 31 20.5 51t50.5 20q29 0 49 -20t20 -51q0 -29 -19.5 -49.5t-49.5 -20.5zM184 557q-30 0 -51 20.5t-21 49.5q0 30 21 50.5t51 20.5q29 0 48.5 -20t19.5 -51q0 -29 -19.5 -49.5t-48.5 -20.5zM290 392q-51 0 -75.5 -43t-24.5 -104 q0 -65 26.5 -106t73.5 -41q44 0 70.5 40.5t26.5 106.5q0 61 -24.5 104t-72.5 43zM294 500q112 0 181 -69.5t69 -180.5q0 -126 -75.5 -193.5t-182.5 -67.5q-110 0 -181.5 68t-71.5 184q0 118 71.5 188.5t189.5 70.5z"/>
<glyph glyph-name="divide" horiz-adv-x="596" unicode="÷" d="M298 17q-33 0 -53 20.5t-20 53.5t20.5 53.5t52.5 20.5q33 0 52.5 -20t20.5 -54q0 -33 -20 -53.5t-53 -20.5zM556 220h-516v94h516v-94zM298 369q-33 0 -53 20.5t-20 52.5q0 34 20 54.5t53 20.5t52.5 -20t20.5 -55q0 -33 -20 -53t-53 -20z"/>
<glyph glyph-name="oslash" horiz-adv-x="577" unicode="ø" d="M379 319l-142 -203q19 -18 51 -18q50 0 79.5 39.5t29.5 104.5q0 45 -15 76zM199 166l143 208q-25 18 -54 18q-55 0 -82 -44t-27 -103q0 -48 18 -78zM288 500q70 0 119 -26l47 69l53 -37l-45 -67q82 -71 82 -193q0 -123 -75.5 -190t-179.5 -67q-67 0 -116 26l-49 -71 l-50 40l44 65q-85 69 -85 195q0 115 70.5 185.5t184.5 70.5z"/>
<glyph glyph-name="ugrave" horiz-adv-x="583" unicode="ù" d="M132 702h140l86 -152h-104zM522 489v-332q0 -75 4 -157h-132l-7 69h-3q-51 -80 -153 -80q-79 0 -125.5 52.5t-46.5 160.5v287h153v-263q0 -114 76 -114q54 0 76 53q5 11 5 33v291h153z"/>
<glyph glyph-name="uacute" horiz-adv-x="583" unicode="ú" d="M315 702h141l-122 -152h-105zM522 489v-332q0 -75 4 -157h-132l-7 69h-3q-51 -80 -153 -80q-79 0 -125.5 52.5t-46.5 160.5v287h153v-263q0 -114 76 -114q54 0 76 53q5 11 5 33v291h153z"/>
<glyph glyph-name="ucircumflex" horiz-adv-x="583" unicode="û" d="M241 702h102l99 -152h-99l-50 87h-2l-50 -87h-99zM522 489v-332q0 -75 4 -157h-132l-7 69h-3q-51 -80 -153 -80q-79 0 -125.5 52.5t-46.5 160.5v287h153v-263q0 -114 76 -114q54 0 76 53q5 11 5 33v291h153z"/>
<glyph glyph-name="udieresis" horiz-adv-x="583" unicode="ü" d="M401 557q-30 0 -50.5 20.5t-20.5 49.5q0 31 20.5 51t50.5 20q29 0 49 -20t20 -51q0 -29 -19.5 -49.5t-49.5 -20.5zM191 557q-30 0 -51 20.5t-21 49.5q0 30 21 50.5t51 20.5q29 0 48.5 -20t19.5 -51q0 -29 -19.5 -49.5t-48.5 -20.5zM522 489v-332q0 -75 4 -157h-132l-7 69 h-3q-51 -80 -153 -80q-79 0 -125.5 52.5t-46.5 160.5v287h153v-263q0 -114 76 -114q54 0 76 53q5 11 5 33v291h153z"/>
<glyph glyph-name="yacute" horiz-adv-x="523" unicode="ý" d="M296 702h141l-122 -152h-105zM6 489h169l73 -240q18 -67 24 -91h3q4 15 11.5 48t10.5 43l60 240h163l-114 -322q-50 -140 -89.5 -211t-82.5 -110q-65 -56 -147 -67l-32 129q31 5 66 26q38 20 63 61q8 11 8 22t-7 25z"/>
<glyph glyph-name="thorn" horiz-adv-x="598" unicode="þ" d="M213 284v-84q0 -28 14 -47q25 -47 79 -47q47 0 75.5 38t28.5 103q0 59 -27 96.5t-73 37.5q-62 0 -87 -56q-10 -20 -10 -41zM61 710h152v-281h2q48 71 146 71h5q81 0 139.5 -68.5t58.5 -182.5q0 -65 -20 -116.5t-52.5 -82t-70.5 -46t-77 -15.5q-86 0 -129 57h-2v-244h-152 v908z"/>
<glyph glyph-name="ydieresis" horiz-adv-x="523" unicode="ÿ" d="M379 557q-30 0 -50.5 20.5t-20.5 49.5q0 31 20 51t51 20q29 0 49 -20t20 -51q0 -29 -19.5 -49.5t-49.5 -20.5zM169 557q-30 0 -51 20.5t-21 49.5q0 31 20.5 51t51.5 20q29 0 48.5 -20t19.5 -51q0 -29 -19.5 -49.5t-48.5 -20.5zM6 489h169l73 -240q18 -67 24 -91h3 q4 15 11.5 48t10.5 43l60 240h163l-114 -322q-50 -140 -89.5 -211t-82.5 -110q-65 -56 -147 -67l-32 129q31 5 66 26q38 20 63 61q8 11 8 22t-7 25z"/>
<glyph glyph-name="Amacron" horiz-adv-x="656" unicode="Ā" d="M194 815h259v-81h-259v81zM245 287h149l-42 143q-9 30 -34 130h-2q-3 -13 -14 -60.5t-17 -69.5zM416 173h-193l-48 -173h-158l206 674h200l209 -674h-164z"/>
<glyph glyph-name="amacron" horiz-adv-x="528" unicode="ā" d="M140 665h250v-83h-250v83zM321 178v53h-6q-136 0 -136 -77q0 -28 16.5 -43t43.5 -15q28 0 49.5 16t29.5 40q3 12 3 26zM476 0h-137l-9 49h-3q-49 -60 -140 -60q-71 0 -114.5 44.5t-43.5 105.5q0 92 75.5 139.5t207.5 47.5h4v7q0 63 -89 63q-76 0 -135 -37l-28 98 q77 43 190 43q114 0 164.5 -58t50.5 -153v-170q0 -81 7 -119z"/>
<glyph glyph-name="Abreve" horiz-adv-x="656" unicode="Ă" d="M186 834h80q6 -46 59 -46t63 46h78q-2 -58 -37 -92t-103 -34q-70 0 -104.5 34t-35.5 92zM245 287h149l-42 143q-9 30 -34 130h-2q-3 -13 -14 -60.5t-17 -69.5zM416 173h-193l-48 -173h-158l206 674h200l209 -674h-164z"/>
<glyph glyph-name="abreve" horiz-adv-x="528" unicode="ă" d="M125 692h79q9 -61 59 -61q29 0 44 17.5t17 43.5h79q-1 -65 -37 -103.5t-103 -38.5t-102 39.5t-36 102.5zM321 178v53h-6q-136 0 -136 -77q0 -28 16.5 -43t43.5 -15q28 0 49.5 16t29.5 40q3 12 3 26zM476 0h-137l-9 49h-3q-49 -60 -140 -60q-71 0 -114.5 44.5t-43.5 105.5 q0 92 75.5 139.5t207.5 47.5h4v7q0 63 -89 63q-76 0 -135 -37l-28 98q77 43 190 43q114 0 164.5 -58t50.5 -153v-170q0 -81 7 -119z"/>
<glyph glyph-name="Aogonek" horiz-adv-x="656" unicode="Ą" d="M245 287h149l-42 143q-9 30 -34 130h-2q-3 -13 -14 -60.5t-17 -69.5zM423 674l209 -674h-80q-26 -42 -26 -68q0 -24 16 -40t39 -16q27 0 43 7l22 -70q-43 -32 -102 -32q-53 0 -83 27t-30 80q0 49 37 113l-52 172h-193l-48 -173h-158l206 674h200z"/>
<glyph glyph-name="aogonek" horiz-adv-x="528" unicode="ą" d="M321 178v53h-6q-136 0 -136 -77q0 -28 16.5 -43t43.5 -15q28 0 49.5 16t29.5 40q3 12 3 26zM92 359l-28 98q77 43 190 43q114 0 164.5 -58t50.5 -153v-170q0 -83 8 -119h-55q-21 -42 -21 -71q0 -24 13.5 -38t34.5 -14q22 0 44 10l22 -72q-46 -34 -106 -34 q-46 0 -74.5 26.5t-28.5 75.5q0 45 33 118l-9 48h-3q-49 -60 -140 -60q-71 0 -114.5 44.5t-43.5 105.5q0 92 75.5 139.5t207.5 47.5h4v7q0 63 -89 63q-76 0 -135 -37z"/>
<glyph glyph-name="Cacute" horiz-adv-x="595" unicode="Ć" d="M377 834h160l-122 -123h-122zM538 138l23 -119q-58 -29 -173 -29q-169 0 -261 93.5t-92 243.5q0 167 104.5 262.5t263.5 95.5q108 0 166 -30l-31 -121q-60 25 -128 25q-95 0 -155 -57.5t-60 -165.5q0 -102 57.5 -161t158.5 -59q72 0 127 22z"/>
<glyph glyph-name="cacute" horiz-adv-x="451" unicode="ć" d="M291 702h141l-122 -152h-105zM410 124l18 -112q-50 -22 -136 -22q-119 0 -189 67.5t-70 182.5q0 112 74 186t206 74q65 0 116 -19l-24 -113q-34 15 -85 15q-59 0 -95 -37.5t-36 -97.5q0 -66 37.5 -102.5t96.5 -36.5q49 0 87 15z"/>
<glyph glyph-name="Ccircumflex" horiz-adv-x="595" unicode="Ĉ" d="M301 836h115l101 -122h-107l-51 62h-2l-50 -62h-106zM538 138l23 -119q-58 -29 -173 -29q-169 0 -261 93.5t-92 243.5q0 167 104.5 262.5t263.5 95.5q108 0 166 -30l-31 -121q-60 25 -128 25q-95 0 -155 -57.5t-60 -165.5q0 -102 57.5 -161t158.5 -59q72 0 127 22z"/>
<glyph glyph-name="ccircumflex" horiz-adv-x="451" unicode="ĉ" d="M214 702h103l99 -152h-99l-51 87h-2l-50 -87h-99zM410 124l18 -112q-50 -22 -136 -22q-119 0 -189 67.5t-70 182.5q0 112 74 186t206 74q65 0 116 -19l-24 -113q-34 15 -85 15q-59 0 -95 -37.5t-36 -97.5q0 -66 37.5 -102.5t96.5 -36.5q49 0 87 15z"/>
<glyph glyph-name="Cdotaccent" horiz-adv-x="595" unicode="Ċ" d="M360 712q-30 0 -50 20.5t-20 48.5q0 29 20.5 49t49.5 20q28 0 47.5 -20t19.5 -49q0 -28 -19.5 -48.5t-47.5 -20.5zM538 138l23 -119q-58 -29 -173 -29q-169 0 -261 93.5t-92 243.5q0 167 104.5 262.5t263.5 95.5q108 0 166 -30l-31 -121q-60 25 -128 25q-95 0 -155 -57.5 t-60 -165.5q0 -102 57.5 -161t158.5 -59q72 0 127 22z"/>
<glyph glyph-name="cdotaccent" horiz-adv-x="451" unicode="ċ" d="M278 557q-30 0 -50.5 20.5t-20.5 49.5q0 31 20.5 51t50.5 20q29 0 48.5 -20t19.5 -51q0 -29 -19.5 -49.5t-48.5 -20.5zM410 124l18 -112q-50 -22 -136 -22q-119 0 -189 67.5t-70 182.5q0 112 74 186t206 74q65 0 116 -19l-24 -113q-34 15 -85 15q-59 0 -95 -37.5 t-36 -97.5q0 -66 37.5 -102.5t96.5 -36.5q49 0 87 15z"/>
<glyph glyph-name="Ccaron" horiz-adv-x="595" unicode="Č" d="M419 711h-115l-101 122h107l51 -62h2l50 62h106zM538 138l23 -119q-58 -29 -173 -29q-169 0 -261 93.5t-92 243.5q0 167 104.5 262.5t263.5 95.5q108 0 166 -30l-31 -121q-60 25 -128 25q-95 0 -155 -57.5t-60 -165.5q0 -102 57.5 -161t158.5 -59q72 0 127 22z"/>
<glyph glyph-name="ccaron" horiz-adv-x="451" unicode="č" d="M320 550h-103l-99 152h99l51 -87h2l50 87h100zM410 124l18 -112q-50 -22 -136 -22q-119 0 -189 67.5t-70 182.5q0 112 74 186t206 74q65 0 116 -19l-24 -113q-34 15 -85 15q-59 0 -95 -37.5t-36 -97.5q0 -66 37.5 -102.5t96.5 -36.5q49 0 87 15z"/>
<glyph glyph-name="Dcaron" horiz-adv-x="696" unicode="Ď" d="M379 711h-114l-101 122h107l50 -62h2l50 62h106zM219 556v-441q13 -3 53 -3h3q105 0 165 59.5t60 176.5q1 103 -55.5 158.5t-156.5 55.5q-43 0 -69 -6zM66 3v662q87 14 206 14q180 0 276 -72q114 -85 114 -254q0 -178 -112 -273q-105 -87 -311 -87q-97 0 -173 10z"/>
<glyph glyph-name="dcaron" horiz-adv-x="606" unicode="ď" d="M640 495l-65 41q28 50 28 101q0 33 -20 69l95 16q13 -9 22.5 -30.5t9.5 -44.5q0 -86 -70 -152zM383 218v64q0 11 -2 27q-7 32 -31 53.5t-58 21.5q-50 0 -77.5 -39.5t-27.5 -99.5q0 -62 28.5 -98.5t75.5 -36.5q33 0 57 20.5t31 52.5q4 15 4 35zM383 710h152v-564 q0 -80 4 -146h-135l-7 72h-2q-23 -40 -63.5 -61.5t-89.5 -21.5q-89 0 -149 70t-60 183q0 118 64 188t155 70q93 0 129 -55h2v265z"/>
<glyph glyph-name="Dcroat" horiz-adv-x="704" unicode="Đ" d="M360 403v-119h-134v-172q14 -2 53 -2q108 0 168.5 59.5t60.5 179.5q0 107 -56 161t-157 54q-41 0 -69 -6v-155h134zM3 284v119h71v264q93 15 206 15q182 0 276 -71q113 -84 113 -257q0 -182 -111 -276q-106 -88 -311 -88q-97 0 -173 10v284h-71z"/>
<glyph glyph-name="dcroat" horiz-adv-x="596" unicode="đ" d="M383 218v64q0 11 -2 27q-7 32 -31 53.5t-58 21.5q-50 0 -77.5 -39.5t-27.5 -99.5q0 -62 28.5 -98.5t75.5 -36.5q33 0 57 20.5t31 52.5q4 15 4 35zM615 540h-80v-394q0 -80 4 -146h-135l-7 72h-2q-23 -40 -63.5 -61.5t-89.5 -21.5q-89 0 -149 70t-60 183q0 118 64 188 t155 70q93 0 129 -55h2v95h-181v83h181v87h152v-87h80v-83z"/>
<glyph glyph-name="Emacron" horiz-adv-x="534" unicode="Ē" d="M142 815h259v-81h-259v81zM467 409v-124h-248v-160h277v-125h-430v674h416v-125h-263v-140h248z"/>
<glyph glyph-name="emacron" horiz-adv-x="528" unicode="ē" d="M142 665h250v-83h-250v83zM177 300h180q0 37 -19.5 68t-66.5 31q-43 0 -66.5 -30.5t-27.5 -68.5zM493 196h-315q4 -45 42.5 -69t95.5 -24q72 0 135 20l20 -103q-75 -30 -177 -30q-123 0 -192 66.5t-69 182.5q0 65 25 122.5t83 98t139 40.5q110 0 164 -71t54 -173 q0 -32 -5 -60z"/>
<glyph glyph-name="Ebreve" horiz-adv-x="534" unicode="Ĕ" d="M136 837h81q6 -46 59 -46q52 0 63 46h77q-1 -57 -36 -92t-104 -35q-70 0 -104.5 34.5t-35.5 92.5zM467 409v-124h-248v-160h277v-125h-430v674h416v-125h-263v-140h248z"/>
<glyph glyph-name="ebreve" horiz-adv-x="528" unicode="ĕ" d="M129 692h79q9 -61 59 -61q29 0 44 17.5t17 43.5h79q-1 -65 -37 -103.5t-103 -38.5t-102 39.5t-36 102.5zM177 300h180q0 37 -19.5 68t-66.5 31q-43 0 -66.5 -30.5t-27.5 -68.5zM493 196h-315q4 -45 42.5 -69t95.5 -24q72 0 135 20l20 -103q-75 -30 -177 -30 q-123 0 -192 66.5t-69 182.5q0 65 25 122.5t83 98t139 40.5q110 0 164 -71t54 -173q0 -32 -5 -60z"/>
<glyph glyph-name="Edotaccent" horiz-adv-x="534" unicode="Ė" d="M270 713q-30 0 -50 20.5t-20 47.5q0 29 20 49t50 20q28 0 47.5 -20t19.5 -49q0 -27 -20 -47.5t-47 -20.5zM467 409v-124h-248v-160h277v-125h-430v674h416v-125h-263v-140h248z"/>
<glyph glyph-name="edotaccent" horiz-adv-x="528" unicode="ė" d="M271 557q-30 0 -50.5 20.5t-20.5 49.5q0 31 20.5 51t50.5 20q29 0 48.5 -20t19.5 -51q0 -29 -19.5 -49.5t-48.5 -20.5zM177 300h180q0 37 -19.5 68t-66.5 31q-43 0 -66.5 -30.5t-27.5 -68.5zM493 196h-315q4 -45 42.5 -69t95.5 -24q72 0 135 20l20 -103q-75 -30 -177 -30 q-123 0 -192 66.5t-69 182.5q0 65 25 122.5t83 98t139 40.5q110 0 164 -71t54 -173q0 -32 -5 -60z"/>
<glyph glyph-name="Eogonek" horiz-adv-x="534" unicode="Ę" d="M482 -116l21 -72q-43 -31 -107 -31q-49 0 -76.5 24.5t-27.5 68.5q0 71 70 126h-296v674h416v-125h-263v-140h248v-124h-248v-160h277v-125h-25q-28 -19 -48.5 -44t-20.5 -48q0 -15 10.5 -23.5t27.5 -8.5q23 0 42 8z"/>
<glyph glyph-name="eogonek" horiz-adv-x="528" unicode="ę" d="M177 300h180q0 37 -19.5 68t-66.5 31q-43 0 -66.5 -30.5t-27.5 -68.5zM421 -114l23 -71q-45 -34 -107 -34q-48 0 -75 23t-27 63q0 65 67 122v1h-13q-120 0 -188 67t-68 182q0 65 25 122.5t83 98t139 40.5q110 0 164 -71t54 -173q0 -32 -5 -60h-315q4 -45 42.5 -69 t95.5 -24q72 0 135 20l20 -103q-7 -3 -43 -15q-30 -14 -58 -43t-28 -53q0 -16 10 -24.5t24 -8.5q24 0 45 10z"/>
<glyph glyph-name="Ecaron" horiz-adv-x="534" unicode="Ě" d="M328 710h-114l-101 123h107l50 -63h2l50 63h106zM467 409v-124h-248v-160h277v-125h-430v674h416v-125h-263v-140h248z"/>
<glyph glyph-name="ecaron" horiz-adv-x="528" unicode="ě" d="M319 550h-103l-99 152h99l50 -87h2l51 87h99zM177 300h180q0 37 -19.5 68t-66.5 31q-43 0 -66.5 -30.5t-27.5 -68.5zM493 196h-315q4 -45 42.5 -69t95.5 -24q72 0 135 20l20 -103q-75 -30 -177 -30q-123 0 -192 66.5t-69 182.5q0 65 25 122.5t83 98t139 40.5 q110 0 164 -71t54 -173q0 -32 -5 -60z"/>
<glyph glyph-name="Gcircumflex" horiz-adv-x="682" unicode="Ĝ" d="M316 836h114l101 -122h-107l-50 62h-2l-50 -62h-106zM629 386v-355q-112 -38 -225 -38q-180 0 -274 91q-95 89 -95 241q0 167 107 261.5t278 94.5q119 0 187 -33l-32 -122q-67 29 -157 29q-99 0 -161 -56t-62 -162q0 -103 58.5 -162t153.5 -59q55 0 75 10v141h-104v119 h251z"/>
<glyph glyph-name="gcircumflex" horiz-adv-x="585" unicode="ĝ" d="M243 703h102l99 -152h-99l-50 87h-2l-50 -87h-100zM372 218v72q0 16 -3 28q-8 31 -29.5 49t-52.5 18q-43 0 -71.5 -37t-28.5 -102q0 -57 26.5 -93.5t73.5 -36.5q29 0 50.5 17.5t29.5 44.5q5 14 5 40zM396 489h132q-4 -62 -4 -145v-273q0 -154 -74 -220q-70 -60 -199 -60 q-109 0 -176 38l30 115q64 -37 142 -37q57 0 92 32t35 97v32h-2q-45 -64 -132 -64q-91 0 -149 66.5t-58 172.5q0 115 64.5 186t157.5 71q91 0 134 -69h2z"/>
<glyph glyph-name="Gbreve" horiz-adv-x="682" unicode="Ğ" d="M237 841h81q6 -46 59 -46t63 46h77q-1 -58 -36 -92t-104 -34q-70 0 -104 34t-36 92zM629 386v-355q-112 -38 -225 -38q-180 0 -274 91q-95 89 -95 241q0 167 107 261.5t278 94.5q119 0 187 -33l-32 -122q-67 29 -157 29q-99 0 -161 -56t-62 -162q0 -103 58.5 -162 t153.5 -59q55 0 75 10v141h-104v119h251z"/>
<glyph glyph-name="gbreve" horiz-adv-x="585" unicode="ğ" d="M153 692h79q9 -61 59 -61q29 0 44 17.5t17 43.5h79q-1 -65 -37 -103.5t-103 -38.5t-102 39.5t-36 102.5zM372 218v72q0 16 -3 28q-8 31 -29.5 49t-52.5 18q-43 0 -71.5 -37t-28.5 -102q0 -57 26.5 -93.5t73.5 -36.5q29 0 50.5 17.5t29.5 44.5q5 14 5 40zM396 489h132 q-4 -62 -4 -145v-273q0 -154 -74 -220q-70 -60 -199 -60q-109 0 -176 38l30 115q64 -37 142 -37q57 0 92 32t35 97v32h-2q-45 -64 -132 -64q-91 0 -149 66.5t-58 172.5q0 115 64.5 186t157.5 71q91 0 134 -69h2z"/>
<glyph glyph-name="Gdotaccent" horiz-adv-x="682" unicode="Ġ" d="M376 712q-30 0 -50 20.5t-20 48.5q0 29 20 49t50 20q28 0 47.5 -20t19.5 -49q0 -28 -19.5 -48.5t-47.5 -20.5zM629 386v-355q-112 -38 -225 -38q-180 0 -274 91q-95 89 -95 241q0 167 107 261.5t278 94.5q119 0 187 -33l-32 -122q-67 29 -157 29q-99 0 -161 -56t-62 -162 q0 -103 58.5 -162t153.5 -59q55 0 75 10v141h-104v119h251z"/>
<glyph glyph-name="gdotaccent" horiz-adv-x="585" unicode="ġ" d="M291 558q-30 0 -50.5 20.5t-20.5 49.5q0 31 20.5 51t50.5 20q29 0 48.5 -20t19.5 -51q0 -29 -19.5 -49.5t-48.5 -20.5zM372 218v72q0 16 -3 28q-8 31 -29.5 49t-52.5 18q-43 0 -71.5 -37t-28.5 -102q0 -57 26.5 -93.5t73.5 -36.5q29 0 50.5 17.5t29.5 44.5q5 14 5 40z M396 489h132q-4 -62 -4 -145v-273q0 -154 -74 -220q-70 -60 -199 -60q-109 0 -176 38l30 115q64 -37 142 -37q57 0 92 32t35 97v32h-2q-45 -64 -132 -64q-91 0 -149 66.5t-58 172.5q0 115 64.5 186t157.5 71q91 0 134 -69h2z"/>
<glyph glyph-name="Gcommaaccent" horiz-adv-x="682" unicode="Ģ" d="M287 -241l-22 64q27 6 46 21.5t19 39.5q0 27 -29 60l106 17q39 -29 39 -79q0 -59 -44.5 -90t-114.5 -33zM629 386v-355q-112 -38 -225 -38q-180 0 -274 91q-95 89 -95 241q0 167 107 261.5t278 94.5q119 0 187 -33l-32 -122q-67 29 -157 29q-99 0 -161 -56t-62 -162 q0 -103 58.5 -162t153.5 -59q55 0 75 10v141h-104v119h251z"/>
<glyph glyph-name="gcommaaccent" horiz-adv-x="585" unicode="ģ" d="M372 218v72q0 16 -3 28q-8 31 -29.5 49t-52.5 18q-43 0 -71.5 -37t-28.5 -102q0 -57 26.5 -93.5t73.5 -36.5q29 0 50.5 17.5t29.5 44.5q5 14 5 40zM396 489h132q-4 -62 -4 -145v-273q0 -154 -74 -220q-70 -60 -199 -60q-109 0 -176 38l30 115q64 -37 142 -37q57 0 92 32 t35 97v32h-2q-45 -64 -132 -64q-91 0 -149 66.5t-58 172.5q0 115 64.5 186t157.5 71q91 0 134 -69h2zM366 724l22 -54q-72 -11 -72 -60q0 -25 30 -55l-100 -16q-39 27 -39 72q0 55 44 83t115 30z"/>
<glyph glyph-name="Hcircumflex" horiz-adv-x="689" unicode="Ĥ" d="M287 833h114l102 -123h-107l-51 62h-2l-50 -62h-106zM66 674h153v-259h251v259h152v-674h-152v282h-251v-282h-153v674z"/>
<glyph glyph-name="hcircumflex" horiz-adv-x="586" unicode="ĥ" d="M85 857h114l101 -123h-107l-50 62h-2l-50 -62h-106zM61 0v710h152v-279h2q23 30 60 50q35 19 79 19q77 0 124 -54t47 -160v-286h-152v269q0 108 -79 108q-54 0 -76 -53q-5 -13 -5 -34v-290h-152z"/>
<glyph glyph-name="Hbar" horiz-adv-x="701" unicode="Ħ" d="M476 389v82h-251v-82h251zM693 471h-65v-471h-152v256h-251v-256h-153v471h-64v90h64v113h153v-113h251v113h152v-113h65v-90z"/>
<glyph glyph-name="hbar" horiz-adv-x="586" unicode="ħ" d="M525 0h-152v269q0 108 -79 108q-54 0 -76 -53q-5 -13 -5 -34v-290h-152v540h-79v83h79v87h152v-87h183v-83h-183v-109h2q25 32 60 50q36 19 79 19q77 0 124 -54t47 -160v-286z"/>
<glyph glyph-name="Itilde" horiz-adv-x="285" unicode="Ĩ" d="M73 715h-70v11q0 56 21 86t56 30q30 0 63 -20q32 -19 45 -19q12 0 18 9.5t9 33.5h68v-9q0 -116 -79 -116q-31 0 -65 19q-34 18 -42 18q-21 0 -24 -43zM66 674h153v-674h-153v674z"/>
<glyph glyph-name="itilde" horiz-adv-x="274" unicode="ĩ" d="M67 558h-72v10q0 57 22 89t60 32q25 0 65 -20q32 -20 42 -20q12 0 18 9.5t8 35.5h70v-12q0 -117 -82 -117q-27 0 -69 22q-29 16 -38 16q-23 0 -24 -45zM213 0h-152v489h152v-489z"/>
<glyph glyph-name="Imacron" horiz-adv-x="285" unicode="Ī" d="M13 815h259v-81h-259v81zM66 674h153v-674h-153v674z"/>
<glyph glyph-name="imacron" horiz-adv-x="274" unicode="ī" d="M12 665h250v-83h-250v83zM213 0h-152v489h152v-489z"/>
<glyph glyph-name="Ibreve" horiz-adv-x="285" unicode="Ĭ" d="M2 839h81q6 -46 59 -46q52 0 63 46h77q-1 -57 -36 -91.5t-104 -34.5q-70 0 -104 34t-36 92zM66 674h153v-674h-153v674z"/>
<glyph glyph-name="ibreve" horiz-adv-x="274" unicode="ĭ" d="M-1 692h79q9 -61 59 -61q29 0 44 17.5t17 43.5h79q-1 -65 -37 -103.5t-103 -38.5t-102 39.5t-36 102.5zM213 0h-152v489h152v-489z"/>
<glyph glyph-name="Iogonek" horiz-adv-x="285" unicode="Į" d="M219 674v-674h-69q-22 -40 -22 -69q0 -25 15.5 -40.5t39.5 -15.5q27 0 43 7l22 -70q-41 -32 -102 -32q-53 0 -83 27t-30 79q0 44 33 114v674h153z"/>
<glyph glyph-name="iogonek" horiz-adv-x="274" unicode="į" d="M213 489v-489h-68q-22 -40 -22 -69q0 -25 15.5 -40.5t38.5 -15.5q27 0 44 7l21 -70q-39 -32 -102 -32q-53 0 -82.5 27t-29.5 79q0 44 33 114v489h152zM137 551q-38 0 -61 22.5t-22 56.5q-1 34 22 56t61 22t60.5 -22.5t22.5 -57.5q0 -33 -23 -55t-60 -22z"/>
<glyph glyph-name="Idotaccent" horiz-adv-x="285" unicode="İ" d="M144 713q-30 0 -50 20.5t-20 47.5q0 29 20.5 49t49.5 20q28 0 47.5 -20t19.5 -49q0 -27 -19.5 -47.5t-47.5 -20.5zM66 674h153v-674h-153v674z"/>
<glyph glyph-name="dotlessi" horiz-adv-x="274" unicode="ı" d="M213 0h-152v489h152v-489z"/>
<glyph glyph-name="IJ" horiz-adv-x="696" unicode="Ĳ" d="M483 250v424h152v-426q0 -138 -61.5 -198.5t-178.5 -60.5q-63 0 -111 16l17 123q36 -12 78 -12q52 0 78 29.5t26 104.5zM66 674h153v-674h-153v674z"/>
<glyph glyph-name="ij" horiz-adv-x="565" unicode="ĳ" d="M431 702q36 0 57.5 -21.5t22.5 -55.5q0 -32 -22.5 -54t-59.5 -22q-35 0 -57 22t-22 54q0 33 22.5 55t58.5 22zM249 -209l-14 119q63 5 89 32q31 32 31 159v388h152v-424q0 -151 -69 -214q-64 -60 -189 -60zM137 702q36 0 58 -21.5t23 -55.5q0 -32 -22.5 -54t-59.5 -22 q-35 0 -57.5 22t-21.5 54q-1 33 21.5 55t58.5 22zM213 0h-152v489h152v-489z"/>
<glyph glyph-name="Jcircumflex" horiz-adv-x="411" unicode="Ĵ" d="M215 833h114l101 -123h-107l-50 62h-2l-50 -62h-106zM198 250v424h152v-426q0 -138 -61.5 -198.5t-178.5 -60.5q-63 0 -111 16l17 123q36 -12 78 -12q52 0 78 29.5t26 104.5z"/>
<glyph glyph-name="jcircumflex" horiz-adv-x="291" unicode="ĵ" d="M98 700h102l99 -152h-99l-50 87h-2l-50 -87h-100zM-25 -209l-15 119q64 5 90 32q30 31 30 159v388h153v-424q0 -150 -69 -214q-64 -60 -189 -60z"/>
<glyph glyph-name="Kcommaaccent" horiz-adv-x="614" unicode="Ķ" d="M240 -241l-22 64q27 6 46.5 22t19.5 39q0 25 -30 60l106 18q39 -29 39 -79q0 -59 -44.5 -90.5t-114.5 -33.5zM66 0v674h151v-298h3q3 5 46 74l153 224h187l-223 -287l235 -387h-178l-165 291l-58 -71v-220h-151z"/>
<glyph glyph-name="kcommaaccent" horiz-adv-x="542" unicode="ķ" d="M202 -242l-22 65q27 5 46.5 21t19.5 40q0 25 -30 60l106 17q39 -29 39 -79q0 -59 -44.5 -90.5t-114.5 -33.5zM213 710v-427h2q15 28 35 59l99 147h183l-175 -198l200 -291h-187l-118 201l-39 -48v-153h-152v710h152z"/>
<glyph glyph-name="kgreenlandic" horiz-adv-x="542" unicode="ĸ" d="M213 489v-206h2q15 28 35 59l99 147h183l-175 -198l200 -291h-187l-118 201l-39 -48v-153h-152v489h152z"/>
<glyph glyph-name="Lacute" horiz-adv-x="511" unicode="Ĺ" d="M165 833h160l-122 -123h-122zM66 0v674h153v-546h268v-128h-421z"/>
<glyph glyph-name="lacute" horiz-adv-x="275" unicode="ĺ" d="M145 863h160l-123 -123h-122zM61 0v710h152v-710h-152z"/>
<glyph glyph-name="Lcommaaccent" horiz-adv-x="511" unicode="Ļ" d="M189 -241l-22 64q27 6 46 21.5t19 39.5q0 27 -29 60l106 17q39 -29 39 -79q0 -59 -44.5 -90t-114.5 -33zM66 0v674h153v-546h268v-128h-421z"/>
<glyph glyph-name="lcommaaccent" horiz-adv-x="275" unicode="ļ" d="M58 -242l-22 65q27 5 46.5 21t19.5 40q0 25 -30 60l106 17q39 -29 39 -79q0 -59 -44.5 -90.5t-114.5 -33.5zM61 0v710h152v-710h-152z"/>
<glyph glyph-name="Lcaron" horiz-adv-x="511" unicode="Ľ" d="M294 485l-23 64q27 6 46.5 22t19.5 39q0 28 -30 60l106 17q39 -27 39 -79q0 -59 -44 -90t-114 -33zM66 0v674h153v-546h268v-128h-421z"/>
<glyph glyph-name="lcaron" horiz-adv-x="285" unicode="ľ" d="M61 0v710h152v-710h-152zM321 495l-71 41q28 56 28 101q0 35 -21 69l96 16q32 -24 32 -80q0 -79 -64 -147z"/>
<glyph glyph-name="Ldot" horiz-adv-x="511" unicode="Ŀ" d="M384 310q-30 0 -50 20.5t-20 48.5q0 29 20 48.5t50 19.5q28 0 47.5 -19.5t19.5 -48.5q0 -28 -19.5 -48.5t-47.5 -20.5zM66 0v674h153v-546h268v-128h-421z"/>
<glyph glyph-name="ldot" horiz-adv-x="354" unicode="ŀ" d="M61 0v710h152v-710h-152zM316 329q-28 0 -46.5 20t-18.5 49t18.5 48.5t46.5 19.5q26 0 44 -19.5t18 -48.5t-17.5 -49t-44.5 -20z"/>
<glyph glyph-name="Lslash" horiz-adv-x="517" unicode="Ł" d="M493 0h-420v235l-76 -51v105l76 52v333h152v-232l126 85v-106l-126 -85v-208h268v-128z"/>
<glyph glyph-name="lslash" horiz-adv-x="287" unicode="ł" d="M220 0h-153v229l-65 -51v108l65 52v372h153v-259l71 57v-109l-71 -57v-342z"/>
<glyph glyph-name="Nacute" horiz-adv-x="690" unicode="Ń" d="M352 833h160l-122 -123h-122zM206 0h-140v674h178l140 -247q63 -112 110 -231h3q-13 116 -13 281v197h140v-674h-160l-144 260q-71 128 -117 238l-3 -1q6 -133 6 -294v-203z"/>
<glyph glyph-name="nacute" horiz-adv-x="586" unicode="ń" d="M304 702h141l-122 -152h-105zM61 0v333q0 70 -4 156h132l7 -67h3q19 30 58 54t93 24q79 0 127 -53t48 -157v-290h-152v271q0 106 -77 106q-29 0 -48.5 -16.5t-28.5 -40.5q-6 -13 -6 -38v-282h-152z"/>
<glyph glyph-name="Ncommaaccent" horiz-adv-x="690" unicode="Ņ" d="M276 -239l-22 64q28 6 47 21.5t19 39.5q0 25 -30 60l106 17q39 -29 39 -79q0 -59 -44.5 -90t-114.5 -33zM206 0h-140v674h178l140 -247q63 -112 110 -231h3q-13 116 -13 281v197h140v-674h-160l-144 260q-71 128 -117 238l-3 -1q6 -133 6 -294v-203z"/>
<glyph glyph-name="ncommaaccent" horiz-adv-x="586" unicode="ņ" d="M224 -242l-23 65q28 6 47 21.5t19 39.5q0 27 -29 60l106 18q39 -29 39 -80q0 -59 -44.5 -90t-114.5 -34zM61 0v333q0 70 -4 156h132l7 -67h3q19 30 58 54t93 24q79 0 127 -53t48 -157v-290h-152v271q0 106 -77 106q-29 0 -48.5 -16.5t-28.5 -40.5q-6 -13 -6 -38v-282 h-152z"/>
<glyph glyph-name="Ncaron" horiz-adv-x="690" unicode="Ň" d="M406 708h-114l-101 123h107l50 -62h2l50 62h106zM206 0h-140v674h178l140 -247q63 -112 110 -231h3q-13 116 -13 281v197h140v-674h-160l-144 260q-71 128 -117 238l-3 -1q6 -133 6 -294v-203z"/>
<glyph glyph-name="ncaron" horiz-adv-x="586" unicode="ň" d="M344 550h-103l-99 152h99l50 -87h2l51 87h99zM61 0v333q0 70 -4 156h132l7 -67h3q19 30 58 54t93 24q79 0 127 -53t48 -157v-290h-152v271q0 106 -77 106q-29 0 -48.5 -16.5t-28.5 -40.5q-6 -13 -6 -38v-282h-152z"/>
<glyph glyph-name="napostrophe" horiz-adv-x="586" unicode="ŉ" d="M61 0v333q0 70 -4 156h132l7 -67h3q19 30 58 54t93 24q79 0 127 -53t48 -157v-290h-152v271q0 106 -77 106q-29 0 -48.5 -16.5t-28.5 -40.5q-6 -13 -6 -38v-282h-152zM75 524l-67 41q31 51 31 87q0 29 -20 55l97 25q12 -8 22 -28.5t10 -47.5q0 -74 -73 -132z"/>
<glyph glyph-name="Eng" horiz-adv-x="690" unicode="Ŋ" d="M206 0h-140v674h178l140 -247q63 -112 110 -231h3q-13 116 -13 281v197h140v-626q0 -237 -228 -264l-33 116q98 24 112 85l-155 275q-71 128 -117 238l-3 -1q6 -133 6 -294v-203z"/>
<glyph glyph-name="eng" horiz-adv-x="586" unicode="ŋ" d="M61 0v333q0 70 -4 156h132l7 -67h3q19 30 58 54t93 24q79 0 127 -53t48 -157v-231q0 -231 -207 -254l-29 118q44 8 64 34t20 78v236q0 106 -77 106q-29 0 -48.5 -16.5t-28.5 -40.5q-6 -13 -6 -38v-282h-152z"/>
<glyph glyph-name="Omacron" horiz-adv-x="717" unicode="Ō" d="M230 817h259v-81h-259v81zM359 564q-76 0 -119.5 -64t-43.5 -165q0 -100 44.5 -162.5t119.5 -62.5t118.5 64t43.5 165q0 95 -43.5 160t-119.5 65zM363 685q150 0 235 -97.5t85 -243.5q0 -164 -91 -259.5t-240 -95.5q-146 0 -231.5 97.5t-85.5 245.5q0 154 90.5 253.5 t237.5 99.5z"/>
<glyph glyph-name="omacron" horiz-adv-x="577" unicode="ō" d="M163 665h251v-83h-251v83zM290 392q-51 0 -75.5 -43t-24.5 -104q0 -65 26.5 -106t73.5 -41q44 0 70.5 40.5t26.5 106.5q0 61 -24.5 104t-72.5 43zM294 500q112 0 181 -69.5t69 -180.5q0 -126 -75.5 -193.5t-182.5 -67.5q-110 0 -181.5 68t-71.5 184q0 118 71.5 188.5 t189.5 70.5z"/>
<glyph glyph-name="Obreve" horiz-adv-x="717" unicode="Ŏ" d="M218 843h81q6 -46 59 -46t63 46h78q-2 -57 -37 -91.5t-104 -34.5q-70 0 -104 34t-36 92zM359 564q-76 0 -119.5 -64t-43.5 -165q0 -100 44.5 -162.5t119.5 -62.5t118.5 64t43.5 165q0 95 -43.5 160t-119.5 65zM363 685q150 0 235 -97.5t85 -243.5q0 -164 -91 -259.5 t-240 -95.5q-146 0 -231.5 97.5t-85.5 245.5q0 154 90.5 253.5t237.5 99.5z"/>
<glyph glyph-name="obreve" horiz-adv-x="577" unicode="ŏ" d="M149 692h79q9 -61 59 -61q29 0 44 17.5t17 43.5h79q-1 -65 -37 -103.5t-103 -38.5t-102 39.5t-36 102.5zM290 392q-51 0 -75.5 -43t-24.5 -104q0 -65 26.5 -106t73.5 -41q44 0 70.5 40.5t26.5 106.5q0 61 -24.5 104t-72.5 43zM294 500q112 0 181 -69.5t69 -180.5 q0 -126 -75.5 -193.5t-182.5 -67.5q-110 0 -181.5 68t-71.5 184q0 118 71.5 188.5t189.5 70.5z"/>
<glyph glyph-name="Ohungarumlaut" horiz-adv-x="717" unicode="Ő" d="M464 835h140l-101 -116h-105zM282 835h141l-101 -116h-105zM359 564q-76 0 -119.5 -64t-43.5 -165q0 -100 44.5 -162.5t119.5 -62.5t118.5 64t43.5 165q0 95 -43.5 160t-119.5 65zM363 685q150 0 235 -97.5t85 -243.5q0 -164 -91 -259.5t-240 -95.5q-146 0 -231.5 97.5 t-85.5 245.5q0 154 90.5 253.5t237.5 99.5z"/>
<glyph glyph-name="ohungarumlaut" horiz-adv-x="577" unicode="ő" d="M373 701h120l-98 -149h-85zM200 701h120l-98 -149h-86zM290 392q-51 0 -75.5 -43t-24.5 -104q0 -65 26.5 -106t73.5 -41q44 0 70.5 40.5t26.5 106.5q0 61 -24.5 104t-72.5 43zM294 500q112 0 181 -69.5t69 -180.5q0 -126 -75.5 -193.5t-182.5 -67.5q-110 0 -181.5 68 t-71.5 184q0 118 71.5 188.5t189.5 70.5z"/>
<glyph glyph-name="OE" horiz-adv-x="936" unicode="Œ" d="M468 122v428q-30 14 -79 14q-83 0 -138 -61t-55 -169q0 -101 54 -162.5t149 -61.5q42 0 69 12zM897 125v-125h-380q-16 0 -62 -6q-58 -5 -82 -5q-111 0 -189.5 48.5t-113.5 124t-35 169.5q0 161 93.5 257.5t246.5 96.5q29 0 91 -5q50 -6 63 -6h354v-125h-263v-140h248 v-124h-248v-160h277z"/>
<glyph glyph-name="oe" horiz-adv-x="868" unicode="œ" d="M524 301h174q1 37 -17.5 67.5t-67.5 30.5q-42 0 -65 -31.5t-24 -66.5zM290 392q-53 0 -76.5 -43.5t-23.5 -104.5q0 -64 26 -105t72 -41t71 39.5t25 107.5q0 62 -24 104.5t-70 42.5zM835 199h-309q3 -44 40.5 -70.5t92.5 -26.5q67 0 136 26l21 -102q-67 -37 -178 -37 q-121 0 -180 86h-3q-60 -86 -183 -86q-102 0 -170.5 69t-68.5 186q0 115 69.5 185.5t179.5 70.5q54 0 100.5 -22.5t71.5 -64.5h2q58 87 170 87q74 0 124 -37t69.5 -90t19.5 -117q0 -39 -4 -57z"/>
<glyph glyph-name="Racute" horiz-adv-x="593" unicode="Ŕ" d="M296 834h160l-123 -123h-122zM217 561v-186h60q57 0 89 26t32 71q0 92 -112 94q-42 0 -69 -5zM66 0v665q86 14 203 14q151 0 218 -53q62 -50 62 -141q0 -60 -35.5 -104t-83.5 -62v-3q62 -25 90 -126q49 -179 55 -190h-156q-16 27 -47 157q-13 62 -37 84.5t-72 23.5h-46 v-265h-151z"/>
<glyph glyph-name="racute" horiz-adv-x="380" unicode="ŕ" d="M212 702h140l-122 -152h-104zM61 0v328q0 77 -4 161h131l5 -90h4q17 50 55 75.5t77 25.5q21 0 32 -2v-143q-22 4 -41 4q-42 0 -69 -20.5t-35 -56.5q-3 -15 -3 -34v-248h-152z"/>
<glyph glyph-name="Rcommaaccent" horiz-adv-x="593" unicode="Ŗ" d="M227 -239l-22 64q27 6 46 22t19 39q0 27 -29 60l106 17q39 -27 39 -79q0 -59 -44.5 -90t-114.5 -33zM217 561v-186h60q57 0 89 26t32 71q0 92 -112 94q-42 0 -69 -5zM66 0v665q86 14 203 14q151 0 218 -53q62 -50 62 -141q0 -60 -35.5 -104t-83.5 -62v-3q62 -25 90 -126 q49 -179 55 -190h-156q-16 27 -47 157q-13 62 -37 84.5t-72 23.5h-46v-265h-151z"/>
<glyph glyph-name="rcommaaccent" horiz-adv-x="380" unicode="ŗ" d="M66 -242l-23 65q27 5 46.5 21t19.5 40q0 27 -29 60l105 17q39 -29 39 -79q0 -59 -44 -90.5t-114 -33.5zM61 0v328q0 77 -4 161h131l5 -90h4q17 50 55 75.5t77 25.5q21 0 32 -2v-143q-22 4 -41 4q-42 0 -69 -20.5t-35 -56.5q-3 -15 -3 -34v-248h-152z"/>
<glyph glyph-name="Rcaron" horiz-adv-x="593" unicode="Ř" d="M348 711h-114l-101 122h107l50 -62h2l50 62h106zM217 561v-186h60q57 0 89 26t32 71q0 92 -112 94q-42 0 -69 -5zM66 0v665q86 14 203 14q151 0 218 -53q62 -50 62 -141q0 -60 -35.5 -104t-83.5 -62v-3q62 -25 90 -126q49 -179 55 -190h-156q-16 27 -47 157 q-13 62 -37 84.5t-72 23.5h-46v-265h-151z"/>
<glyph glyph-name="rcaron" horiz-adv-x="380" unicode="ř" d="M252 550h-103l-99 152h99l50 -87h2l51 87h99zM61 0v328q0 77 -4 161h131l5 -90h4q17 50 55 75.5t77 25.5q21 0 32 -2v-143q-22 4 -41 4q-42 0 -69 -20.5t-35 -56.5q-3 -15 -3 -34v-248h-152z"/>
<glyph glyph-name="Sacute" horiz-adv-x="540" unicode="Ś" d="M293 834h160l-123 -123h-122zM40 31l31 126q82 -42 169 -42q52 0 79.5 19.5t27.5 53.5q0 31 -25.5 52t-87.5 43q-185 64 -185 199q0 88 69 145.5t186 57.5q96 0 172 -34l-34 -123q-66 32 -141 32q-47 0 -72.5 -18.5t-25.5 -46.5q0 -30 27 -49t98 -46q90 -33 132.5 -81.5 t42.5 -119.5q0 -90 -70 -149.5t-202 -59.5q-55 0 -107.5 12t-83.5 29z"/>
<glyph glyph-name="sacute" horiz-adv-x="434" unicode="ś" d="M243 702h141l-122 -152h-105zM33 24l27 109q23 -14 61 -25.5t70 -11.5q65 0 65 41q0 19 -14.5 30.5t-57.5 25.5q-139 47 -139 145q0 71 54.5 116.5t144.5 45.5q82 0 138 -28l-27 -105q-51 28 -106 28q-58 0 -58 -40q0 -17 16.5 -28.5t62.5 -27.5q69 -24 100.5 -60 t32.5 -91q0 -71 -55 -114.5t-157 -43.5q-95 0 -158 34z"/>
<glyph glyph-name="Scircumflex" horiz-adv-x="540" unicode="Ŝ" d="M215 834h114l101 -123h-107l-50 62h-2l-50 -62h-106zM40 31l31 126q82 -42 169 -42q52 0 79.5 19.5t27.5 53.5q0 31 -25.5 52t-87.5 43q-185 64 -185 199q0 88 69 145.5t186 57.5q96 0 172 -34l-34 -123q-66 32 -141 32q-47 0 -72.5 -18.5t-25.5 -46.5q0 -30 27 -49 t98 -46q90 -33 132.5 -81.5t42.5 -119.5q0 -90 -70 -149.5t-202 -59.5q-55 0 -107.5 12t-83.5 29z"/>
<glyph glyph-name="scircumflex" horiz-adv-x="434" unicode="ŝ" d="M169 702h102l100 -152h-99l-51 87h-2l-50 -87h-99zM33 24l27 109q23 -14 61 -25.5t70 -11.5q65 0 65 41q0 19 -14.5 30.5t-57.5 25.5q-139 47 -139 145q0 71 54.5 116.5t144.5 45.5q82 0 138 -28l-27 -105q-51 28 -106 28q-58 0 -58 -40q0 -17 16.5 -28.5t62.5 -27.5 q69 -24 100.5 -60t32.5 -91q0 -71 -55 -114.5t-157 -43.5q-95 0 -158 34z"/>
<glyph glyph-name="Scedilla" horiz-adv-x="540" unicode="Ş" d="M40 31l31 126q82 -42 169 -42q52 0 79.5 19.5t27.5 53.5q0 31 -25.5 52t-87.5 43q-185 64 -185 199q0 88 69 145.5t186 57.5q96 0 172 -34l-34 -123q-66 32 -141 32q-47 0 -72.5 -18.5t-25.5 -46.5q0 -30 27 -49t98 -46q90 -33 132.5 -81.5t42.5 -119.5q0 -75 -49 -130 t-144 -72l-22 -41q30 -4 51 -23.5t21 -47.5q0 -45 -34.5 -67t-86.5 -22q-48 0 -81 20l20 57q29 -17 55 -17q35 0 35 26q0 30 -78 36l37 72h-3q-44 0 -97.5 11.5t-86.5 29.5z"/>
<glyph glyph-name="scedilla" horiz-adv-x="434" unicode="ş" d="M33 24l27 109q23 -14 61 -25.5t70 -11.5q65 0 65 41q0 19 -14.5 30.5t-57.5 25.5q-139 47 -139 147q1 70 55.5 115t143.5 45q82 0 138 -28l-27 -105q-51 28 -106 28q-58 0 -58 -40q0 -17 16.5 -28.5t62.5 -27.5q69 -24 101 -60.5t32 -90.5q0 -58 -38 -99t-110 -54 l-22 -39q30 -3 51 -23t21 -49q0 -46 -34 -67t-87 -21q-48 0 -81 20l20 57q31 -17 55 -17q35 0 35 25q0 31 -77 37l36 72h-2q-72 0 -137 34z"/>
<glyph glyph-name="Scaron" horiz-adv-x="540" unicode="Š" d="M337 711h-115l-101 122h107l51 -62h2l50 62h106zM40 31l31 126q82 -42 169 -42q52 0 79.5 19.5t27.5 53.5q0 31 -25.5 52t-87.5 43q-185 64 -185 199q0 88 69 145.5t186 57.5q96 0 172 -34l-34 -123q-66 32 -141 32q-47 0 -72.5 -18.5t-25.5 -46.5q0 -30 27 -49t98 -46 q90 -33 132.5 -81.5t42.5 -119.5q0 -90 -70 -149.5t-202 -59.5q-55 0 -107.5 12t-83.5 29z"/>
<glyph glyph-name="scaron" horiz-adv-x="434" unicode="š" d="M271 550h-103l-99 152h99l51 -87h2l50 87h100zM33 24l27 109q23 -14 61 -25.5t70 -11.5q65 0 65 41q0 19 -14.5 30.5t-57.5 25.5q-139 47 -139 145q0 71 54.5 116.5t144.5 45.5q82 0 138 -28l-27 -105q-51 28 -106 28q-58 0 -58 -40q0 -17 16.5 -28.5t62.5 -27.5 q69 -24 100.5 -60t32.5 -91q0 -71 -55 -114.5t-157 -43.5q-95 0 -158 34z"/>
<glyph glyph-name="uni0162" horiz-adv-x="548" unicode="Ţ" d="M349 0h-34l-21 -44q31 -7 52 -28t21 -54q0 -48 -35.5 -70t-84.5 -22q-51 0 -85 19l19 62q26 -14 57 -14q35 0 35 24q0 29 -78 38l39 89h-38v546h-181v128h518v-128h-184v-546z"/>
<glyph glyph-name="uni0163" horiz-adv-x="367" unicode="ţ" d="M340 377h-109v-177q0 -46 13 -66t47 -20q23 0 45 4l1 -115q-29 -11 -88 -13l-20 -35q30 -3 51 -23t21 -49q0 -46 -34 -67t-87 -21q-48 0 -81 20l20 57q31 -17 55 -17q35 0 35 25q0 32 -77 37l41 84q-30 11 -49 31q-42 44 -42 145v200h-65v112h65v106l149 34v-140h109 v-112z"/>
<glyph glyph-name="Tcaron" horiz-adv-x="548" unicode="Ť" d="M331 710h-115l-101 123h107l51 -63h2l50 63h106zM196 0v546h-181v128h518v-128h-184v-546h-153z"/>
<glyph glyph-name="tcaron" horiz-adv-x="371" unicode="ť" d="M82 595l149 34v-140h109v-112h-109v-177q0 -46 13 -66t47 -20q23 0 45 4l1 -115q-33 -13 -99 -13q-74 0 -114 42q-42 44 -42 145v200h-65v112h65v106zM328 538l-37 55q15 9 24.5 28t9.5 40q0 27 -19 54l98 16q31 -25 31 -69q0 -51 -34.5 -83.5t-72.5 -40.5z"/>
<glyph glyph-name="Tbar" horiz-adv-x="548" unicode="Ŧ" d="M533 546h-184v-166h114v-90h-114v-290h-153v290h-115v90h115v166h-181v128h518v-128z"/>
<glyph glyph-name="tbar" horiz-adv-x="367" unicode="ŧ" d="M340 377h-109v-70h83v-80h-83v-27q0 -46 13 -66t47 -20q23 0 45 4l1 -115q-33 -13 -99 -13q-74 0 -114 42q-42 44 -42 145v50h-63v80h63v70h-65v112h65v106l149 34v-140h109v-112z"/>
<glyph glyph-name="Utilde" horiz-adv-x="682" unicode="Ũ" d="M271 715h-70v11q0 56 21 86t56 30q29 0 64 -20q30 -19 44 -19q12 0 18 9.5t9 33.5h68v-12q0 -113 -79 -113q-31 0 -65 19q-34 18 -42 18q-21 0 -24 -43zM65 674h153v-388q0 -86 31.5 -130.5t90.5 -44.5q124 0 124 175v388h152v-378q0 -153 -73 -230t-208 -77 q-270 0 -270 309v376z"/>
<glyph glyph-name="utilde" horiz-adv-x="583" unicode="ũ" d="M222 558h-72v10q0 57 22 89t60 32q25 0 65 -20q32 -20 42 -20q12 0 18 9.5t8 35.5h70v-12q0 -117 -82 -117q-27 0 -69 22q-29 16 -38 16q-22 0 -24 -45zM522 489v-332q0 -75 4 -157h-132l-7 69h-3q-51 -80 -153 -80q-79 0 -125.5 52.5t-46.5 160.5v287h153v-263 q0 -114 76 -114q54 0 76 53q5 11 5 33v291h153z"/>
<glyph glyph-name="Umacron" horiz-adv-x="682" unicode="Ū" d="M212 815h259v-81h-259v81zM65 674h153v-388q0 -86 31.5 -130.5t90.5 -44.5q124 0 124 175v388h152v-378q0 -153 -73 -230t-208 -77q-270 0 -270 309v376z"/>
<glyph glyph-name="umacron" horiz-adv-x="583" unicode="ū" d="M167 665h251v-83h-251v83zM522 489v-332q0 -75 4 -157h-132l-7 69h-3q-51 -80 -153 -80q-79 0 -125.5 52.5t-46.5 160.5v287h153v-263q0 -114 76 -114q54 0 76 53q5 11 5 33v291h153z"/>
<glyph glyph-name="Ubreve" horiz-adv-x="682" unicode="Ŭ" d="M200 836h81q6 -46 59 -46t63 46h78q-2 -58 -37 -92t-104 -34q-70 0 -104 34t-36 92zM65 674h153v-388q0 -86 31.5 -130.5t90.5 -44.5q124 0 124 175v388h152v-378q0 -153 -73 -230t-208 -77q-270 0 -270 309v376z"/>
<glyph glyph-name="ubreve" horiz-adv-x="583" unicode="ŭ" d="M153 692h79q9 -61 59 -61q29 0 44 17.5t17 43.5h79q-1 -65 -37 -103.5t-103 -38.5t-102 39.5t-36 102.5zM522 489v-332q0 -75 4 -157h-132l-7 69h-3q-51 -80 -153 -80q-79 0 -125.5 52.5t-46.5 160.5v287h153v-263q0 -114 76 -114q54 0 76 53q5 11 5 33v291h153z"/>
<glyph glyph-name="Uring" horiz-adv-x="682" unicode="Ů" d="M340 835q-21 0 -32.5 -14.5t-11.5 -33.5q0 -18 12.5 -32t31.5 -14q20 0 32.5 13.5t12.5 32.5q0 20 -12.5 34t-32.5 14zM342 886q54 0 84 -28t30 -71q0 -42 -31 -69.5t-83 -27.5q-53 0 -84.5 27.5t-31.5 68.5q0 43 31 71.5t85 28.5zM65 674h153v-388q0 -86 31.5 -130.5 t90.5 -44.5q124 0 124 175v388h152v-378q0 -153 -73 -230t-208 -77q-270 0 -270 309v376z"/>
<glyph glyph-name="uring" horiz-adv-x="583" unicode="ů" d="M291 589q22 0 34 14t12 34t-12.5 34.5t-33.5 14.5t-33 -15t-12 -35q0 -18 12.5 -32.5t32.5 -14.5zM292 539q-52 0 -83.5 27.5t-31.5 68.5q0 44 31 72.5t85 28.5q53 0 83 -28t30 -72q0 -42 -31 -69.5t-83 -27.5zM522 489v-332q0 -75 4 -157h-132l-7 69h-3 q-51 -80 -153 -80q-79 0 -125.5 52.5t-46.5 160.5v287h153v-263q0 -114 76 -114q54 0 76 53q5 11 5 33v291h153z"/>
<glyph glyph-name="Uhungarumlaut" horiz-adv-x="682" unicode="Ű" d="M439 835h141l-101 -117h-105zM258 835h141l-102 -117h-104zM65 674h153v-388q0 -86 31.5 -130.5t90.5 -44.5q124 0 124 175v388h152v-378q0 -153 -73 -230t-208 -77q-270 0 -270 309v376z"/>
<glyph glyph-name="uhungarumlaut" horiz-adv-x="583" unicode="ű" d="M393 701h120l-98 -149h-85zM220 701h120l-98 -149h-85zM522 489v-332q0 -75 4 -157h-132l-7 69h-3q-51 -80 -153 -80q-79 0 -125.5 52.5t-46.5 160.5v287h153v-263q0 -114 76 -114q54 0 76 53q5 11 5 33v291h153z"/>
<glyph glyph-name="Uogonek" horiz-adv-x="682" unicode="Ų" d="M453 -115l21 -71q-46 -32 -108 -32q-50 0 -77 23.5t-27 65.5q0 56 58 119h-6q-249 10 -249 308v376h153v-388q0 -86 31.5 -130.5t90.5 -44.5q124 0 124 175v388h152v-378q0 -126 -50 -200.5t-143 -95.5q-54 -50 -54 -87q0 -17 12 -27t29 -10q22 0 43 9z"/>
<glyph glyph-name="uogonek" horiz-adv-x="583" unicode="ų" d="M522 489v-332q0 -77 4 -157h-49q-21 -38 -21 -68q0 -25 15.5 -40.5t38.5 -15.5q26 0 44 7l21 -71q-40 -31 -102 -31q-53 0 -82.5 27t-29.5 79q0 44 33 114l-7 68h-3q-51 -80 -153 -80q-79 0 -125.5 52.5t-46.5 160.5v287h153v-263q0 -114 76 -114q54 0 76 53q5 11 5 33 v291h153z"/>
<glyph glyph-name="Wcircumflex" horiz-adv-x="888" unicode="Ŵ" d="M392 833h114l101 -123h-107l-50 62h-2l-50 -62h-106zM342 0h-167l-160 674h163l51 -278q14 -77 40 -235h2q13 84 44 237l57 276h162l54 -284q20 -104 36 -226h2q6 47 39 234l55 276h155l-174 -674h-165l-57 290q-23 119 -32 208h-2q-20 -128 -39 -208z"/>
<glyph glyph-name="wcircumflex" horiz-adv-x="759" unicode="ŵ" d="M329 702h102l99 -152h-99l-50 87h-2l-50 -87h-100zM11 489h155l39 -200q18 -94 28 -161h2q10 56 36 160l52 201h120l49 -195q26 -110 36 -166h2q8 67 28 167l42 194h149l-150 -489h-143l-46 172q-17 68 -31 152h-2q-12 -81 -32 -152l-49 -172h-143z"/>
<glyph glyph-name="Ycircumflex" horiz-adv-x="603" unicode="Ŷ" d="M244 833h114l101 -123h-107l-50 62h-2l-50 -62h-106zM374 0h-152v276l-213 398h174l69 -162q22 -51 52 -129h2q17 46 51 129l68 162h171l-222 -393v-281z"/>
<glyph glyph-name="ycircumflex" horiz-adv-x="523" unicode="ŷ" d="M216 702h103l99 -152h-99l-51 87h-2l-50 -87h-99zM6 489h169l73 -240q18 -67 24 -91h3q4 15 11.5 48t10.5 43l60 240h163l-114 -322q-50 -140 -89.5 -211t-82.5 -110q-65 -56 -147 -67l-32 129q31 5 66 26q38 20 63 61q8 11 8 22t-7 25z"/>
<glyph glyph-name="Ydieresis" horiz-adv-x="603" unicode="Ÿ" d="M415 711q-30 0 -49.5 20t-19.5 48q0 29 19.5 49t49.5 20q28 0 47.5 -20t19.5 -49q0 -28 -19.5 -48t-47.5 -20zM207 711q-29 0 -49 20t-20 48q0 29 20.5 49t49.5 20q28 0 46.5 -20t18.5 -49q0 -28 -19 -48t-47 -20zM374 0h-152v276l-213 398h174l69 -162q22 -51 52 -129h2 q17 46 51 129l68 162h171l-222 -393v-281z"/>
<glyph glyph-name="Zacute" horiz-adv-x="577" unicode="Ź" d="M298 833h160l-122 -123h-122zM23 0v82l321 462v4h-291v126h489v-88l-314 -456v-4h319v-126h-524z"/>
<glyph glyph-name="zacute" horiz-adv-x="469" unicode="ź" d="M258 702h141l-122 -152h-105zM22 0v87l154 193q32 38 78 87v2h-215v120h400v-91l-147 -185q-58 -69 -80 -90v-2h235v-121h-425z"/>
<glyph glyph-name="Zdotaccent" horiz-adv-x="577" unicode="Ż" d="M293 712q-30 0 -50 20.5t-20 48.5q0 29 20.5 49t49.5 20q28 0 47.5 -20t19.5 -49q0 -28 -19.5 -48.5t-47.5 -20.5zM23 0v82l321 462v4h-291v126h489v-88l-314 -456v-4h319v-126h-524z"/>
<glyph glyph-name="zdotaccent" horiz-adv-x="469" unicode="ż" d="M239 557q-30 0 -51 20.5t-21 49.5q0 31 20.5 51t51.5 20q29 0 48.5 -20t19.5 -51q0 -29 -19.5 -49.5t-48.5 -20.5zM22 0v87l154 193q32 38 78 87v2h-215v120h400v-91l-147 -185q-58 -69 -80 -90v-2h235v-121h-425z"/>
<glyph glyph-name="Zcaron" horiz-adv-x="577" unicode="Ž" d="M352 710h-114l-101 123h107l50 -63h2l50 63h106zM23 0v82l321 462v4h-291v126h489v-88l-314 -456v-4h319v-126h-524z"/>
<glyph glyph-name="zcaron" horiz-adv-x="469" unicode="ž" d="M291 550h-103l-99 152h99l51 -87h2l50 87h100zM22 0v87l154 193q32 38 78 87v2h-215v120h400v-91l-147 -185q-58 -69 -80 -90v-2h235v-121h-425z"/>
<glyph glyph-name="florin" horiz-adv-x="555" unicode="ƒ" d="M114 306v106h91l3 32q3 25 9 49t21.5 56t38 55.5t61 40t87.5 16.5q51 0 83 -16l-24 -108q-22 9 -47 9q-70 0 -80 -90l-6 -44h102v-106h-115l-22 -178q-13 -104 -56.5 -161.5t-141.5 -57.5q-62 2 -91 17l21 106q20 -8 47 -8q38 1 54.5 29t26.5 113l16 140h-78z"/>
<glyph glyph-name="Ohorn" horiz-adv-x="717" unicode="Ơ" d="M600 743l108 19q24 -48 24 -102q0 -48 -26.5 -78.5t-78.5 -31.5q56 -89 56 -206q0 -164 -91 -259.5t-240 -95.5q-146 0 -231.5 97.5t-85.5 245.5q0 154 90.5 253.5t237.5 99.5q61 0 123 -20q11 -4 32.5 -14t38 -15.5t28.5 -5.5q37 0 37 40q0 34 -22 73zM360 110 q75 0 118.5 64t43.5 165q0 95 -43.5 160t-119.5 65t-119.5 -66t-43.5 -165q0 -97 44.5 -160t119.5 -63z"/>
<glyph glyph-name="ohorn" horiz-adv-x="588" unicode="ơ" d="M478 566l106 18q23 -46 23 -94q0 -46 -25.5 -73.5t-71.5 -32.5q34 -58 34 -134q0 -126 -75.5 -193.5t-182.5 -67.5q-110 0 -181.5 68t-71.5 184q0 118 71.5 188.5t189.5 70.5q47 0 89 -13q4 -1 35.5 -14t45.5 -13q35 0 35 36q0 33 -21 70zM290 392q-51 0 -75.5 -43 t-24.5 -104q0 -65 26.5 -106t73.5 -41q44 0 70.5 40.5t26.5 106.5q0 61 -24.5 104t-72.5 43z"/>
<glyph glyph-name="Uhorn" horiz-adv-x="728" unicode="Ư" d="M611 780l107 17q22 -44 22 -93q0 -99 -107 -109l-17 -2v-297q0 -153 -73 -230t-208 -77q-270 0 -270 309v376h153v-388q0 -86 31.5 -130.5t90.5 -44.5q124 0 124 175v388h116q30 0 41 9.5t11 29.5q0 33 -21 67z"/>
<glyph glyph-name="uhorn" horiz-adv-x="583" unicode="ư" d="M493 596l106 18q23 -46 23 -91q0 -44 -25.5 -70.5t-66.5 -31.5l-8 -1v-263q0 -75 4 -157h-132l-7 69h-3q-51 -80 -153 -80q-79 0 -125.5 52.5t-46.5 160.5v286h153v-262q0 -114 76 -114q54 0 76 53q5 11 5 33v290h93q52 0 52 42q0 30 -21 66z"/>
<glyph glyph-name="Aringacute" horiz-adv-x="656" unicode="Ǻ" d="M245 287h149l-42 143q-9 30 -34 130h-2q-3 -13 -14 -60.5t-17 -69.5zM416 173h-193l-48 -173h-158l206 674h200l209 -674h-164zM364 982h166l-148 -93h-126zM328 744q21 0 32.5 10.5t11.5 27.5t-12.5 29t-32.5 12t-30.5 -12t-10.5 -29q0 -16 11.5 -27t30.5 -11zM329 693 q-49 0 -78 25.5t-29 63.5t29 64t79 26t78 -25.5t28 -64.5t-28.5 -64t-78.5 -25z"/>
<glyph glyph-name="aringacute" horiz-adv-x="528" unicode="ǻ" d="M321 178v53h-6q-136 0 -136 -77q0 -28 16.5 -43t43.5 -15q28 0 49.5 16t29.5 40q3 12 3 26zM476 0h-137l-9 49h-3q-49 -60 -140 -60q-71 0 -114.5 44.5t-43.5 105.5q0 92 75.5 139.5t207.5 47.5h4v7q0 63 -89 63q-76 0 -135 -37l-28 98q77 43 190 43q114 0 164.5 -58 t50.5 -153v-170q0 -81 7 -119zM264 575q22 0 34 14t12 34t-12.5 34.5t-34.5 14.5q-21 0 -32.5 -15t-11.5 -35q0 -18 12.5 -32.5t32.5 -14.5zM265 525q-52 0 -84 27.5t-32 69.5q0 43 31.5 71.5t85.5 28.5q53 0 82.5 -28t29.5 -72q0 -42 -31 -69.5t-82 -27.5zM312 861h140 l-147 -116h-104z"/>
<glyph glyph-name="AEacute" horiz-adv-x="868" unicode="Ǽ" d="M481 833h160l-123 -123h-122zM278 306h134l-20 163q-1 10 -12 98h-3q-4 -12 -34 -99zM159 0h-157l288 674h513v-125h-277l18 -143h255v-124h-235l20 -157h256v-125h-387l-24 184h-196z"/>
<glyph glyph-name="aeacute" horiz-adv-x="803" unicode="ǽ" d="M414 702h140l-122 -152h-104zM459 305h174q1 34 -18 65t-65 31q-43 0 -66.5 -31t-24.5 -65zM322 178v51h-5q-63 0 -101 -18.5t-38 -57.5q0 -27 18 -42t45 -15q54 0 77 51q4 8 4 31zM770 203h-310q2 -46 38 -73.5t94 -27.5q75 0 137 26l21 -102q-71 -37 -180 -37 q-62 0 -112 23t-74 64h-4q-64 -87 -182 -87q-78 0 -123.5 44t-45.5 109q0 87 76.5 133.5t208.5 46.5h4v14q0 10 -6.5 22t-29 24.5t-57.5 12.5q-69 0 -131 -37l-30 96q83 46 173 46q116 0 161 -79h3q60 79 167 79q101 0 153 -72t52 -171q0 -18 -3 -54z"/>
<glyph glyph-name="Oslashacute" horiz-adv-x="717" unicode="Ǿ" d="M368 838h160l-123 -123h-121zM505 454l-220 -323q31 -23 74 -23q79 0 125 63.5t46 167.5q0 57 -22 114zM215 214l223 328q-35 24 -78 24q-80 0 -126 -63.5t-46 -165.5q0 -65 26 -123h1zM154 -66l-82 64l56 85q-93 98 -93 253q0 151 90.5 250t234.5 99q84 0 149 -35l55 81 l87 -58l-57 -84q89 -95 89 -248q0 -162 -90.5 -257t-233.5 -95q-79 0 -144 34z"/>
<glyph glyph-name="oslashacute" horiz-adv-x="577" unicode="ǿ" d="M303 702h141l-122 -152h-105zM379 319l-142 -203q19 -18 51 -18q50 0 79.5 39.5t29.5 104.5q0 45 -15 76zM199 166l143 208q-25 18 -54 18q-55 0 -82 -44t-27 -103q0 -48 18 -78zM288 500q70 0 119 -26l47 69l53 -37l-45 -67q82 -71 82 -193q0 -123 -75.5 -190 t-179.5 -67q-67 0 -116 26l-49 -71l-50 40l44 65q-85 69 -85 195q0 115 70.5 185.5t184.5 70.5z"/>
<glyph glyph-name="Scommaaccent" horiz-adv-x="540" unicode="Ș" d="M199 -241l-23 64q28 6 47 21.5t19 39.5q0 25 -30 60l106 17q39 -29 39 -79q0 -59 -44 -90t-114 -33zM40 31l31 126q82 -42 169 -42q52 0 79.5 19.5t27.5 53.5q0 31 -25.5 52t-87.5 43q-185 64 -185 199q0 88 69 145.5t186 57.5q96 0 172 -34l-34 -123q-66 32 -141 32 q-47 0 -72.5 -18.5t-25.5 -46.5q0 -30 27 -49t98 -46q90 -33 132.5 -81.5t42.5 -119.5q0 -90 -70 -149.5t-202 -59.5q-55 0 -107.5 12t-83.5 29z"/>
<glyph glyph-name="scommaaccent" horiz-adv-x="434" unicode="ș" d="M145 -242l-23 65q27 5 46.5 21t19.5 40q0 27 -29 60l106 17q39 -29 39 -79q0 -59 -44.5 -90.5t-114.5 -33.5zM33 24l27 109q23 -14 61 -25.5t70 -11.5q65 0 65 41q0 19 -14.5 30.5t-57.5 25.5q-139 47 -139 145q0 71 54.5 116.5t144.5 45.5q82 0 138 -28l-27 -105 q-51 28 -106 28q-58 0 -58 -40q0 -17 16.5 -28.5t62.5 -27.5q69 -24 100.5 -60t32.5 -91q0 -71 -55 -114.5t-157 -43.5q-95 0 -158 34z"/>
<glyph glyph-name="uni021A" horiz-adv-x="548" unicode="Ț" d="M192 -241l-23 64q28 6 47 21.5t19 39.5q0 27 -29 60l106 17q38 -29 38 -79q0 -59 -44 -90t-114 -33zM196 0v546h-181v128h518v-128h-184v-546h-153z"/>
<glyph glyph-name="uni021B" horiz-adv-x="367" unicode="ț" d="M126 -244l-23 65q28 6 47 21.5t19 39.5q0 28 -30 60l106 18q39 -29 39 -80q0 -59 -44 -90t-114 -34zM82 595l149 34v-140h109v-112h-109v-177q0 -46 13 -66t47 -20q23 0 45 4l1 -115q-33 -13 -99 -13q-74 0 -114 42q-42 44 -42 145v200h-65v112h65v106z"/>
<glyph glyph-name="uni021C" horiz-adv-x="537" unicode="Ȝ" d="M75 -125l-17 116q55 5 116.5 27t111.5 65t50 93q0 40 -29.5 68t-87.5 28q-50 0 -101 -17l-17 102q77 15 133 53t56 90q0 30 -25 49t-65 19q-64 0 -134 -34l-29 99q89 52 197 52q91 0 149 -42.5t58 -113.5q0 -52 -32.5 -94t-86.5 -67v-2q77 -11 126.5 -58t49.5 -124 q0 -126 -123.5 -214t-299.5 -95z"/>
<glyph glyph-name="uni021D" horiz-adv-x="474" unicode="ȝ" d="M51 -209l-17 116q28 0 64.5 6.5t82 20.5t76 44.5t30.5 72.5q0 33 -23 56.5t-78 23.5q-33 0 -85 -16l-21 102q170 35 170 109q0 28 -22 43t-62 15q-50 0 -120 -35l-27 99q76 52 187 52q89 0 140.5 -38t51.5 -106q0 -85 -104 -130v-3q71 -10 111 -51.5t40 -105.5 q0 -80 -56 -143t-144.5 -96t-193.5 -36z"/>
<glyph glyph-name="uni0232" horiz-adv-x="603" unicode="Ȳ" d="M172 815h259v-81h-259v81zM374 0h-152v276l-213 398h174l69 -162q22 -51 52 -129h2q17 46 51 129l68 162h171l-222 -393v-281z"/>
<glyph glyph-name="uni0233" horiz-adv-x="523" unicode="ȳ" d="M136 665h251v-83h-251v83zM6 489h169l73 -240q18 -67 24 -91h3q4 15 11.5 48t10.5 43l60 240h163l-114 -322q-50 -140 -89.5 -211t-82.5 -110q-65 -56 -147 -67l-32 129q31 5 66 26q38 20 63 61q8 11 8 22t-7 25z"/>
<glyph glyph-name="circumflex" d="M99 702h103l99 -152h-99l-51 87h-2l-50 -87h-99z" unicode="ˆ"/>
<glyph glyph-name="caron" d="M201 550h-103l-99 152h99l51 -87h2l50 87h100z" unicode="ˇ"/>
<glyph glyph-name="uni02C9" d="M25 665h251v-83h-251v83z" unicode="ˉ"/>
<glyph glyph-name="breve" d="M11 692h79q9 -61 59 -61q29 0 44 17.5t17 43.5h79q-1 -65 -37 -103.5t-103 -38.5t-102 39.5t-36 102.5z" unicode="˘"/>
<glyph glyph-name="dotaccent" d="M122 557q-30 0 -50.5 20.5t-20.5 49.5q0 31 20.5 51t50.5 20q29 0 48.5 -20t19.5 -51q0 -29 -19.5 -49.5t-48.5 -20.5z" unicode="˙"/>
<glyph glyph-name="ring" d="M141 589q22 0 34 14t12 34t-12.5 34.5t-34.5 14.5q-21 0 -32.5 -15t-11.5 -35q0 -18 12.5 -32.5t32.5 -14.5zM142 539q-52 0 -84 27.5t-32 68.5q0 44 31.5 72.5t85.5 28.5q53 0 82.5 -28t29.5 -72q0 -42 -31 -69.5t-82 -27.5z" unicode="˚"/>
<glyph glyph-name="ogonek" d="M82 2h81q-25 -47 -25 -73q0 -23 14.5 -38t38.5 -15q25 0 45 8l21 -71q-41 -32 -101 -32q-54 0 -83.5 27t-29.5 79q0 62 39 115z" unicode="˛"/>
<glyph glyph-name="tilde" d="M80 558h-72v10q0 57 22 89t60 32q25 0 65 -20q32 -20 42 -20q12 0 18 9.5t8 35.5h70v-12q0 -117 -82 -117q-27 0 -69 22q-29 16 -38 16q-22 0 -24 -45z" unicode="˜"/>
<glyph glyph-name="hungarumlaut" d="M234 701h120l-97 -149h-86zM61 701h120l-98 -149h-85z" unicode="˝"/>
<glyph glyph-name="uni037E" horiz-adv-x="277" unicode=";" d="M147 285q-42 0 -68 27.5t-26 69.5q0 43 26 70t68 27t68 -27t26 -70q0 -42 -26 -69.5t-68 -27.5zM124 -110l-101 -9q42 155 52 278l154 5q-41 -149 -105 -274z"/>
<glyph glyph-name="tonos" horiz-adv-x="303" unicode="΄" d="M130 702h133l-80 -152h-99z"/>
<glyph glyph-name="dieresistonos" horiz-adv-x="435" unicode="΅" d="M364 564q-26 0 -44 18.5t-18 44.5t18 44t45 18q26 0 43.5 -17.5t17.5 -44.5q0 -26 -17.5 -44.5t-44.5 -18.5zM69 564q-27 0 -45 18.5t-18 44.5t18.5 44t45.5 18q25 0 42.5 -17.5t17.5 -44.5q0 -26 -17.5 -44.5t-43.5 -18.5zM180 729h112l-55 -175h-78z"/>
<glyph glyph-name="Alphatonos" horiz-adv-x="664" unicode="Ά" d="M252 287h149l-42 143q-6 20 -33 130h-3q-24 -106 -30 -130zM424 173h-194l-47 -173h-158l206 674h199l210 -674h-164zM21 674h122l-37 -174h-87z"/>
<glyph glyph-name="anoteleia" horiz-adv-x="277" unicode="·" d="M138 214q-43 0 -70.5 28.5t-27.5 72.5t28 72.5t71 28.5t70 -28t28 -73q0 -45 -27 -73t-72 -28z"/>
<glyph glyph-name="Epsilontonos" horiz-adv-x="642" unicode="Έ" d="M575 409v-124h-248v-160h277v-125h-429v674h415v-125h-263v-140h248zM2 674h122l-37 -174h-87z"/>
<glyph glyph-name="Etatonos" horiz-adv-x="797" unicode="Ή" d="M174 674h153v-259h251v259h152v-674h-152v282h-251v-282h-153v674zM2 674h122l-37 -174h-87z"/>
<glyph glyph-name="Iotatonos" horiz-adv-x="393" unicode="Ί" d="M175 674h152v-674h-152v674zM2 674h122l-37 -174h-87z"/>
<glyph glyph-name="Omicrontonos" horiz-adv-x="792" unicode="Ό" d="M434 564q-76 0 -120 -64t-44 -165q0 -100 44.5 -162.5t119.5 -62.5t118.5 64t43.5 165q0 95 -43 160t-119 65zM437 685q150 0 235 -97.5t85 -243.5q0 -164 -90.5 -259.5t-239.5 -95.5q-146 0 -232 97.5t-86 245.5q0 153 90.5 253t237.5 100zM2 674h122l-37 -174h-87z"/>
<glyph glyph-name="Upsilontonos" horiz-adv-x="779" unicode="Ύ" d="M159 554l24 126q48 -1 102 -23.5t93 -66.5q74 -80 88 -216h7q15 122 95 210q39 42 88.5 68t89.5 28l24 -129q-71 -20 -132 -94.5t-85 -172.5q-17 -71 -17 -138v-146h-153v147q0 69 -11 132q-21 113 -74 186t-139 89zM2 674h122l-37 -174h-87z"/>
<glyph glyph-name="Omegatonos" horiz-adv-x="814" unicode="Ώ" d="M401 0h-299v115h133v4q-50 40 -85 104t-35 146q0 134 93.5 225t239.5 91q148 0 235 -90t87 -215q0 -154 -123 -261v-4h135v-115h-297v89q128 96 128 261q0 89 -46 151.5t-122 62.5t-124 -61.5t-48 -152.5q0 -81 37 -154t91 -107v-89zM2 674h122l-37 -174h-87z"/>
<glyph glyph-name="iotadieresistonos" horiz-adv-x="280" unicode="ΐ" d="M213 489v-337q0 -47 38 -47h8l-8 -106q-22 -10 -64 -10q-63 0 -94.5 33t-31.5 116v351h152zM293 554q-26 0 -44 18t-18 44t18 43.5t44 17.5t43.5 -17.5t17.5 -43.5t-17 -44t-44 -18zM0 554q-26 0 -44.5 18t-18.5 44t18.5 43.5t45.5 17.5q25 0 42 -17.5t17 -43.5t-17 -44 t-43 -18zM110 718h112l-56 -173h-77z"/>
<glyph glyph-name="Alpha" horiz-adv-x="656" unicode="Α" d="M245 287h149l-42 143q-9 30 -34 130h-2q-3 -13 -14 -60.5t-17 -69.5zM416 173h-193l-48 -173h-158l206 674h200l209 -674h-164z"/>
<glyph glyph-name="Beta" horiz-adv-x="604" unicode="Β" d="M217 298v-190q15 -2 59 -2q57 0 93.5 23.5t36.5 73.5q0 48 -38 71.5t-99 23.5h-52zM217 564v-157h50q59 0 91 22.5t32 60.5q0 78 -108 78q-39 0 -65 -4zM66 3v662q70 14 197 14q135 0 199 -38q81 -43 81 -132q0 -47 -28 -85.5t-83 -58.5v-2q60 -16 97 -59.5t37 -106.5 q0 -86 -70 -143q-77 -61 -265 -61q-97 0 -165 10z"/>
<glyph glyph-name="Gamma" horiz-adv-x="482" unicode="Γ" d="M66 674h409v-128h-256v-546h-153v674z"/>
<glyph glyph-name="uni0394" horiz-adv-x="648" unicode="Δ" d="M181 125h273l-95 282q-25 79 -41 144h-4q-22 -87 -37 -135zM16 0v76l216 598h185l212 -597v-77h-613z"/>
<glyph glyph-name="Epsilon" horiz-adv-x="534" unicode="Ε" d="M467 409v-124h-248v-160h277v-125h-430v674h416v-125h-263v-140h248z"/>
<glyph glyph-name="Zeta" horiz-adv-x="577" unicode="Ζ" d="M23 0v82l321 462v4h-291v126h489v-88l-314 -456v-4h319v-126h-524z"/>
<glyph glyph-name="Eta" horiz-adv-x="689" unicode="Η" d="M66 674h153v-259h251v259h152v-674h-152v282h-251v-282h-153v674z"/>
<glyph glyph-name="Theta" horiz-adv-x="719" unicode="Θ" d="M254 405h210v-123h-210v123zM360 110q77 0 120.5 63.5t43.5 165.5q0 96 -43.5 160.5t-120.5 64.5q-76 0 -120.5 -65t-44.5 -163t44.5 -162t120.5 -64zM354 -11q-147 0 -233 97.5t-86 245.5q0 154 91 253.5t238 99.5q150 0 235.5 -97.5t85.5 -243.5q0 -164 -91 -259.5 t-240 -95.5z"/>
<glyph glyph-name="Iota" horiz-adv-x="285" unicode="Ι" d="M66 674h153v-674h-153v674z"/>
<glyph glyph-name="Kappa" horiz-adv-x="614" unicode="Κ" d="M66 0v674h151v-298h3q3 5 46 74l153 224h187l-223 -287l235 -387h-178l-165 291l-58 -71v-220h-151z"/>
<glyph glyph-name="Lambda" horiz-adv-x="648" unicode="Λ" d="M633 0h-166l-115 404q-9 35 -35 144h-2q-29 -138 -31 -145l-107 -403h-160l206 674h197z"/>
<glyph glyph-name="Mu" horiz-adv-x="846" unicode="Μ" d="M646 0l-10 258q-6 162 -6 277h-3q-31 -128 -75 -261l-82 -263h-119l-72 261q-38 136 -61 263h-2q-1 -12 -5 -120.5t-7 -158.5l-12 -256h-141l43 674h203l66 -225q38 -142 57 -241h3q34 140 64 242l72 224h199l37 -674h-149z"/>
<glyph glyph-name="Nu" horiz-adv-x="690" unicode="Ν" d="M206 0h-140v674h178l140 -247q63 -112 110 -231h3q-13 116 -13 281v197h140v-674h-160l-144 260q-71 128 -117 238l-3 -1q6 -133 6 -294v-203z"/>
<glyph glyph-name="Xi" horiz-adv-x="574" unicode="Ξ" d="M42 125h496v-125h-496v125zM88 407h404v-123h-404v123zM56 674h468v-124h-468v124z"/>
<glyph glyph-name="Omicron" horiz-adv-x="717" unicode="Ο" d="M359 564q-76 0 -119.5 -64t-43.5 -165q0 -100 44.5 -162.5t119.5 -62.5t118.5 64t43.5 165q0 95 -43.5 160t-119.5 65zM363 685q150 0 235 -97.5t85 -243.5q0 -164 -91 -259.5t-240 -95.5q-146 0 -231.5 97.5t-85.5 245.5q0 154 90.5 253.5t237.5 99.5z"/>
<glyph glyph-name="Pi" horiz-adv-x="667" unicode="Π" d="M600 674v-674h-152v546h-229v-546h-153v674h534z"/>
<glyph glyph-name="Rho" horiz-adv-x="581" unicode="Ρ" d="M217 558v-199q17 -4 51 -4q61 0 96 29t35 81q0 47 -31 73t-88 26q-41 0 -63 -6zM66 0v665q82 14 206 14q138 0 206 -54q72 -57 72 -156q0 -101 -62 -160q-75 -71 -219 -71q-31 0 -52 3v-241h-151z"/>
<glyph glyph-name="Sigma" horiz-adv-x="578" unicode="Σ" d="M224 129v-4h321v-125h-515v86l200 248l-189 241v99h478v-125h-284v-3l158 -206z"/>
<glyph glyph-name="Tau" horiz-adv-x="548" unicode="Τ" d="M196 0v546h-181v128h518v-128h-184v-546h-153z"/>
<glyph glyph-name="Upsilon" horiz-adv-x="625" unicode="Υ" d="M9 554l23 126q48 -1 102 -23.5t93 -66.5q74 -80 88 -216h7q15 122 95 210q39 42 88.5 68t89.5 28l24 -129q-71 -20 -132 -94.5t-85 -172.5q-17 -71 -17 -138v-146h-153v147q0 66 -10 132q-21 113 -74.5 186t-138.5 89z"/>
<glyph glyph-name="Phi" horiz-adv-x="785" unicode="Φ" d="M463 544v-410q55 10 95 60.5t40 140.5q0 94 -40 147.5t-95 61.5zM321 134v410q-53 -9 -93.5 -63.5t-40.5 -146.5q0 -83 40.5 -136.5t93.5 -63.5zM463 27v-55h-143v55q-120 14 -203 92.5t-83 214.5q0 72 26.5 131.5t69.5 96.5t92 59.5t100 28.5v52h142v-52 q119 -14 203 -94t84 -216q0 -135 -83 -216t-205 -97z"/>
<glyph glyph-name="Chi" horiz-adv-x="613" unicode="Χ" d="M597 0h-176l-61 122q-13 24 -60 121h-2q-8 -23 -52 -121l-56 -122h-174l195 341l-188 333h175l59 -123q28 -58 51 -112h2q16 44 46 112l57 123h174l-190 -329z"/>
<glyph glyph-name="Psi" horiz-adv-x="742" unicode="Ψ" d="M702 674v-195q0 -143 -72 -215.5t-188 -79.5v-184h-140v184q-114 7 -187 71t-73 191v228h146v-205q0 -89 30 -127t84 -42v374h139v-375q114 9 114 202v173h147z"/>
<glyph glyph-name="uni03A9" horiz-adv-x="744" unicode="Ω" d="M331 0h-299v115h133v4q-50 40 -85.5 104t-35.5 146q0 133 94 224.5t240 91.5q148 0 234.5 -90t86.5 -215q0 -155 -122 -261v-4h135v-115h-297v89q127 97 127 261q0 89 -46 151.5t-121 62.5q-77 0 -125 -61.5t-48 -152.5q0 -80 37.5 -153.5t91.5 -107.5v-89z"/>
<glyph glyph-name="Iotadieresis" horiz-adv-x="285" unicode="Ϊ" d="M66 674h153v-674h-153v674zM245 714q-29 0 -48.5 20t-19.5 48q0 29 19.5 48.5t49.5 19.5q28 0 47 -19.5t19 -48.5q0 -28 -19 -48t-48 -20zM41 714q-30 0 -49.5 20t-19.5 48q0 29 20 48.5t49 19.5q28 0 47 -19.5t19 -48.5q0 -28 -19 -48t-47 -20z"/>
<glyph glyph-name="Upsilondieresis" horiz-adv-x="625" unicode="Ϋ" d="M9 554l23 126q48 -1 102 -23.5t93 -66.5q74 -80 88 -216h7q15 122 95 210q39 42 88.5 68t89.5 28l24 -129q-71 -20 -132 -94.5t-85 -172.5q-17 -71 -17 -138v-146h-153v147q0 66 -10 132q-21 113 -74.5 186t-138.5 89zM419 698q-29 0 -48.5 20t-19.5 48q0 29 19.5 48.5 t49.5 19.5q28 0 47 -19.5t19 -48.5q0 -28 -19 -48t-48 -20zM215 698q-30 0 -49.5 20t-19.5 48q0 29 20 48.5t49 19.5q28 0 47 -19.5t19 -48.5q0 -28 -19 -48t-47 -20z"/>
<glyph glyph-name="alphatonos" horiz-adv-x="583" unicode="ά" d="M187 242q0 -57 26 -95t66 -38q32 0 56.5 26.5t32.5 64.5q3 25 3 49q0 29 -2 41q-7 42 -30.5 68t-55.5 26q-43 0 -69.5 -41t-26.5 -101zM405 489h127q-14 -154 -14 -319q0 -67 41 -67h5l-9 -106q-16 -8 -53 -8q-85 0 -106 89h-2q-53 -89 -157 -89q-87 0 -145.5 67.5 t-58.5 177.5q0 118 67 192t155 74q93 0 134 -75h4q4 35 12 64zM287 700h133l-80 -152h-99z"/>
<glyph glyph-name="epsilontonos" horiz-adv-x="468" unicode="έ" d="M426 132l21 -98q-71 -45 -192 -45q-58 0 -105.5 13.5t-82 49t-34.5 88.5q0 44 31 76t76 41v5q-84 27 -84 102q0 55 55 95.5t158 40.5q102 0 164 -37l-26 -96q-52 28 -115 28q-39 0 -61 -13t-22 -34q0 -43 112 -43h48v-99h-47q-125 -2 -125 -49q0 -27 28.5 -41t69.5 -14 q69 0 131 30zM246 700h133l-81 -152h-98z"/>
<glyph glyph-name="etatonos" horiz-adv-x="586" unicode="ή" d="M213 0h-152v333q0 107 -16 156h134q15 -28 17 -67h3q19 30 58 54t93 24q79 0 127 -53t48 -157v-316q0 -130 11 -172h-145q-18 31 -18 173v296q0 106 -77 106q-29 0 -48.5 -16.5t-28.5 -40.5q-6 -13 -6 -38v-282zM289 700h133l-81 -152h-98z"/>
<glyph glyph-name="iotatonos" horiz-adv-x="280" unicode="ί" d="M213 489v-337q0 -47 38 -47h8l-8 -106q-22 -10 -64 -10q-63 0 -94.5 33t-31.5 116v351h152zM130 701h136l-81 -152h-101z"/>
<glyph glyph-name="upsilondieresistonos" horiz-adv-x="558" unicode="ΰ" d="M341 489h142q37 -79 37 -186q0 -61 -13 -114t-40.5 -99.5t-78 -73.5t-118.5 -27q-96 0 -156.5 54t-60.5 157v127q0 124 -12 162h149q15 -16 15 -95v-184q0 -47 22 -72.5t55 -25.5q45 0 67 50.5t22 130.5q0 58 -10 114.5t-20 81.5zM423 553q-27 0 -44.5 18t-17.5 44t18 44 t44 18t43.5 -17.5t17.5 -44.5q0 -26 -17.5 -44t-43.5 -18zM129 553q-27 0 -45 18t-18 44t18.5 44t44.5 18q25 0 42.5 -17.5t17.5 -44.5q0 -26 -17.5 -44t-42.5 -18zM239 717h112l-56 -173h-77z"/>
<glyph glyph-name="alpha" horiz-adv-x="583" unicode="α" d="M187 242q0 -57 26 -95t66 -38q32 0 56.5 26.5t32.5 64.5q3 25 3 49q0 29 -2 41q-7 42 -30.5 68t-55.5 26q-43 0 -69.5 -41t-26.5 -101zM405 489h127q-14 -154 -14 -319q0 -67 41 -67h5l-9 -106q-16 -8 -53 -8q-85 0 -106 89h-2q-53 -89 -157 -89q-87 0 -145.5 67.5 t-58.5 177.5q0 118 67 192t155 74q93 0 134 -75h4q4 35 12 64z"/>
<glyph glyph-name="beta" horiz-adv-x="587" unicode="β" d="M205 441v-288q40 -50 97 -50q47 0 72.5 29.5t25.5 72.5q0 50 -30.5 79t-77.5 33h-7h-8.5h-6.5v93q7 0 16 3q36 7 56.5 34.5t20.5 65.5q0 40 -19.5 65t-52.5 25q-86 0 -86 -162zM207 34h-2v-58q0 -121 13 -174h-142q-18 40 -18 171v440q0 176 79 248q63 60 164 60 q93 0 146 -52t53 -131q0 -44 -22 -87t-59 -62v-6q55 -13 95 -63t40 -120q0 -94 -61 -152.5t-152 -58.5q-85 0 -134 45z"/>
<glyph glyph-name="gamma" horiz-adv-x="515" unicode="γ" d="M320 -198h-148q1 27 1 80q0 118 -17 199q-42 201 -169 408h169q29 -45 64 -141t53 -193h4q73 159 73 291q0 12 -0.5 26t-0.5 17h145q2 -18 2 -37q0 -91 -47 -204.5t-126 -228.5q-6 -10 -6 -24q0 -13 3 -193z"/>
<glyph glyph-name="delta" horiz-adv-x="576" unicode="δ" d="M326 357l-46 38q-91 -55 -91 -161q0 -57 30 -96.5t74 -39.5q42 0 69.5 36t27.5 94q0 74 -64 129zM501 672l-39 -95q-16 12 -53 24t-72 12q-54 0 -54 -26q0 -5 3 -10.5t12 -14.5t16 -14.5t25 -20.5l81 -65q122 -96 122 -221q0 -113 -74 -182.5t-184 -69.5q-107 0 -179 67 t-72 175q0 84 47.5 143t117.5 92v4l-19 17q-55 52 -55 102q0 52 54 92t145 40q57 0 105 -15t73 -34z"/>
<glyph glyph-name="epsilon" horiz-adv-x="468" unicode="ε" d="M426 132l21 -98q-71 -45 -192 -45q-58 0 -105.5 13.5t-82 49t-34.5 88.5q0 44 31 76t76 41v5q-84 27 -84 102q0 55 55 95.5t158 40.5q102 0 164 -37l-26 -96q-52 28 -115 28q-39 0 -61 -13t-22 -34q0 -43 112 -43h48v-99h-47q-125 -2 -125 -49q0 -27 28.5 -41t69.5 -14 q69 0 131 30z"/>
<glyph glyph-name="zeta" horiz-adv-x="441" unicode="ζ" d="M360 -152l-94 30q22 43 27 98q-61 10 -112 29q-146 56 -146 221q0 98 54 197.5t148 175.5v5h-47q-74 0 -112 13l14 96q32 -3 140 -3h185l22 -99q-101 -45 -174.5 -149t-73.5 -207q0 -105 85 -144q46 -23 148 -37q10 -2 10 -14q0 -50 -22 -112.5t-52 -99.5z"/>
<glyph glyph-name="eta" horiz-adv-x="586" unicode="η" d="M213 0h-152v333q0 107 -16 156h134q15 -28 17 -67h3q19 30 58 54t93 24q79 0 127 -53t48 -157v-316q0 -130 11 -172h-145q-18 31 -18 173v296q0 106 -77 106q-29 0 -48.5 -16.5t-28.5 -40.5q-6 -13 -6 -38v-282z"/>
<glyph glyph-name="theta" horiz-adv-x="570" unicode="θ" d="M388 308h-204q0 -99 27 -156t77 -57t75 57t25 156zM183 416h203q0 88 -26 143.5t-74 55.5q-49 0 -76 -56t-27 -143zM285 -11q-120 0 -186 95t-66 276q0 160 67.5 260.5t191.5 100.5q122 0 183.5 -97t61.5 -264q0 -173 -63.5 -272t-188.5 -99z"/>
<glyph glyph-name="iota" horiz-adv-x="280" unicode="ι" d="M213 489v-337q0 -47 38 -47h8l-8 -106q-22 -10 -64 -10q-63 0 -94.5 33t-31.5 116v351h152z"/>
<glyph glyph-name="kappa" horiz-adv-x="548" unicode="κ" d="M213 0h-152v365q0 99 -14 124h150q16 -18 16 -87v-117h3q30 37 147 204h173v-5q-177 -200 -192 -217v-4q31 -8 58.5 -40t61.5 -89l78 -134h-174l-55 98q-30 51 -50 75.5t-43 25.5h-7v-199z"/>
<glyph glyph-name="lambda" horiz-adv-x="518" unicode="λ" d="M351 0l-67 221q-16 52 -28 104h-6q-6 -35 -23 -101l-65 -224h-158l171 449q5 13 5 26q0 12 -7 29q-16 43 -44 69.5t-58 26.5q-15 0 -22 -1l13 117q17 5 51 5q77 0 126 -58t90 -169l184 -494h-162z"/>
<glyph glyph-name="uni03BC" horiz-adv-x="585" unicode="μ" d="M391 67h-3q-14 -30 -45.5 -52t-75.5 -22q-43 0 -69 29v-42q0 -126 11 -178h-135q-13 35 -13 177v510h152v-273q0 -105 74 -105q27 0 49 16.5t30 37.5q5 15 5 33v291h152v-330q0 -31 10 -43t32 -13l-9 -105q-18 -9 -54 -9q-88 0 -111 78z"/>
<glyph glyph-name="nu" horiz-adv-x="510" unicode="ν" d="M-1 489h164l65 -227q7 -23 17 -64.5t14 -56.5h4q83 179 83 309q0 26 -1 39h143q3 -17 3 -38q0 -163 -175 -451h-147z"/>
<glyph glyph-name="xi" horiz-adv-x="472" unicode="ξ" d="M396 436v-103h-28q-83 0 -128 -31t-45 -85q0 -43 31.5 -72t100.5 -47q52 -14 127 -25q11 -2 11 -13q0 -45 -22.5 -110.5t-50.5 -101.5l-94 30q19 43 24 98q-43 7 -76.5 14.5t-76 24.5t-70 39.5t-47 60t-19.5 85.5q0 71 42.5 124t109.5 71v6q-50 19 -77 56.5t-27 86.5 q0 74 61 125.5t170 51.5q80 0 139 -27l-25 -99q-41 19 -89 19q-49 0 -76 -25t-27 -62q0 -80 128 -90q11 -1 34 -1z"/>
<glyph glyph-name="omicron" horiz-adv-x="577" unicode="ο" d="M290 392q-51 0 -75.5 -43t-24.5 -104q0 -65 26.5 -106t73.5 -41q44 0 70.5 40.5t26.5 106.5q0 61 -24.5 104t-72.5 43zM294 500q112 0 181 -69.5t69 -180.5q0 -126 -75.5 -193.5t-182.5 -67.5q-110 0 -181.5 68t-71.5 184q0 118 71.5 188.5t189.5 70.5z"/>
<glyph glyph-name="pi" horiz-adv-x="600" unicode="π" d="M569 374h-59v-221q0 -96 11 -153h-145q-17 24 -17 142v232h-106q-1 -91 -16.5 -205.5t-37.5 -168.5h-146q21 72 37 181t16 187v6q-58 0 -87 -7l-16 89q35 33 175 33h405z"/>
<glyph glyph-name="rho" horiz-adv-x="591" unicode="ρ" d="M209 232v-36q0 -15 3 -30q7 -23 32 -41.5t56 -18.5q49 0 76.5 38.5t27.5 99.5q0 59 -26 95.5t-70 36.5t-71.5 -38t-27.5 -106zM216 -198h-148q-11 38 -11 173v222q0 98 25 153.5t68 91.5q70 58 166 58q109 0 175.5 -69.5t66.5 -183.5q0 -121 -68 -189.5t-159 -68.5 q-82 0 -120 48h-2v-63q0 -134 7 -172z"/>
<glyph glyph-name="uni03C2" horiz-adv-x="458" unicode="ς" d="M444 476l-30 -107q-45 17 -87 17q-60 0 -98.5 -41.5t-38.5 -105.5q0 -99 103 -132q44 -14 140 -32q9 -1 9 -14q0 -51 -22.5 -117t-49.5 -97l-95 30q18 36 26 98q-68 16 -77 18q-85 24 -138 81.5t-53 154.5q0 110 77 190.5t210 80.5q76 0 124 -24z"/>
<glyph glyph-name="sigma" horiz-adv-x="594" unicode="σ" d="M288 98q44 0 70.5 41t26.5 107q0 60 -23.5 103t-70.5 43q-51 0 -76 -43t-25 -104q0 -65 26 -106t72 -41zM585 500l-7 -110q-37 0 -106 7l-1 -5q31 -28 47.5 -69t16.5 -81q0 -124 -72 -188.5t-177 -64.5q-110 0 -181.5 67t-71.5 183q0 119 73 190t198 71h281z"/>
<glyph glyph-name="tau" horiz-adv-x="452" unicode="τ" d="M364 106l-6 -106q-24 -11 -70 -11q-79 0 -112 42t-33 131v212h-41q-55 0 -92 -7l-19 90q45 32 172 32h280l-15 -115h-133v-202q0 -66 50 -66h19z"/>
<glyph glyph-name="upsilon" horiz-adv-x="558" unicode="υ" d="M341 489h142q37 -79 37 -186q0 -61 -13 -114t-40.5 -99.5t-78 -73.5t-118.5 -27q-96 0 -156.5 54t-60.5 157v127q0 124 -12 162h149q15 -16 15 -95v-184q0 -47 22 -72.5t55 -25.5q45 0 67 50.5t22 130.5q0 58 -10 114.5t-20 81.5z"/>
<glyph glyph-name="phi" horiz-adv-x="711" unicode="φ" d="M426 357v-265q48 9 77.5 51t29.5 110q0 60 -25 102t-56 42q-26 0 -26 -40zM212 500l57 -82q-85 -58 -85 -167q0 -62 29 -104.5t78 -53.5v233q0 88 46.5 131t114.5 43q90 0 157.5 -68.5t67.5 -175.5q0 -116 -75.5 -186.5t-175.5 -80.5v-187h-135v187q-50 4 -95 21.5 t-82 47.5t-59 79t-22 111q0 95 57 162.5t122 89.5z"/>
<glyph glyph-name="chi" horiz-adv-x="504" unicode="χ" d="M5 489h163l95 -221h4q14 39 35 86l56 135h145l-169 -332l169 -349l-144 -34l-115 256l-5 -1q-3 -8 -15.5 -39t-22.5 -54l-72 -162l-129 35l173 348z"/>
<glyph glyph-name="psi" horiz-adv-x="726" unicode="ψ" d="M301 -198v187q-245 17 -245 268v108q0 87 -7 124h138q14 -17 14 -95v-126q0 -164 101 -173v522h134v-522q35 1 60.5 29t36.5 70t11 94q0 67 -10 123t-21 78h135q40 -70 40 -191q0 -58 -13.5 -109.5t-42 -95.5t-78.5 -72t-117 -32v-187h-136z"/>
<glyph glyph-name="omega" horiz-adv-x="733" unicode="ω" d="M437 372l-3 -176q0 -35 13 -57.5t36 -22.5q30 0 49.5 39.5t19.5 111.5q0 63 -18 122.5t-51 97.5v2h138q31 -30 55 -91.5t24 -136.5q0 -127 -58 -199.5t-146 -72.5q-43 0 -78.5 20.5t-51.5 56.5h-5q-45 -77 -131 -77q-82 0 -139.5 67.5t-57.5 191.5q0 78 23.5 140.5 t57.5 100.5h137v-2q-71 -91 -71 -229q0 -69 20.5 -105.5t48.5 -36.5q22 0 35 22.5t12 56.5l-2 177h143z"/>
<glyph glyph-name="iotadieresis" horiz-adv-x="280" unicode="ϊ" d="M213 489v-337q0 -47 38 -47h8l-8 -106q-22 -10 -64 -10q-63 0 -94.5 33t-31.5 116v351h152zM244 547q-30 0 -49 20t-19 49q0 30 19.5 49.5t48.5 19.5t48.5 -19.5t19.5 -49.5q0 -29 -19 -49t-49 -20zM40 547q-30 0 -50 20t-20 49q0 30 20 49.5t50 19.5q29 0 47.5 -19.5 t18.5 -49.5q0 -29 -19 -49t-47 -20z"/>
<glyph glyph-name="upsilondieresis" horiz-adv-x="558" unicode="ϋ" d="M341 489h142q37 -79 37 -186q0 -61 -13 -114t-40.5 -99.5t-78 -73.5t-118.5 -27q-96 0 -156.5 54t-60.5 157v127q0 124 -12 162h149q15 -16 15 -95v-184q0 -47 22 -72.5t55 -25.5q45 0 67 50.5t22 130.5q0 58 -10 114.5t-20 81.5zM374 547q-30 0 -49 20t-19 49 q0 30 19.5 49.5t49.5 19.5q29 0 48 -19.5t19 -49.5q0 -29 -19 -49t-49 -20zM170 547q-30 0 -50 20t-20 49q0 30 20 49.5t50 19.5q29 0 47.5 -19.5t18.5 -49.5q0 -29 -19 -49t-47 -20z"/>
<glyph glyph-name="omicrontonos" horiz-adv-x="577" unicode="ό" d="M290 392q-51 0 -75.5 -43t-24.5 -104q0 -65 26.5 -106t73.5 -41q44 0 70.5 40.5t26.5 106.5q0 61 -24.5 104t-72.5 43zM294 500q112 0 181 -69.5t69 -180.5q0 -126 -75.5 -193.5t-182.5 -67.5q-110 0 -181.5 68t-71.5 184q0 118 71.5 188.5t189.5 70.5zM283 700h133 l-81 -152h-98z"/>
<glyph glyph-name="upsilontonos" horiz-adv-x="558" unicode="ύ" d="M341 489h142q37 -79 37 -186q0 -61 -13 -114t-40.5 -99.5t-78 -73.5t-118.5 -27q-96 0 -156.5 54t-60.5 157v127q0 124 -12 162h149q15 -16 15 -95v-184q0 -47 22 -72.5t55 -25.5q45 0 67 50.5t22 130.5q0 58 -10 114.5t-20 81.5zM266 701h136l-81 -152h-101z"/>
<glyph glyph-name="omegatonos" horiz-adv-x="733" unicode="ώ" d="M437 372l-3 -176q0 -35 13 -57.5t36 -22.5q30 0 49.5 39.5t19.5 111.5q0 63 -18 122.5t-51 97.5v2h138q31 -30 55 -91.5t24 -136.5q0 -127 -58 -199.5t-146 -72.5q-43 0 -78.5 20.5t-51.5 56.5h-5q-45 -77 -131 -77q-82 0 -139.5 67.5t-57.5 191.5q0 78 23.5 140.5 t57.5 100.5h137v-2q-71 -91 -71 -229q0 -69 20.5 -105.5t48.5 -36.5q22 0 35 22.5t12 56.5l-2 177h143zM360 700h134l-81 -152h-99z"/>
<glyph glyph-name="uni0401" horiz-adv-x="534" unicode="Ё" d="M376 713q-30 0 -49.5 20t-19.5 48q0 29 20 49t49 20q28 0 47.5 -20t19.5 -49q0 -28 -19.5 -48t-47.5 -20zM169 713q-30 0 -50 20t-20 48q0 29 20.5 49t49.5 20q28 0 47 -20t19 -49q0 -28 -19 -48t-47 -20zM467 409v-124h-248v-160h277v-125h-430v674h416v-125h-263v-140 h248z"/>
<glyph glyph-name="uni0402" horiz-adv-x="722" unicode="Ђ" d="M15 674h560v-125h-233v-126h3q50 28 118 28q102 0 165 -80q59 -74 59 -199q0 -94 -37 -165t-106 -107q-56 -43 -124 -52l-23 125q60 15 88 48q42 45 42 141q0 84 -30 125q-31 41 -82 41q-42 0 -73 -24v-304h-153v549h-174v125z"/>
<glyph glyph-name="uni0403" horiz-adv-x="489" unicode="Ѓ" d="M274 833h160l-123 -123h-122zM66 674h408v-125h-255v-549h-153v674z"/>
<glyph glyph-name="uni0404" horiz-adv-x="595" unicode="Є" d="M567 651l-31 -116q-58 27 -134 27q-86 0 -138.5 -45.5t-65.5 -116.5h306v-119h-304q7 -75 64 -121t147 -46q69 0 127 23l23 -115q-66 -33 -173 -33q-165 0 -259 93t-94 253q0 69 22.5 131t66 111.5t114 78.5t158.5 29q103 0 171 -34z"/>
<glyph glyph-name="uni0405" horiz-adv-x="540" unicode="Ѕ" d="M40 31l31 126q82 -42 169 -42q52 0 79.5 19.5t27.5 53.5q0 31 -25.5 52t-87.5 43q-185 64 -185 199q0 88 69 145.5t186 57.5q96 0 172 -34l-34 -123q-66 32 -141 32q-47 0 -72.5 -18.5t-25.5 -46.5q0 -30 27 -49t98 -46q90 -33 132.5 -81.5t42.5 -119.5q0 -90 -70 -149.5 t-202 -59.5q-55 0 -107.5 12t-83.5 29z"/>
<glyph glyph-name="uni0406" horiz-adv-x="285" unicode="І" d="M66 674h153v-674h-153v674z"/>
<glyph glyph-name="uni0407" horiz-adv-x="285" unicode="Ї" d="M247 713q-29 0 -48.5 20t-19.5 48q0 29 19.5 49t48.5 20q28 0 47.5 -20t19.5 -49q0 -28 -19 -48t-48 -20zM40 713q-30 0 -49.5 20t-19.5 48q0 29 20 49t49 20q28 0 47 -20t19 -49q0 -28 -19 -48t-47 -20zM66 674h153v-674h-153v674z"/>
<glyph glyph-name="uni0408" horiz-adv-x="411" unicode="Ј" d="M198 250v424h152v-426q0 -138 -61.5 -198.5t-178.5 -60.5q-63 0 -111 16l17 123q36 -12 78 -12q52 0 78 29.5t26 104.5z"/>
<glyph glyph-name="uni0409" horiz-adv-x="945" unicode="Љ" d="M566 322v-212q27 -3 52 -3q56 0 95 30t39 83t-37 79.5t-95 26.5q-31 0 -54 -4zM124 674h442v-240q37 5 80 5q111 0 187.5 -55t76.5 -161q0 -95 -65 -154q-85 -76 -268 -76q-94 0 -162 10v546h-142v-160q0 -144 -26.5 -234t-97.5 -132q-59 -33 -133 -33l-20 122 q47 7 78 38q50 52 50 230v294z"/>
<glyph glyph-name="uni040A" horiz-adv-x="954" unicode="Њ" d="M575 320v-209q24 -4 53 -4q58 0 95.5 29.5t37.5 82.5t-36.5 79t-93.5 26q-24 0 -56 -4zM66 674h153v-251h205v251h151v-242q46 4 83 4q112 0 186.5 -54.5t74.5 -158.5q0 -96 -65 -154q-87 -76 -267 -76q-95 0 -163 10v292h-205v-295h-153v674z"/>
<glyph glyph-name="uni040B" horiz-adv-x="730" unicode="Ћ" d="M15 674h551v-125h-225v-136h4q60 40 142 40q85 0 132 -52q50 -54 50 -160v-241h-152v221q0 58 -24 85q-22 24 -63 24q-51 0 -89 -30v-300h-152v549h-174v125z"/>
<glyph glyph-name="uni040C" horiz-adv-x="605" unicode="Ќ" d="M311 828h160l-122 -123h-122zM66 674h151v-280h13l186 280h185l-235 -299q61 -15 96 -55.5t58 -107.5q54 -161 78 -212h-164q-13 26 -52 148q-20 66 -49.5 100t-86.5 34h-29v-282h-151v674z"/>
<glyph glyph-name="uni040E" horiz-adv-x="588" unicode="Ў" d="M147 830h103q3 -61 45 -61q41 0 47 61h102q-9 -123 -151 -123q-134 0 -146 123zM3 674h172l98 -237q11 -28 27.5 -74.5t19.5 -54.5h3q4 13 16 57t21 74l73 235h160l-126 -327q-79 -202 -133 -269q-71 -89 -179 -89q-45 0 -75 11l11 122q20 -5 50 -5q33 0 57 18.5t34 44.5 q3 6 3 12q0 7 -5 19z"/>
<glyph glyph-name="uni040F" horiz-adv-x="674" unicode="Џ" d="M66 674h153v-549h237v549h152v-674h-200l-8 -184h-125l-8 184h-201v674z"/>
<glyph glyph-name="uni0410" horiz-adv-x="656" unicode="А" d="M245 287h149l-42 143q-9 30 -34 130h-2q-3 -13 -14 -60.5t-17 -69.5zM416 173h-193l-48 -173h-158l206 674h200l209 -674h-164z"/>
<glyph glyph-name="uni0411" horiz-adv-x="603" unicode="Б" d="M217 322v-211q23 -4 59 -4q61 0 99 35q33 30 33 78t-36 76q-39 30 -101 30q-29 0 -54 -4zM66 674h448v-124h-296v-116q38 5 82 5q116 0 190 -55q78 -56 78 -161q0 -95 -64 -152q-87 -78 -274 -78q-96 0 -164 10v671z"/>
<glyph glyph-name="uni0412" horiz-adv-x="604" unicode="В" d="M217 298v-190q15 -2 59 -2q57 0 93.5 23.5t36.5 73.5q0 48 -38 71.5t-99 23.5h-52zM217 564v-157h50q59 0 91 22.5t32 60.5q0 78 -108 78q-39 0 -65 -4zM66 3v662q70 14 197 14q135 0 199 -38q81 -43 81 -132q0 -47 -28 -85.5t-83 -58.5v-2q60 -16 97 -59.5t37 -106.5 q0 -86 -70 -143q-77 -61 -265 -61q-97 0 -165 10z"/>
<glyph glyph-name="uni0413" horiz-adv-x="489" unicode="Г" d="M66 674h408v-125h-255v-549h-153v674z"/>
<glyph glyph-name="uni0414" horiz-adv-x="688" unicode="Д" d="M301 550v-90q0 -120 -30 -222q-19 -63 -47 -114h224v426h-147zM160 674h441v-554l67 -4l-7 -287h-116l-8 171h-394l-8 -171h-116l-6 287l56 4q43 77 64 150q27 97 27 224v180z"/>
<glyph glyph-name="uni0415" horiz-adv-x="534" unicode="Е" d="M467 409v-124h-248v-160h277v-125h-430v674h416v-125h-263v-140h248z"/>
<glyph glyph-name="uni0416" horiz-adv-x="875" unicode="Ж" d="M5 674h178l167 -280h14v280h146v-280h14l168 280h177l-230 -301q64 -7 102 -49.5t62 -114.5q8 -23 20.5 -66.5t24 -78.5t24.5 -64h-154q-12 26 -48 149q-19 64 -49 98.5t-87 34.5h-24v-282h-146v282h-25q-56 0 -86 -34.5t-49 -98.5q-36 -123 -48 -149h-154q13 30 25 63 t26 79t20 63q23 72 60.5 114.5t101.5 53.5z"/>
<glyph glyph-name="uni0417" horiz-adv-x="544" unicode="З" d="M77 522l-36 109q91 54 210 54q109 0 172 -48.5t63 -124.5q0 -61 -37 -102.5t-98 -56.5v-2q67 -9 112.5 -52t45.5 -108q0 -54 -25 -94.5t-67 -63t-89 -33.5t-97 -11q-120 0 -202 47l32 117q27 -14 73.5 -27t89.5 -13q58 0 91 23t33 65q0 90 -141 90h-64v112h63q53 0 87 23 t34 62q0 34 -27 54t-75 20q-68 0 -148 -40z"/>
<glyph glyph-name="uni0418" horiz-adv-x="690" unicode="И" d="M66 674h140v-200q0 -185 -8 -305h4q52 118 120 240l145 265h156v-674h-140v199q0 176 11 284h-3q-47 -121 -114 -240l-137 -243h-174v674z"/>
<glyph glyph-name="uni0419" horiz-adv-x="690" unicode="Й" d="M196 828h104q2 -61 44 -61q41 0 47 61h102q-9 -123 -151 -123q-134 0 -146 123zM66 674h140v-200q0 -185 -8 -305h4q52 118 120 240l145 265h156v-674h-140v199q0 176 11 284h-3q-47 -121 -114 -240l-137 -243h-174v674z"/>
<glyph glyph-name="uni041A" horiz-adv-x="605" unicode="К" d="M66 674h151v-280h13l186 280h185l-235 -299q61 -15 96 -55.5t58 -107.5q54 -161 78 -212h-164q-13 26 -52 148q-20 66 -49.5 100t-86.5 34h-29v-282h-151v674z"/>
<glyph glyph-name="uni041B" horiz-adv-x="645" unicode="Л" d="M124 674h454v-674h-152v549h-153v-160q0 -144 -26.5 -234t-97.5 -132q-59 -33 -134 -33l-19 123q49 6 77 36q51 52 51 230v295z"/>
<glyph glyph-name="uni041C" horiz-adv-x="846" unicode="М" d="M646 0l-10 258q-6 162 -6 277h-3q-31 -128 -75 -261l-82 -263h-119l-72 261q-38 136 -61 263h-2q-1 -12 -5 -120.5t-7 -158.5l-12 -256h-141l43 674h203l66 -225q38 -142 57 -241h3q34 140 64 242l72 224h199l37 -674h-149z"/>
<glyph glyph-name="uni041D" horiz-adv-x="689" unicode="Н" d="M66 674h153v-259h251v259h152v-674h-152v282h-251v-282h-153v674z"/>
<glyph glyph-name="uni041E" horiz-adv-x="717" unicode="О" d="M359 564q-76 0 -119.5 -64t-43.5 -165q0 -100 44.5 -162.5t119.5 -62.5t118.5 64t43.5 165q0 95 -43.5 160t-119.5 65zM363 685q150 0 235 -97.5t85 -243.5q0 -164 -91 -259.5t-240 -95.5q-146 0 -231.5 97.5t-85.5 245.5q0 154 90.5 253.5t237.5 99.5z"/>
<glyph glyph-name="uni041F" horiz-adv-x="677" unicode="П" d="M66 674h545v-674h-153v549h-239v-549h-153v674z"/>
<glyph glyph-name="uni0420" horiz-adv-x="581" unicode="Р" d="M217 558v-199q17 -4 51 -4q61 0 96 29t35 81q0 47 -31 73t-88 26q-41 0 -63 -6zM66 0v665q82 14 206 14q138 0 206 -54q72 -57 72 -156q0 -101 -62 -160q-75 -71 -219 -71q-31 0 -52 3v-241h-151z"/>
<glyph glyph-name="uni0421" horiz-adv-x="595" unicode="С" d="M538 138l23 -119q-58 -29 -173 -29q-169 0 -261 93.5t-92 243.5q0 167 104.5 262.5t263.5 95.5q108 0 166 -30l-31 -121q-60 25 -128 25q-95 0 -155 -57.5t-60 -165.5q0 -102 57.5 -161t158.5 -59q72 0 127 22z"/>
<glyph glyph-name="uni0422" horiz-adv-x="548" unicode="Т" d="M196 0v546h-181v128h518v-128h-184v-546h-153z"/>
<glyph glyph-name="uni0423" horiz-adv-x="588" unicode="У" d="M3 674h172l98 -237q11 -28 27.5 -74.5t19.5 -54.5h3q4 13 16 57t21 74l73 235h160l-126 -327q-79 -202 -133 -269q-71 -89 -179 -89q-45 0 -75 11l11 122q20 -5 50 -5q33 0 57 18.5t34 44.5q3 6 3 12q0 7 -5 19z"/>
<glyph glyph-name="uni0424" horiz-adv-x="789" unicode="Ф" d="M466 539v-400q54 6 94.5 54.5t40.5 145.5t-39.5 145t-95.5 55zM323 139v400q-53 -7 -94 -56t-41 -146q0 -91 41 -141t94 -57zM324 702h143v-59q56 -4 105.5 -23t91 -53.5t66 -93t24.5 -134.5q0 -75 -23.5 -133t-65.5 -93.5t-91.5 -54.5t-108.5 -25v-61h-143v61 q-57 4 -106.5 23t-91 53.5t-65.5 92t-24 132.5q0 76 26.5 136t70 95t92 54.5t100.5 23.5v59z"/>
<glyph glyph-name="uni0425" horiz-adv-x="613" unicode="Х" d="M597 0h-176l-61 122q-13 24 -60 121h-2q-8 -23 -52 -121l-56 -122h-174l195 341l-188 333h175l59 -123q28 -58 51 -112h2q16 44 46 112l57 123h174l-190 -329z"/>
<glyph glyph-name="uni0426" horiz-adv-x="694" unicode="Ц" d="M66 674h153v-549h236v549h152v-554l68 -4l-7 -287h-116l-8 171h-478v674z"/>
<glyph glyph-name="uni0427" horiz-adv-x="642" unicode="Ч" d="M60 674h152v-195q0 -114 113 -114q51 0 99 25v284h152v-674h-152v278h-3q-71 -35 -151 -35q-96 0 -153 52.5t-57 157.5v221z"/>
<glyph glyph-name="uni0428" horiz-adv-x="913" unicode="Ш" d="M66 674h150v-549h166v549h149v-549h167v549h149v-674h-781v674z"/>
<glyph glyph-name="uni0429" horiz-adv-x="934" unicode="Щ" d="M66 674h150v-549h166v549h149v-549h167v549h149v-554l67 -4l-7 -287h-116l-8 171h-717v674z"/>
<glyph glyph-name="uni042A" horiz-adv-x="706" unicode="Ъ" d="M333 324v-213q20 -4 55 -4q54 0 88.5 30t34.5 83t-35 80.5t-88 27.5q-23 0 -55 -4zM12 674h322v-234q47 5 81 5q106 0 181 -58t75 -161q0 -92 -55 -147q-83 -86 -269 -86q-97 0 -165 10v547h-170v124z"/>
<glyph glyph-name="uni042B" horiz-adv-x="852" unicode="Ы" d="M622 674h152v-674h-152v674zM217 324v-213q17 -4 52 -4q54 0 92.5 30t38.5 83t-39.5 80.5t-89.5 27.5q-24 0 -54 -4zM66 674h152v-235q38 6 75 6q113 0 190 -56.5t77 -164.5q0 -88 -54 -145q-85 -86 -277 -86q-95 0 -163 10v671z"/>
<glyph glyph-name="uni042C" horiz-adv-x="603" unicode="Ь" d="M217 324v-213q23 -4 57 -4q59 0 96.5 28.5t37.5 83.5t-36.5 82t-95.5 27q-21 0 -59 -4zM66 674h152v-234q52 5 82 5q116 0 192 -56t76 -163q0 -90 -54 -147q-85 -86 -283 -86q-97 0 -165 10v671z"/>
<glyph glyph-name="uni042D" horiz-adv-x="587" unicode="Э" d="M99 282v119h289q-8 71 -56.5 116t-129.5 45q-69 0 -137 -28l-30 113q87 38 179 38q168 0 253 -99t85 -250q0 -165 -99 -256t-253 -91q-103 0 -173 32l26 117q60 -24 135 -24q84 0 137 46.5t62 121.5h-288z"/>
<glyph glyph-name="uni042E" horiz-adv-x="921" unicode="Ю" d="M589 109q68 0 106.5 64.5t38.5 165.5q0 96 -38 161t-106 65q-69 0 -107.5 -65.5t-38.5 -163.5t39 -162.5t106 -64.5zM66 674h152v-263h81q21 124 99.5 199t195.5 75q137 0 215.5 -97.5t78.5 -243.5q0 -164 -83.5 -259.5t-220.5 -95.5q-123 0 -200 81.5t-89 212.5h-77 v-283h-152v674z"/>
<glyph glyph-name="uni042F" horiz-adv-x="600" unicode="Я" d="M383 377v183q-33 6 -62 6q-53 0 -86 -24t-33 -73q0 -45 36 -70t90 -25q34 0 55 3zM170 0h-162q19 30 34 76q5 14 18.5 55.5t20.5 60t22 45.5t33 44q19 19 56 35v3q-61 11 -101.5 53t-40.5 111q0 90 70 143q69 53 220 53q108 0 194 -14v-665h-151v265h-37q-44 0 -72 -26 q-15 -14 -28 -39t-20.5 -46t-17 -52.5t-14.5 -44.5q-14 -39 -24 -57z"/>
<glyph glyph-name="uni0430" horiz-adv-x="528" unicode="а" d="M321 178v53h-6q-136 0 -136 -77q0 -28 16.5 -43t43.5 -15q28 0 49.5 16t29.5 40q3 12 3 26zM476 0h-137l-9 49h-3q-49 -60 -140 -60q-71 0 -114.5 44.5t-43.5 105.5q0 92 75.5 139.5t207.5 47.5h4v7q0 63 -89 63q-76 0 -135 -37l-28 98q77 43 190 43q114 0 164.5 -58 t50.5 -153v-170q0 -81 7 -119z"/>
<glyph glyph-name="uni0431" horiz-adv-x="577" unicode="б" d="M388 240q0 58 -24 101t-75 43q-45 0 -71 -40q-26 -38 -26 -97q0 -57 25 -103t74 -46q50 0 73.5 41.5t23.5 100.5zM492 720l-8 -120q-38 -11 -116 -17q-108 -12 -154 -65q-21 -22 -35.5 -56t-17.5 -65h5q23 42 65.5 67t95.5 25q99 0 158 -66.5t59 -176.5q0 -117 -70 -187 t-181 -70q-124 0 -190 89t-66 234q0 198 105 297q71 75 204 90q113 12 146 21z"/>
<glyph glyph-name="uni0432" horiz-adv-x="552" unicode="в" d="M209 210v-123q16 -2 51 -2q104 0 104 63q0 62 -111 62h-44zM210 399v-101h39q100 0 100 53q0 52 -87 52q-18 0 -52 -4zM60 2v482q89 12 197 12q242 0 242 -125q0 -44 -29 -71t-71 -35v-2q56 -9 88.5 -40t32.5 -79q0 -151 -289 -151q-101 0 -171 9z"/>
<glyph glyph-name="uni0433" horiz-adv-x="416" unicode="г" d="M60 489h342v-118h-190v-371h-152v489z"/>
<glyph glyph-name="uni0434" horiz-adv-x="590" unicode="д" d="M258 378v-57q0 -58 -18 -127q-11 -45 -34 -83h162v267h-110zM126 489h390v-382l54 -2l-7 -263h-114l-5 158h-309l-6 -158h-115l-4 262l45 3q32 48 49 102q22 80 22 160v120z"/>
<glyph glyph-name="uni0435" horiz-adv-x="528" unicode="е" d="M177 300h180q0 37 -19.5 68t-66.5 31q-43 0 -66.5 -30.5t-27.5 -68.5zM493 196h-315q4 -45 42.5 -69t95.5 -24q72 0 135 20l20 -103q-75 -30 -177 -30q-123 0 -192 66.5t-69 182.5q0 65 25 122.5t83 98t139 40.5q110 0 164 -71t54 -173q0 -32 -5 -60z"/>
<glyph glyph-name="uni0436" horiz-adv-x="737" unicode="ж" d="M1 489h168l110 -196h16v196h147v-196h15l111 196h168l-170 -211q75 -14 114 -124q50 -138 58 -154h-152q-12 21 -42 112q-29 83 -90 83h-12v-195h-147v195h-12q-62 0 -92 -83q-34 -95 -43 -112h-150q13 26 60 153q40 112 113 125z"/>
<glyph glyph-name="uni0437" horiz-adv-x="487" unicode="з" d="M110 205v93h72q45 0 68.5 13.5t23.5 35.5q0 21 -22 34.5t-61 13.5q-62 0 -123 -35l-30 89q83 50 199 50q79 0 138.5 -31.5t59.5 -99.5q0 -44 -31.5 -71t-74.5 -37v-4q52 -6 89.5 -35t37.5 -80q0 -42 -23 -73t-61.5 -47t-77.5 -23t-81 -7q-111 0 -190 47l32 94 q59 -32 140 -34q46 0 70 14.5t24 37.5q0 55 -106 55h-73z"/>
<glyph glyph-name="uni0438" horiz-adv-x="597" unicode="и" d="M60 489h144v-150q0 -67 -8 -199l4 -1q10 23 27.5 69t28.5 71l95 210h186v-489h-144v149q0 25 9 212h-4q-27 -77 -51 -132q-18 -39 -54.5 -122t-47.5 -107h-185v489z"/>
<glyph glyph-name="uni0439" horiz-adv-x="597" unicode="й" d="M154 691h97q2 -71 46 -71t49 71h96q-4 -69 -43 -105t-104 -36q-67 0 -102 37t-39 104zM60 489h144v-150q0 -67 -8 -199l4 -1q10 23 27.5 69t28.5 71l95 210h186v-489h-144v149q0 25 9 212h-4q-27 -77 -51 -132q-18 -39 -54.5 -122t-47.5 -107h-185v489z"/>
<glyph glyph-name="uni043A" horiz-adv-x="530" unicode="к" d="M61 489h151v-195h17l123 195h178l-180 -210q74 -14 123 -135q48 -123 59 -144h-159q-11 18 -44 108q-34 86 -102 86h-15v-194h-151v489z"/>
<glyph glyph-name="uni043B" horiz-adv-x="546" unicode="л" d="M87 489h399v-489h-152v373h-106v-90q0 -96 -15 -155.5t-54 -90.5q-44 -47 -142 -47l-16 117q38 7 54 27q20 20 26 54.5t6 102.5v198z"/>
<glyph glyph-name="uni043C" horiz-adv-x="718" unicode="м" d="M44 0l34 489h194l53 -185q23 -83 32 -123h3q7 28 39 134l54 174h192l30 -489h-141l-8 196q0 14 -2 76t-3 95h-3q-44 -150 -47 -160l-65 -199h-111l-58 194q-9 34 -40 162h-4q-1 -22 -2.5 -85t-2.5 -86l-8 -193h-136z"/>
<glyph glyph-name="uni043D" horiz-adv-x="579" unicode="н" d="M60 489h152v-177h154v177h153v-489h-153v194h-154v-194h-152v489z"/>
<glyph glyph-name="uni043E" horiz-adv-x="577" unicode="о" d="M290 392q-51 0 -75.5 -43t-24.5 -104q0 -65 26.5 -106t73.5 -41q44 0 70.5 40.5t26.5 106.5q0 61 -24.5 104t-72.5 43zM294 500q112 0 181 -69.5t69 -180.5q0 -126 -75.5 -193.5t-182.5 -67.5q-110 0 -181.5 68t-71.5 184q0 118 71.5 188.5t189.5 70.5z"/>
<glyph glyph-name="uni043F" horiz-adv-x="576" unicode="п" d="M60 489h455v-489h-153v373h-150v-373h-152v489z"/>
<glyph glyph-name="uni0440" horiz-adv-x="598" unicode="р" d="M213 277v-67q0 -19 3 -32q8 -31 32.5 -51.5t56.5 -20.5q49 0 77 37.5t28 100.5q0 61 -27 99t-76 38q-32 0 -58 -21.5t-33 -55.5q-3 -12 -3 -27zM61 -198v523q0 74 -4 164h132l7 -68h2q55 79 163 79q84 0 143.5 -68t59.5 -181q0 -125 -66 -193.5t-156 -68.5q-88 0 -127 56 h-2v-243h-152z"/>
<glyph glyph-name="uni0441" horiz-adv-x="451" unicode="с" d="M410 124l18 -112q-50 -22 -136 -22q-119 0 -189 67.5t-70 182.5q0 112 74 186t206 74q65 0 116 -19l-24 -113q-34 15 -85 15q-59 0 -95 -37.5t-36 -97.5q0 -66 37.5 -102.5t96.5 -36.5q49 0 87 15z"/>
<glyph glyph-name="uni0442" horiz-adv-x="461" unicode="т" d="M12 489h437v-116h-142v-373h-153v373h-142v116z"/>
<glyph glyph-name="uni0443" horiz-adv-x="523" unicode="у" d="M6 489h169l73 -240q18 -67 24 -91h3q4 15 11.5 48t10.5 43l60 240h163l-114 -322q-50 -140 -89.5 -211t-82.5 -110q-65 -56 -147 -67l-32 129q31 5 66 26q38 20 63 61q8 11 8 22t-7 25z"/>
<glyph glyph-name="uni0444" horiz-adv-x="720" unicode="ф" d="M429 398v-307q53 12 80.5 53t27.5 101q0 59 -27.5 99.5t-80.5 53.5zM291 91v308q-54 -13 -81 -54t-27 -100q0 -61 27 -101.5t81 -52.5zM291 710h138v-213q112 -11 185 -76.5t73 -177.5q0 -113 -74 -178t-184 -73v-190h-138v189q-110 9 -184 74t-74 176q0 114 73 179.5 t185 76.5v213z"/>
<glyph glyph-name="uni0445" horiz-adv-x="519" unicode="х" d="M7 489h170l48 -81q7 -12 20 -36.5t20 -36.5h2q32 63 38 75l43 79h165l-161 -233l163 -256h-172l-49 88q-14 24 -38 74h-3l-37 -74l-46 -88h-167l166 249z"/>
<glyph glyph-name="uni0446" horiz-adv-x="589" unicode="ц" d="M60 489h152v-373h152v373h152v-382l54 -2l-7 -263h-114l-5 158h-384v489z"/>
<glyph glyph-name="uni0447" horiz-adv-x="558" unicode="ч" d="M55 489h152v-148q0 -82 73 -82q39 0 66 21v209h152v-489h-152v182h-2q-49 -31 -123 -31q-80 0 -123 45t-43 131v162z"/>
<glyph glyph-name="uni0448" horiz-adv-x="813" unicode="ш" d="M60 489h151v-373h120v373h151v-373h120v373h151v-489h-693v489z"/>
<glyph glyph-name="uni0449" horiz-adv-x="826" unicode="щ" d="M60 489h151v-373h120v373h151v-373h120v373h151v-382l54 -2l-7 -263h-114l-5 158h-621v489z"/>
<glyph glyph-name="uni044A" horiz-adv-x="650" unicode="ъ" d="M309 242v-142q39 -3 51 -3q45 0 76.5 17.5t31.5 55.5q0 29 -19 47.5t-42.5 24t-51.5 5.5q-11 0 -46 -5zM19 489h291v-144q35 5 80 5q44 0 83 -9.5t72.5 -29t53.5 -54.5t20 -82q0 -80 -67 -127q-79 -54 -231 -54q-87 0 -164 9v371h-138v115z"/>
<glyph glyph-name="uni044B" horiz-adv-x="777" unicode="ы" d="M565 489h152v-489h-152v489zM211 242v-143q28 -2 46 -2q43 0 73 18.5t30 58.5q0 38 -28.5 55.5t-67.5 17.5q-18 0 -53 -5zM60 489h152v-145q40 6 79 6q91 0 155.5 -42t64.5 -129q0 -85 -67 -130q-79 -55 -221 -55q-87 0 -163 9v486z"/>
<glyph glyph-name="uni044C" horiz-adv-x="554" unicode="ь" d="M211 242v-142q42 -3 51 -3q45 0 77.5 18t32.5 58t-34 57t-78 17q-12 0 -49 -5zM60 489h152v-145q42 6 77 6q46 0 85.5 -8.5t74 -27.5t54.5 -53t20 -81q0 -86 -67 -131q-79 -55 -233 -55q-87 0 -163 9v486z"/>
<glyph glyph-name="uni044D" horiz-adv-x="485" unicode="э" d="M83 198v96h214q-17 95 -131 95q-57 0 -109 -22l-28 97q69 36 164 36q112 0 178 -59q81 -73 81 -195q0 -117 -75.5 -187t-204.5 -70q-86 0 -150 33l23 103q47 -20 112 -20q54 0 90.5 24.5t46.5 68.5h-211z"/>
<glyph glyph-name="uni044E" horiz-adv-x="771" unicode="ю" d="M501 97q42 0 63.5 41.5t21.5 107.5q0 61 -21 103.5t-63 42.5q-43 0 -65 -43t-22 -105q0 -64 22 -105.5t64 -41.5zM60 489h151v-182h64q17 89 78.5 141t152.5 52q103 0 167.5 -69.5t64.5 -180.5q0 -124 -69.5 -192.5t-169.5 -68.5q-90 0 -152.5 55.5t-74.5 151.5h-61v-196 h-151v489z"/>
<glyph glyph-name="uni044F" horiz-adv-x="553" unicode="я" d="M343 277v122q-26 4 -52 4q-40 0 -65.5 -16t-25.5 -47q0 -30 28 -47t65 -17q13 0 29 0.5t21 0.5zM493 486v-486h-150v184h-31q-44 0 -70 -35q-9 -9 -17.5 -23.5t-13 -25.5t-12 -31.5t-10.5 -28.5q-6 -14 -19 -40h-162q13 16 30 54q1 3 9.5 24.5t13 31.5t13 27.5t16.5 30 t17 21.5q26 28 62 36v3q-48 5 -87 36t-39 85q0 80 83 119q59 29 180 29q108 0 187 -11z"/>
<glyph glyph-name="uni0451" horiz-adv-x="528" unicode="ё" d="M386 557q-30 0 -50.5 20.5t-20.5 49.5q0 31 20.5 51t50.5 20q29 0 49 -20t20 -51q0 -29 -19.5 -49.5t-49.5 -20.5zM176 557q-30 0 -51 20.5t-21 49.5q0 30 21 50.5t51 20.5q29 0 48.5 -20t19.5 -51q0 -29 -19.5 -49.5t-48.5 -20.5zM177 300h180q0 37 -19.5 68t-66.5 31 q-43 0 -66.5 -30.5t-27.5 -68.5zM493 196h-315q4 -45 42.5 -69t95.5 -24q72 0 135 20l20 -103q-75 -30 -177 -30q-123 0 -192 66.5t-69 182.5q0 65 25 122.5t83 98t139 40.5q110 0 164 -71t54 -173q0 -32 -5 -60z"/>
<glyph glyph-name="uni0452" horiz-adv-x="586" unicode="ђ" d="M1 642h73v68h152v-68h211v-100h-211v-108h2q55 53 128 53q95 0 147 -89q47 -74 47 -198q0 -229 -126 -307q-62 -39 -116 -42l-28 121q44 9 71 37q21 23 33.5 71.5t12.5 107.5q0 85 -25 132q-24 44 -66 44q-41 0 -68 -33q-12 -17 -12 -40v-291h-152v542h-73v100z"/>
<glyph glyph-name="uni0453" horiz-adv-x="416" unicode="ѓ" d="M239 702h141l-122 -152h-104zM60 489h342v-118h-190v-371h-152v489z"/>
<glyph glyph-name="uni0454" horiz-adv-x="472" unicode="є" d="M450 474l-27 -105q-44 21 -99 21t-90 -26t-43 -70h203v-96h-200q9 -46 45 -70.5t91 -24.5q50 0 99 19l22 -105q-56 -28 -147 -28q-125 0 -198 68t-73 183q0 122 82 191t206 69q82 0 129 -26z"/>
<glyph glyph-name="uni0455" horiz-adv-x="434" unicode="ѕ" d="M33 24l27 109q23 -14 61 -25.5t70 -11.5q65 0 65 41q0 19 -14.5 30.5t-57.5 25.5q-139 47 -139 145q0 71 54.5 116.5t144.5 45.5q82 0 138 -28l-27 -105q-51 28 -106 28q-58 0 -58 -40q0 -17 16.5 -28.5t62.5 -27.5q69 -24 100.5 -60t32.5 -91q0 -71 -55 -114.5 t-157 -43.5q-95 0 -158 34z"/>
<glyph glyph-name="uni0456" horiz-adv-x="274" unicode="і" d="M137 702q36 0 58 -21.5t23 -55.5q0 -32 -22.5 -54t-59.5 -22q-35 0 -57.5 22t-21.5 54q-1 33 21.5 55t58.5 22zM213 0h-152v489h152v-489z"/>
<glyph glyph-name="uni0457" horiz-adv-x="274" unicode="ї" d="M243 557q-30 0 -50.5 20.5t-20.5 49.5q0 31 20.5 51t50.5 20q29 0 49 -20t20 -51q0 -29 -19.5 -49.5t-49.5 -20.5zM33 557q-30 0 -51 20.5t-21 49.5q0 30 21 50.5t51 20.5q29 0 48.5 -20t19.5 -51q0 -29 -19.5 -49.5t-48.5 -20.5zM213 0h-152v489h152v-489z"/>
<glyph glyph-name="uni0458" horiz-adv-x="291" unicode="ј" d="M157 702q36 0 57.5 -21.5t22.5 -55.5q0 -32 -22.5 -54t-59.5 -22q-35 0 -57 22t-22 54q0 34 22 55.5t59 21.5zM-25 -209l-15 119q64 5 90 32q30 31 30 159v388h153v-424q0 -150 -69 -214q-64 -60 -189 -60z"/>
<glyph glyph-name="uni0459" horiz-adv-x="824" unicode="љ" d="M485 241v-142q28 -2 50 -2q43 0 75 17t32 57q0 39 -30.5 56.5t-71.5 17.5q-23 0 -55 -4zM89 489h397v-148q42 6 76 6q96 0 163.5 -42.5t67.5 -131.5q0 -79 -61 -123q-74 -56 -232 -56q-90 0 -166 9v370h-105v-89q0 -189 -70 -246q-45 -48 -142 -48l-16 118q35 6 54 25 q21 19 27.5 56t6.5 102v198z"/>
<glyph glyph-name="uni045A" horiz-adv-x="840" unicode="њ" d="M502 240v-140q39 -3 50 -3q43 0 74 17.5t31 55.5q0 40 -30.5 57t-73.5 17q-21 0 -51 -4zM60 489h152v-165h138v165h153v-149q40 6 77 6q94 0 161 -43t67 -131q0 -76 -61 -123q-75 -55 -231 -55q-89 0 -166 9v209h-138v-212h-152v489z"/>
<glyph glyph-name="uni045B" horiz-adv-x="598" unicode="ћ" d="M1 642h73v68h152v-68h199v-100h-199v-124h2q26 32 59 49q38 20 80 20q81 0 126 -55.5t45 -157.5v-274h-152v255q0 109 -79 109q-54 0 -76 -54q-5 -11 -5 -34v-276h-152v542h-73v100z"/>
<glyph glyph-name="uni045C" horiz-adv-x="530" unicode="ќ" d="M281 702h140l-122 -152h-104zM61 489h151v-195h17l123 195h178l-180 -210q74 -14 123 -135q48 -123 59 -144h-159q-11 18 -44 108q-34 86 -102 86h-15v-194h-151v489z"/>
<glyph glyph-name="uni045E" horiz-adv-x="523" unicode="ў" d="M6 489h169l73 -240q18 -67 24 -91h3q4 15 11.5 48t10.5 43l60 240h163l-114 -322q-50 -140 -89.5 -211t-82.5 -110q-65 -56 -147 -67l-32 129q31 5 66 26q38 20 63 61q8 11 8 22t-7 25zM118 691h96q2 -71 46 -71t49 71h96q-4 -69 -43 -105t-104 -36q-67 0 -102 37 t-38 104z"/>
<glyph glyph-name="uni045F" horiz-adv-x="576" unicode="џ" d="M60 489h153v-373h150v373h153v-489h-159l-9 -165h-121l-9 165h-158v489z"/>
<glyph glyph-name="uni0490" horiz-adv-x="492" unicode="Ґ" d="M66 674h294l16 130h109l-12 -255h-254v-549h-153v674z"/>
<glyph glyph-name="uni0491" horiz-adv-x="431" unicode="ґ" d="M60 489h234l14 119h106l-9 -237h-193v-371h-152v489z"/>
<glyph glyph-name="uni04D9" horiz-adv-x="528" unicode="ә" d="M350 189h-180q0 -35 21 -66.5t67 -31.5q44 0 66 30t26 68zM76 364l-20 102q80 34 180 34q121 0 189.5 -67t68.5 -182q0 -104 -63.5 -182.5t-180.5 -78.5q-112 0 -166.5 71t-54.5 173q0 37 6 59h314q-3 47 -38.5 70.5t-95.5 23.5q-71 0 -139 -23z"/>
<glyph glyph-name="Wgrave" horiz-adv-x="888" unicode="Ẁ" d="M274 833h160l84 -121h-122zM342 0h-167l-160 674h163l51 -278q14 -77 40 -235h2q13 84 44 237l57 276h162l54 -284q20 -104 36 -226h2q6 47 39 234l55 276h155l-174 -674h-165l-57 290q-23 119 -32 208h-2q-20 -128 -39 -208z"/>
<glyph glyph-name="wgrave" horiz-adv-x="759" unicode="ẁ" d="M228 702h141l86 -152h-104zM11 489h155l39 -200q18 -94 28 -161h2q10 56 36 160l52 201h120l49 -195q26 -110 36 -166h2q8 67 28 167l42 194h149l-150 -489h-143l-46 172q-17 68 -31 152h-2q-12 -81 -32 -152l-49 -172h-143z"/>
<glyph glyph-name="Wacute" horiz-adv-x="888" unicode="Ẃ" d="M468 833h160l-122 -123h-122zM342 0h-167l-160 674h163l51 -278q14 -77 40 -235h2q13 84 44 237l57 276h162l54 -284q20 -104 36 -226h2q6 47 39 234l55 276h155l-174 -674h-165l-57 290q-23 119 -32 208h-2q-20 -128 -39 -208z"/>
<glyph glyph-name="wacute" horiz-adv-x="759" unicode="ẃ" d="M397 702h141l-122 -152h-105zM11 489h155l39 -200q18 -94 28 -161h2q10 56 36 160l52 201h120l49 -195q26 -110 36 -166h2q8 67 28 167l42 194h149l-150 -489h-143l-46 172q-17 68 -31 152h-2q-12 -81 -32 -152l-49 -172h-143z"/>
<glyph glyph-name="Wdieresis" horiz-adv-x="888" unicode="Ẅ" d="M558 713q-29 0 -48.5 20t-19.5 48q0 29 19.5 49t48.5 20q28 0 47.5 -20t19.5 -49q0 -28 -19.5 -48t-47.5 -20zM351 713q-30 0 -50 20t-20 48q0 29 20.5 49t49.5 20q28 0 47 -20t19 -49q0 -28 -19 -48t-47 -20zM342 0h-167l-160 674h163l51 -278q14 -77 40 -235h2 q13 84 44 237l57 276h162l54 -284q20 -104 36 -226h2q6 47 39 234l55 276h155l-174 -674h-165l-57 290q-23 119 -32 208h-2q-20 -128 -39 -208z"/>
<glyph glyph-name="wdieresis" horiz-adv-x="759" unicode="ẅ" d="M485 557q-30 0 -50.5 20.5t-20.5 49.5q0 31 20.5 51t50.5 20q29 0 49 -20t20 -51q0 -29 -19.5 -49.5t-49.5 -20.5zM275 557q-30 0 -51 20.5t-21 49.5q0 30 21 50.5t51 20.5q29 0 48.5 -20t19.5 -51q0 -29 -19.5 -49.5t-48.5 -20.5zM11 489h155l39 -200q18 -94 28 -161h2 q10 56 36 160l52 201h120l49 -195q26 -110 36 -166h2q8 67 28 167l42 194h149l-150 -489h-143l-46 172q-17 68 -31 152h-2q-12 -81 -32 -152l-49 -172h-143z"/>
<glyph glyph-name="uni1EA0" horiz-adv-x="656" unicode="Ạ" d="M322 -80q29 0 48.5 -20t19.5 -51q0 -29 -19.5 -49.5t-49.5 -20.5t-50.5 20.5t-20.5 49.5q0 31 20.5 51t51.5 20zM245 287h149l-42 143q-9 30 -34 130h-2q-3 -13 -14 -60.5t-17 -69.5zM416 173h-193l-48 -173h-158l206 674h200l209 -674h-164z"/>
<glyph glyph-name="uni1EA1" horiz-adv-x="528" unicode="ạ" d="M266 -80q29 0 48 -20t19 -51q0 -29 -19.5 -49.5t-49.5 -20.5t-50 20.5t-20 49.5q0 31 20.5 51t51.5 20zM321 178v53h-6q-136 0 -136 -77q0 -28 16.5 -43t43.5 -15q28 0 49.5 16t29.5 40q3 12 3 26zM476 0h-137l-9 49h-3q-49 -60 -140 -60q-71 0 -114.5 44.5t-43.5 105.5 q0 92 75.5 139.5t207.5 47.5h4v7q0 63 -89 63q-76 0 -135 -37l-28 98q77 43 190 43q114 0 164.5 -58t50.5 -153v-170q0 -81 7 -119z"/>
<glyph glyph-name="uni1EA2" horiz-adv-x="656" unicode="Ả" d="M363 706l-70 15q7 21 28 45t21 41q0 13 -8.5 21.5t-20.5 8.5q-23 0 -45 -34l-48 29q40 79 122 79q40 0 68.5 -25t28.5 -60q0 -26 -12.5 -44t-33 -37.5t-30.5 -38.5zM245 287h149l-42 143q-9 30 -34 130h-2q-3 -13 -14 -60.5t-17 -69.5zM416 173h-193l-48 -173h-158 l206 674h200l209 -674h-164z"/>
<glyph glyph-name="uni1EA3" horiz-adv-x="528" unicode="ả" d="M291 527l-73 16q6 23 30 51t24 47q0 15 -9 24t-21 9q-23 0 -43 -34l-50 30q39 79 121 79q42 0 71 -24.5t29 -62.5t-36.5 -79.5t-42.5 -55.5zM321 178v53h-6q-136 0 -136 -77q0 -28 16.5 -43t43.5 -15q28 0 49.5 16t29.5 40q3 12 3 26zM476 0h-137l-9 49h-3 q-49 -60 -140 -60q-71 0 -114.5 44.5t-43.5 105.5q0 92 75.5 139.5t207.5 47.5h4v7q0 63 -89 63q-76 0 -135 -37l-28 98q77 43 190 43q114 0 164.5 -58t50.5 -153v-170q0 -81 7 -119z"/>
<glyph glyph-name="uni1EA4" horiz-adv-x="656" unicode="Ấ" d="M497 915h131l-134 -114h-73zM276 833h106l90 -123h-98l-44 63h-2l-45 -63h-97zM245 287h149l-42 143q-9 30 -34 130h-2q-3 -13 -14 -60.5t-17 -69.5zM416 173h-193l-48 -173h-158l206 674h200l209 -674h-164z"/>
<glyph glyph-name="uni1EA5" horiz-adv-x="528" unicode="ấ" d="M440 798h116l-115 -150h-77zM206 702h106l89 -152h-97l-44 87h-2l-45 -87h-97zM321 178v53h-6q-136 0 -136 -77q0 -28 16.5 -43t43.5 -15q28 0 49.5 16t29.5 40q3 12 3 26zM476 0h-137l-9 49h-3q-49 -60 -140 -60q-71 0 -114.5 44.5t-43.5 105.5q0 92 75.5 139.5 t207.5 47.5h4v7q0 63 -89 63q-76 0 -135 -37l-28 98q77 43 190 43q114 0 164.5 -58t50.5 -153v-170q0 -81 7 -119z"/>
<glyph glyph-name="uni1EA6" horiz-adv-x="656" unicode="Ầ" d="M270 833h106l90 -123h-98l-44 63h-2l-45 -63h-97zM355 901h131l65 -113h-79zM245 287h149l-42 143q-9 30 -34 130h-2q-3 -13 -14 -60.5t-17 -69.5zM416 173h-193l-48 -173h-158l206 674h200l209 -674h-164z"/>
<glyph glyph-name="uni1EA7" horiz-adv-x="528" unicode="ầ" d="M208 702h106l89 -152h-97l-44 87h-3l-44 -87h-97zM301 799h115l68 -151h-76zM321 178v53h-6q-136 0 -136 -77q0 -28 16.5 -43t43.5 -15q28 0 49.5 16t29.5 40q3 12 3 26zM476 0h-137l-9 49h-3q-49 -60 -140 -60q-71 0 -114.5 44.5t-43.5 105.5q0 92 75.5 139.5 t207.5 47.5h4v7q0 63 -89 63q-76 0 -135 -37l-28 98q77 43 190 43q114 0 164.5 -58t50.5 -153v-170q0 -81 7 -119z"/>
<glyph glyph-name="uni1EA8" horiz-adv-x="656" unicode="Ẩ" d="M509 758l-59 14q7 20 28.5 43.5t21.5 39.5q0 13 -9 21.5t-21 8.5q-26 0 -46 -36l-45 27q38 73 112 73q39 0 64.5 -22.5t25.5 -56.5q0 -30 -31.5 -62.5t-40.5 -49.5zM271 833h106l90 -123h-98l-44 63h-2l-45 -63h-97zM245 287h149l-42 143q-9 30 -34 130h-2 q-3 -13 -14 -60.5t-17 -69.5zM416 173h-193l-48 -173h-158l206 674h200l209 -674h-164z"/>
<glyph glyph-name="uni1EA9" horiz-adv-x="528" unicode="ẩ" d="M442 633l-64 14q7 20 27 42.5t20 37.5q0 13 -8.5 21t-19.5 8q-22 0 -43 -33l-44 28q38 73 113 73q38 0 64 -23.5t26 -55.5q0 -33 -32 -66t-39 -46zM206 702h106l90 -152h-97l-45 87h-2l-44 -87h-97zM321 178v53h-6q-136 0 -136 -77q0 -28 16.5 -43t43.5 -15q28 0 49.5 16 t29.5 40q3 12 3 26zM476 0h-137l-9 49h-3q-49 -60 -140 -60q-71 0 -114.5 44.5t-43.5 105.5q0 92 75.5 139.5t207.5 47.5h4v7q0 63 -89 63q-76 0 -135 -37l-28 98q77 43 190 43q114 0 164.5 -58t50.5 -153v-170q0 -81 7 -119z"/>
<glyph glyph-name="uni1EAA" horiz-adv-x="656" unicode="Ẫ" d="M258 849h-71v6q0 49 22 78t60 29q29 0 64 -20q34 -17 43 -17q12 0 18 8.5t8 31.5h70v-10q0 -105 -82 -105q-26 0 -68 22q-26 14 -39 14q-22 0 -25 -37zM268 833h114l101 -123h-107l-50 62h-2l-50 -62h-106zM245 287h149l-42 143q-9 30 -34 130h-2q-3 -13 -14 -60.5 t-17 -69.5zM416 173h-193l-48 -173h-158l206 674h200l209 -674h-164z"/>
<glyph glyph-name="uni1EAB" horiz-adv-x="528" unicode="ẫ" d="M197 697h-71v6q0 49 22 78t59 29q29 0 65 -20q32 -16 43 -16q12 0 18 8t8 31h70v-10q0 -105 -82 -105q-26 0 -68 22q-28 14 -39 14q-22 0 -25 -37zM211 680h106l95 -130h-99l-48 71h-2l-48 -71h-99zM321 178v53h-6q-136 0 -136 -77q0 -28 16.5 -43t43.5 -15q28 0 49.5 16 t29.5 40q3 12 3 26zM476 0h-137l-9 49h-3q-49 -60 -140 -60q-71 0 -114.5 44.5t-43.5 105.5q0 92 75.5 139.5t207.5 47.5h4v7q0 63 -89 63q-76 0 -135 -37l-28 98q77 43 190 43q114 0 164.5 -58t50.5 -153v-170q0 -81 7 -119z"/>
<glyph glyph-name="uni1EAC" horiz-adv-x="656" unicode="Ậ" d="M319 -217q-29 0 -49.5 20.5t-20.5 47.5q0 29 20 49t50 20q28 0 47.5 -20t19.5 -49q0 -27 -19.5 -47.5t-47.5 -20.5zM269 833h114l102 -123h-108l-50 62h-2l-50 -62h-106zM245 287h149l-42 143q-9 30 -34 130h-2q-3 -13 -14 -60.5t-17 -69.5zM416 173h-193l-48 -173h-158 l206 674h200l209 -674h-164z"/>
<glyph glyph-name="uni1EAD" horiz-adv-x="528" unicode="ậ" d="M266 -80q29 0 48 -20t19 -51q0 -29 -19.5 -49.5t-49.5 -20.5t-50 20.5t-20 49.5q0 31 20.5 51t51.5 20zM213 702h102l99 -152h-99l-50 87h-2l-50 -87h-100zM321 178v53h-6q-136 0 -136 -77q0 -28 16.5 -43t43.5 -15q28 0 49.5 16t29.5 40q3 12 3 26zM476 0h-137l-9 49h-3 q-49 -60 -140 -60q-71 0 -114.5 44.5t-43.5 105.5q0 92 75.5 139.5t207.5 47.5h4v7q0 63 -89 63q-76 0 -135 -37l-28 98q77 43 190 43q114 0 164.5 -58t50.5 -153v-170q0 -81 7 -119z"/>
<glyph glyph-name="uni1EAE" horiz-adv-x="656" unicode="Ắ" d="M345 924h135l-124 -113h-81zM183 821h69q13 -47 74 -47q62 0 75 47h67q-6 -52 -43.5 -87.5t-100.5 -35.5q-64 0 -99.5 34t-41.5 89zM245 287h149l-42 143q-9 30 -34 130h-2q-3 -13 -14 -60.5t-17 -69.5zM416 173h-193l-48 -173h-158l206 674h200l209 -674h-164z"/>
<glyph glyph-name="uni1EAF" horiz-adv-x="528" unicode="ắ" d="M102 671h72q5 -27 26 -43.5t54 -16.5q35 0 56 17.5t23 42.5h73q-2 -63 -44 -101.5t-109 -38.5q-68 0 -108.5 39t-42.5 101zM291 809h117l-124 -147h-79zM321 178v53h-6q-136 0 -136 -77q0 -28 16.5 -43t43.5 -15q28 0 49.5 16t29.5 40q3 12 3 26zM476 0h-137l-9 49h-3 q-49 -60 -140 -60q-71 0 -114.5 44.5t-43.5 105.5q0 92 75.5 139.5t207.5 47.5h4v7q0 63 -89 63q-76 0 -135 -37l-28 98q77 43 190 43q114 0 164.5 -58t50.5 -153v-170q0 -81 7 -119z"/>
<glyph glyph-name="uni1EB0" horiz-adv-x="656" unicode="Ằ" d="M188 821h69q13 -47 74 -47q62 0 75 47h67q-6 -52 -43.5 -87.5t-100.5 -35.5q-64 0 -99.5 34t-41.5 89zM180 924h135l69 -113h-81zM245 287h149l-42 143q-9 30 -34 130h-2q-3 -13 -14 -60.5t-17 -69.5zM416 173h-193l-48 -173h-158l206 674h200l209 -674h-164z"/>
<glyph glyph-name="uni1EB1" horiz-adv-x="528" unicode="ằ" d="M111 671h73q4 -27 25 -43.5t54 -16.5q36 0 57 17t23 43h72q-2 -63 -43.5 -101.5t-109.5 -38.5t-108.5 39t-42.5 101zM111 809h117l86 -147h-80zM321 178v53h-6q-136 0 -136 -77q0 -28 16.5 -43t43.5 -15q28 0 49.5 16t29.5 40q3 12 3 26zM476 0h-137l-9 49h-3 q-49 -60 -140 -60q-71 0 -114.5 44.5t-43.5 105.5q0 92 75.5 139.5t207.5 47.5h4v7q0 63 -89 63q-76 0 -135 -37l-28 98q77 43 190 43q114 0 164.5 -58t50.5 -153v-170q0 -81 7 -119z"/>
<glyph glyph-name="uni1EB2" horiz-adv-x="656" unicode="Ẳ" d="M189 821h69q13 -47 74 -47q62 0 75 47h67q-6 -52 -43.5 -87.5t-100.5 -35.5q-64 0 -99.5 34t-41.5 89zM354 798l-63 14q7 20 27 42.5t20 37.5q0 13 -8 21t-20 8q-23 0 -43 -33l-44 27q38 74 113 74q38 0 64 -23.5t26 -54.5q0 -25 -12 -42t-31.5 -35t-28.5 -36zM245 287 h149l-42 143q-9 30 -34 130h-2q-3 -13 -14 -60.5t-17 -69.5zM416 173h-193l-48 -173h-158l206 674h200l209 -674h-164z"/>
<glyph glyph-name="uni1EB3" horiz-adv-x="528" unicode="ẳ" d="M109 671h72q5 -27 26 -43.5t53 -16.5q36 0 57 17t23 43h72q-2 -63 -43.5 -101.5t-108.5 -38.5q-68 0 -108.5 39t-42.5 101zM284 650l-64 14q7 20 26.5 42.5t19.5 37.5q0 12 -8 20.5t-20 8.5q-23 0 -42 -33l-45 28q38 73 113 73q38 0 64.5 -23.5t26.5 -55.5q0 -24 -12 -41 t-31 -35t-28 -36zM321 178v53h-6q-136 0 -136 -77q0 -28 16.5 -43t43.5 -15q28 0 49.5 16t29.5 40q3 12 3 26zM476 0h-137l-9 49h-3q-49 -60 -140 -60q-71 0 -114.5 44.5t-43.5 105.5q0 92 75.5 139.5t207.5 47.5h4v7q0 63 -89 63q-76 0 -135 -37l-28 98q77 43 190 43 q114 0 164.5 -58t50.5 -153v-170q0 -81 7 -119z"/>
<glyph glyph-name="uni1EB4" horiz-adv-x="656" unicode="Ẵ" d="M182 821h69q13 -47 74 -47q62 0 75 47h67q-6 -52 -43.5 -87.5t-100.5 -35.5q-64 0 -99.5 34t-41.5 89zM257 850h-72q0 48 21.5 77t59.5 29q27 0 65 -19q30 -17 43 -17q12 0 18 8.5t8 31.5h70v-10q0 -106 -82 -106q-22 0 -68 22q-28 14 -39 14q-20 0 -24 -30zM245 287h149 l-42 143q-9 30 -34 130h-2q-3 -13 -14 -60.5t-17 -69.5zM416 173h-193l-48 -173h-158l206 674h200l209 -674h-164z"/>
<glyph glyph-name="uni1EB5" horiz-adv-x="528" unicode="ẵ" d="M115 672h72q4 -28 23.5 -46t50.5 -18q33 0 53.5 19t22.5 45h71q-2 -64 -41 -102.5t-106 -38.5q-68 0 -106 39t-40 102zM193 711h-72q-1 48 21 77.5t60 29.5q29 0 65 -20q30 -17 43 -17q12 0 18 8.5t8 31.5h69v-10q0 -105 -81 -105q-26 0 -68 22q-28 14 -39 14 q-20 0 -24 -31zM321 178v53h-6q-136 0 -136 -77q0 -28 16.5 -43t43.5 -15q28 0 49.5 16t29.5 40q3 12 3 26zM476 0h-137l-9 49h-3q-49 -60 -140 -60q-71 0 -114.5 44.5t-43.5 105.5q0 92 75.5 139.5t207.5 47.5h4v7q0 63 -89 63q-76 0 -135 -37l-28 98q77 43 190 43 q114 0 164.5 -58t50.5 -153v-170q0 -81 7 -119z"/>
<glyph glyph-name="uni1EB6" horiz-adv-x="656" unicode="Ặ" d="M320 -217q-29 0 -49.5 20.5t-20.5 47.5q0 29 20.5 49t50.5 20q28 0 47 -20t19 -49q0 -27 -19.5 -47.5t-47.5 -20.5zM183 848h81q6 -46 59 -46t63 46h78q-2 -58 -37 -92t-104 -34q-70 0 -104 34t-36 92zM245 287h149l-42 143q-9 30 -34 130h-2q-3 -13 -14 -60.5t-17 -69.5 zM416 173h-193l-48 -173h-158l206 674h200l209 -674h-164z"/>
<glyph glyph-name="uni1EB7" horiz-adv-x="528" unicode="ặ" d="M266 -80q29 0 48 -20t19 -51q0 -29 -19.5 -49.5t-49.5 -20.5t-50 20.5t-20 49.5q0 31 20.5 51t51.5 20zM125 692h79q9 -61 59 -61q29 0 44 17.5t17 43.5h79q-1 -65 -37 -103.5t-103 -38.5t-102 39.5t-36 102.5zM321 178v53h-6q-136 0 -136 -77q0 -28 16.5 -43t43.5 -15 q28 0 49.5 16t29.5 40q3 12 3 26zM476 0h-137l-9 49h-3q-49 -60 -140 -60q-71 0 -114.5 44.5t-43.5 105.5q0 92 75.5 139.5t207.5 47.5h4v7q0 63 -89 63q-76 0 -135 -37l-28 98q77 43 190 43q114 0 164.5 -58t50.5 -153v-170q0 -81 7 -119z"/>
<glyph glyph-name="uni1EB8" horiz-adv-x="534" unicode="Ẹ" d="M268 -217q-30 0 -50 20.5t-20 47.5q0 29 20.5 49t49.5 20q28 0 47.5 -20t19.5 -49q0 -27 -19.5 -47.5t-47.5 -20.5zM467 409v-124h-248v-160h277v-125h-430v674h416v-125h-263v-140h248z"/>
<glyph glyph-name="uni1EB9" horiz-adv-x="528" unicode="ẹ" d="M265 -80q29 0 48.5 -20t19.5 -51q0 -29 -19.5 -49.5t-49.5 -20.5t-50 20.5t-20 49.5q0 31 20.5 51t50.5 20zM177 300h180q0 37 -19.5 68t-66.5 31q-43 0 -66.5 -30.5t-27.5 -68.5zM493 196h-315q4 -45 42.5 -69t95.5 -24q72 0 135 20l20 -103q-75 -30 -177 -30 q-123 0 -192 66.5t-69 182.5q0 65 25 122.5t83 98t139 40.5q110 0 164 -71t54 -173q0 -32 -5 -60z"/>
<glyph glyph-name="uni1EBA" horiz-adv-x="534" unicode="Ẻ" d="M318 706l-70 15q7 21 28 45t21 41q0 13 -8.5 21.5t-20.5 8.5q-23 0 -45 -34l-48 29q39 79 122 79q40 0 68.5 -25t28.5 -60q0 -26 -12.5 -44t-33 -37.5t-30.5 -38.5zM467 409v-124h-248v-160h277v-125h-430v674h416v-125h-263v-140h248z"/>
<glyph glyph-name="uni1EBB" horiz-adv-x="528" unicode="ẻ" d="M290 527l-73 16q6 23 30 51t24 47q0 15 -8.5 24t-21.5 9q-23 0 -43 -34l-49 30q38 79 121 79q42 0 70.5 -24.5t28.5 -62.5t-36.5 -79.5t-42.5 -55.5zM177 300h180q0 37 -19.5 68t-66.5 31q-43 0 -66.5 -30.5t-27.5 -68.5zM493 196h-315q4 -45 42.5 -69t95.5 -24 q72 0 135 20l20 -103q-75 -30 -177 -30q-123 0 -192 66.5t-69 182.5q0 65 25 122.5t83 98t139 40.5q110 0 164 -71t54 -173q0 -32 -5 -60z"/>
<glyph glyph-name="uni1EBC" horiz-adv-x="534" unicode="Ẽ" d="M215 715h-70v8q0 58 20.5 88.5t56.5 30.5q31 0 64 -20q32 -19 44 -19q13 0 19 9.5t8 33.5h69v-9q0 -116 -79 -116q-31 0 -65 19q-36 18 -43 18q-21 0 -24 -43zM467 409v-124h-248v-160h277v-125h-430v674h416v-125h-263v-140h248z"/>
<glyph glyph-name="uni1EBD" horiz-adv-x="528" unicode="ẽ" d="M193 558h-72v10q0 57 22 89t60 32q25 0 65 -20q32 -20 42 -20q12 0 18 9.5t8 35.5h70v-12q0 -117 -82 -117q-27 0 -69 22q-29 16 -38 16q-23 0 -24 -45zM177 300h180q0 37 -19.5 68t-66.5 31q-43 0 -66.5 -30.5t-27.5 -68.5zM493 196h-315q4 -45 42.5 -69t95.5 -24 q72 0 135 20l20 -103q-75 -30 -177 -30q-123 0 -192 66.5t-69 182.5q0 65 25 122.5t83 98t139 40.5q110 0 164 -71t54 -173q0 -32 -5 -60z"/>
<glyph glyph-name="uni1EBE" horiz-adv-x="534" unicode="Ế" d="M446 915h131l-134 -114h-73zM224 833h106l91 -123h-99l-44 63h-2l-44 -63h-97zM467 409v-124h-248v-160h277v-125h-430v674h416v-125h-263v-140h248z"/>
<glyph glyph-name="uni1EBF" horiz-adv-x="528" unicode="ế" d="M463 798h117l-116 -150h-77zM229 702h106l89 -152h-97l-44 87h-2l-44 -87h-98zM177 300h180q0 37 -19.5 68t-66.5 31q-43 0 -66.5 -30.5t-27.5 -68.5zM493 196h-315q4 -45 42.5 -69t95.5 -24q72 0 135 20l20 -103q-75 -30 -177 -30q-123 0 -192 66.5t-69 182.5 q0 65 25 122.5t83 98t139 40.5q110 0 164 -71t54 -173q0 -32 -5 -60z"/>
<glyph glyph-name="uni1EC0" horiz-adv-x="534" unicode="Ề" d="M222 833h106l91 -123h-98l-45 63h-2l-44 -63h-97zM308 901h131l65 -113h-79zM467 409v-124h-248v-160h277v-125h-430v674h416v-125h-263v-140h248z"/>
<glyph glyph-name="uni1EC1" horiz-adv-x="528" unicode="ề" d="M225 702h106l89 -152h-97l-44 87h-2l-44 -87h-97zM319 799h114l69 -151h-77zM177 300h180q0 37 -19.5 68t-66.5 31q-43 0 -66.5 -30.5t-27.5 -68.5zM493 196h-315q4 -45 42.5 -69t95.5 -24q72 0 135 20l20 -103q-75 -30 -177 -30q-123 0 -192 66.5t-69 182.5 q0 65 25 122.5t83 98t139 40.5q110 0 164 -71t54 -173q0 -32 -5 -60z"/>
<glyph glyph-name="uni1EC2" horiz-adv-x="534" unicode="Ể" d="M464 758l-59 14q7 20 28 43.5t21 39.5q0 13 -8.5 21.5t-21.5 8.5q-24 0 -46 -36l-44 27q38 73 112 73q39 0 64.5 -22.5t25.5 -56.5q0 -30 -31.5 -62.5t-40.5 -49.5zM225 833h106l91 -123h-99l-44 63h-2l-44 -63h-97zM467 409v-124h-248v-160h277v-125h-430v674h416v-125 h-263v-140h248z"/>
<glyph glyph-name="uni1EC3" horiz-adv-x="528" unicode="ể" d="M457 633l-64 14q7 20 26.5 42.5t19.5 37.5q0 13 -8 21t-20 8q-23 0 -42 -33l-45 28q38 73 114 73q37 0 63.5 -23.5t26.5 -55.5q0 -25 -12 -42t-31 -34.5t-28 -35.5zM221 702h106l89 -152h-97l-44 87h-2l-45 -87h-97zM177 300h180q0 37 -19.5 68t-66.5 31 q-43 0 -66.5 -30.5t-27.5 -68.5zM493 196h-315q4 -45 42.5 -69t95.5 -24q72 0 135 20l20 -103q-75 -30 -177 -30q-123 0 -192 66.5t-69 182.5q0 65 25 122.5t83 98t139 40.5q110 0 164 -71t54 -173q0 -32 -5 -60z"/>
<glyph glyph-name="uni1EC4" horiz-adv-x="534" unicode="Ễ" d="M222 849h-71v6q0 49 22 78t60 29q29 0 64 -20q34 -17 43 -17q12 0 18 8.5t8 31.5h70v-10q0 -105 -82 -105q-26 0 -68 22q-26 14 -39 14q-22 0 -25 -37zM232 833h114l101 -123h-107l-50 62h-2l-50 -62h-106zM467 409v-124h-248v-160h277v-125h-430v674h416v-125h-263v-140 h248z"/>
<glyph glyph-name="uni1EC5" horiz-adv-x="528" unicode="ễ" d="M208 697h-72v6q0 49 22 78t60 29q29 0 64 -20q34 -16 43 -16q13 0 19 8t7 31h70v-10q0 -105 -82 -105q-25 0 -67 22q-28 14 -40 14q-21 0 -24 -37zM222 680h106l94 -130h-98l-48 71h-2l-48 -71h-99zM177 300h180q0 37 -19.5 68t-66.5 31q-43 0 -66.5 -30.5t-27.5 -68.5z M493 196h-315q4 -45 42.5 -69t95.5 -24q72 0 135 20l20 -103q-75 -30 -177 -30q-123 0 -192 66.5t-69 182.5q0 65 25 122.5t83 98t139 40.5q110 0 164 -71t54 -173q0 -32 -5 -60z"/>
<glyph glyph-name="uni1EC6" horiz-adv-x="534" unicode="Ệ" d="M278 -217q-30 0 -50 20.5t-20 47.5q0 29 20 49t50 20q28 0 47.5 -20t19.5 -49q0 -27 -19.5 -47.5t-47.5 -20.5zM220 833h114l101 -123h-107l-50 62h-2l-50 -62h-106zM467 409v-124h-248v-160h277v-125h-430v674h416v-125h-263v-140h248z"/>
<glyph glyph-name="uni1EC7" horiz-adv-x="528" unicode="ệ" d="M265 -80q29 0 48.5 -20t19.5 -51q0 -29 -19.5 -49.5t-49.5 -20.5t-50 20.5t-20 49.5q0 31 20.5 51t50.5 20zM213 702h102l99 -152h-99l-50 87h-2l-50 -87h-100zM177 300h180q0 37 -19.5 68t-66.5 31q-43 0 -66.5 -30.5t-27.5 -68.5zM493 196h-315q4 -45 42.5 -69 t95.5 -24q72 0 135 20l20 -103q-75 -30 -177 -30q-123 0 -192 66.5t-69 182.5q0 65 25 122.5t83 98t139 40.5q110 0 164 -71t54 -173q0 -32 -5 -60z"/>
<glyph glyph-name="uni1EC8" horiz-adv-x="285" unicode="Ỉ" d="M178 706l-70 15q7 21 28 45t21 41q0 13 -8.5 21.5t-21.5 8.5q-23 0 -45 -34l-48 29q41 79 122 79q40 0 68.5 -25t28.5 -60q0 -26 -12.5 -44t-32.5 -37.5t-30 -38.5zM66 674h153v-674h-153v674z"/>
<glyph glyph-name="uni1EC9" horiz-adv-x="274" unicode="ỉ" d="M163 527l-73 16q6 23 30.5 51t24.5 47q0 15 -9 24t-21 9q-21 0 -44 -34l-49 30q38 79 121 79q42 0 70.5 -24.5t28.5 -62.5t-36.5 -79.5t-42.5 -55.5zM213 0h-152v489h152v-489z"/>
<glyph glyph-name="uni1ECA" horiz-adv-x="285" unicode="Ị" d="M144 -217q-30 0 -50 20.5t-20 47.5q0 29 20 49t50 20q28 0 47.5 -20t19.5 -49q0 -27 -19.5 -47.5t-47.5 -20.5zM66 674h153v-674h-153v674z"/>
<glyph glyph-name="uni1ECB" horiz-adv-x="274" unicode="ị" d="M139 -80q29 0 48 -20t19 -51q0 -29 -19.5 -49.5t-49.5 -20.5t-50 20.5t-20 49.5q0 31 20.5 51t51.5 20zM137 702q36 0 58 -21.5t23 -55.5q0 -32 -22.5 -54t-59.5 -22q-35 0 -57.5 22t-21.5 54q-1 33 21.5 55t58.5 22zM213 0h-152v489h152v-489z"/>
<glyph glyph-name="uni1ECC" horiz-adv-x="717" unicode="Ọ" d="M360 -217q-30 0 -50 20.5t-20 47.5q0 29 20.5 49t49.5 20q28 0 47.5 -20t19.5 -49q0 -27 -19.5 -47.5t-47.5 -20.5zM359 564q-76 0 -119.5 -64t-43.5 -165q0 -100 44.5 -162.5t119.5 -62.5t118.5 64t43.5 165q0 95 -43.5 160t-119.5 65zM363 685q150 0 235 -97.5 t85 -243.5q0 -164 -91 -259.5t-240 -95.5q-146 0 -231.5 97.5t-85.5 245.5q0 154 90.5 253.5t237.5 99.5z"/>
<glyph glyph-name="uni1ECD" horiz-adv-x="577" unicode="ọ" d="M290 -80q29 0 48.5 -20t19.5 -51q0 -29 -19.5 -49.5t-49.5 -20.5t-50.5 20.5t-20.5 49.5q0 31 20.5 51t51.5 20zM290 392q-51 0 -75.5 -43t-24.5 -104q0 -65 26.5 -106t73.5 -41q44 0 70.5 40.5t26.5 106.5q0 61 -24.5 104t-72.5 43zM294 500q112 0 181 -69.5t69 -180.5 q0 -126 -75.5 -193.5t-182.5 -67.5q-110 0 -181.5 68t-71.5 184q0 118 71.5 188.5t189.5 70.5z"/>
<glyph glyph-name="uni1ECE" horiz-adv-x="717" unicode="Ỏ" d="M394 706l-70 15q7 21 28 45t21 41q0 13 -8.5 21.5t-21.5 8.5q-21 0 -45 -34l-48 29q41 79 122 79q41 0 69.5 -25t28.5 -60q0 -26 -12.5 -44t-33 -37.5t-30.5 -38.5zM359 564q-76 0 -119.5 -64t-43.5 -165q0 -100 44.5 -162.5t119.5 -62.5t118.5 64t43.5 165 q0 95 -43.5 160t-119.5 65zM363 685q150 0 235 -97.5t85 -243.5q0 -164 -91 -259.5t-240 -95.5q-146 0 -231.5 97.5t-85.5 245.5q0 154 90.5 253.5t237.5 99.5z"/>
<glyph glyph-name="uni1ECF" horiz-adv-x="577" unicode="ỏ" d="M315 527l-73 16q6 23 30 51t24 47q0 15 -9 24t-21 9q-23 0 -43 -34l-50 30q39 79 121 79q42 0 71 -24.5t29 -62.5t-36.5 -79.5t-42.5 -55.5zM290 392q-51 0 -75.5 -43t-24.5 -104q0 -65 26.5 -106t73.5 -41q44 0 70.5 40.5t26.5 106.5q0 61 -24.5 104t-72.5 43zM294 500 q112 0 181 -69.5t69 -180.5q0 -126 -75.5 -193.5t-182.5 -67.5q-110 0 -181.5 68t-71.5 184q0 118 71.5 188.5t189.5 70.5z"/>
<glyph glyph-name="uni1ED0" horiz-adv-x="717" unicode="Ố" d="M536 915h130l-134 -114h-72zM314 833h106l90 -123h-98l-44 63h-2l-44 -63h-98zM359 564q-76 0 -119.5 -64t-43.5 -165q0 -100 44.5 -162.5t119.5 -62.5t118.5 64t43.5 165q0 95 -43.5 160t-119.5 65zM363 685q150 0 235 -97.5t85 -243.5q0 -164 -91 -259.5t-240 -95.5 q-146 0 -231.5 97.5t-85.5 245.5q0 154 90.5 253.5t237.5 99.5z"/>
<glyph glyph-name="uni1ED1" horiz-adv-x="577" unicode="ố" d="M474 798h117l-116 -150h-77zM240 702h106l89 -152h-97l-44 87h-2l-44 -87h-98zM290 392q-51 0 -75.5 -43t-24.5 -104q0 -65 26.5 -106t73.5 -41q44 0 70.5 40.5t26.5 106.5q0 61 -24.5 104t-72.5 43zM294 500q112 0 181 -69.5t69 -180.5q0 -126 -75.5 -193.5 t-182.5 -67.5q-110 0 -181.5 68t-71.5 184q0 118 71.5 188.5t189.5 70.5z"/>
<glyph glyph-name="uni1ED2" horiz-adv-x="717" unicode="Ồ" d="M310 833h106l90 -123h-98l-44 63h-2l-45 -63h-97zM395 901h131l65 -113h-79zM359 564q-76 0 -119.5 -64t-43.5 -165q0 -100 44.5 -162.5t119.5 -62.5t118.5 64t43.5 165q0 95 -43.5 160t-119.5 65zM363 685q150 0 235 -97.5t85 -243.5q0 -164 -91 -259.5t-240 -95.5 q-146 0 -231.5 97.5t-85.5 245.5q0 154 90.5 253.5t237.5 99.5z"/>
<glyph glyph-name="uni1ED3" horiz-adv-x="577" unicode="ồ" d="M241 702h106l90 -152h-97l-45 87h-2l-44 -87h-97zM335 799h114l69 -151h-77zM290 392q-51 0 -75.5 -43t-24.5 -104q0 -65 26.5 -106t73.5 -41q44 0 70.5 40.5t26.5 106.5q0 61 -24.5 104t-72.5 43zM294 500q112 0 181 -69.5t69 -180.5q0 -126 -75.5 -193.5t-182.5 -67.5 q-110 0 -181.5 68t-71.5 184q0 118 71.5 188.5t189.5 70.5z"/>
<glyph glyph-name="uni1ED4" horiz-adv-x="717" unicode="Ổ" d="M555 758l-59 14q7 20 28.5 43.5t21.5 39.5q0 13 -9 21.5t-21 8.5q-26 0 -46 -36l-45 27q38 73 112 73q39 0 64.5 -22.5t25.5 -56.5q0 -23 -11.5 -39.5t-31 -35t-29.5 -37.5zM317 833h106l90 -123h-98l-44 63h-2l-44 -63h-98zM359 564q-76 0 -119.5 -64t-43.5 -165 q0 -100 44.5 -162.5t119.5 -62.5t118.5 64t43.5 165q0 95 -43.5 160t-119.5 65zM363 685q150 0 235 -97.5t85 -243.5q0 -164 -91 -259.5t-240 -95.5q-146 0 -231.5 97.5t-85.5 245.5q0 154 90.5 253.5t237.5 99.5z"/>
<glyph glyph-name="uni1ED5" horiz-adv-x="577" unicode="ổ" d="M473 633l-64 14q7 20 26.5 42.5t19.5 37.5q0 13 -8 21t-20 8q-23 0 -42 -33l-45 28q38 73 114 73q37 0 63.5 -23.5t26.5 -55.5q0 -25 -12 -42t-31 -34.5t-28 -35.5zM237 702h106l89 -152h-97l-44 87h-2l-45 -87h-97zM290 392q-51 0 -75.5 -43t-24.5 -104q0 -65 26.5 -106 t73.5 -41q44 0 70.5 40.5t26.5 106.5q0 61 -24.5 104t-72.5 43zM294 500q112 0 181 -69.5t69 -180.5q0 -126 -75.5 -193.5t-182.5 -67.5q-110 0 -181.5 68t-71.5 184q0 118 71.5 188.5t189.5 70.5z"/>
<glyph glyph-name="uni1ED6" horiz-adv-x="717" unicode="Ỗ" d="M295 849h-72q-1 52 21.5 82.5t60.5 30.5q29 0 64 -20q36 -17 44 -17q12 0 18 8.5t8 31.5h69v-10q0 -105 -82 -105q-25 0 -67 22q-28 14 -40 14q-21 0 -24 -37zM304 833h114l101 -123h-107l-50 62h-2l-50 -62h-106zM359 564q-76 0 -119.5 -64t-43.5 -165 q0 -100 44.5 -162.5t119.5 -62.5t118.5 64t43.5 165q0 95 -43.5 160t-119.5 65zM363 685q150 0 235 -97.5t85 -243.5q0 -164 -91 -259.5t-240 -95.5q-146 0 -231.5 97.5t-85.5 245.5q0 154 90.5 253.5t237.5 99.5z"/>
<glyph glyph-name="uni1ED7" horiz-adv-x="577" unicode="ỗ" d="M221 697h-71v6q0 49 22 78t59 29q29 0 65 -20q32 -16 43 -16q12 0 18 8t8 31h69v-11q0 -104 -81 -104q-26 0 -68 22q-28 14 -39 14q-22 0 -25 -37zM235 680h106l94 -130h-98l-48 71h-2l-48 -71h-99zM290 392q-51 0 -75.5 -43t-24.5 -104q0 -65 26.5 -106t73.5 -41 q44 0 70.5 40.5t26.5 106.5q0 61 -24.5 104t-72.5 43zM294 500q112 0 181 -69.5t69 -180.5q0 -126 -75.5 -193.5t-182.5 -67.5q-110 0 -181.5 68t-71.5 184q0 118 71.5 188.5t189.5 70.5z"/>
<glyph glyph-name="uni1ED8" horiz-adv-x="717" unicode="Ộ" d="M360 -217q-30 0 -50 20.5t-20 47.5q0 29 20.5 49t49.5 20q28 0 47.5 -20t19.5 -49q0 -27 -19.5 -47.5t-47.5 -20.5zM302 833h114l101 -123h-107l-50 62h-2l-50 -62h-107zM359 564q-76 0 -119.5 -64t-43.5 -165q0 -100 44.5 -162.5t119.5 -62.5t118.5 64t43.5 165 q0 95 -43.5 160t-119.5 65zM363 685q150 0 235 -97.5t85 -243.5q0 -164 -91 -259.5t-240 -95.5q-146 0 -231.5 97.5t-85.5 245.5q0 154 90.5 253.5t237.5 99.5z"/>
<glyph glyph-name="uni1ED9" horiz-adv-x="577" unicode="ộ" d="M290 -80q29 0 48.5 -20t19.5 -51q0 -29 -19.5 -49.5t-49.5 -20.5t-50.5 20.5t-20.5 49.5q0 31 20.5 51t51.5 20zM237 702h102l99 -152h-99l-50 87h-2l-50 -87h-100zM290 392q-51 0 -75.5 -43t-24.5 -104q0 -65 26.5 -106t73.5 -41q44 0 70.5 40.5t26.5 106.5 q0 61 -24.5 104t-72.5 43zM294 500q112 0 181 -69.5t69 -180.5q0 -126 -75.5 -193.5t-182.5 -67.5q-110 0 -181.5 68t-71.5 184q0 118 71.5 188.5t189.5 70.5z"/>
<glyph glyph-name="uni1EDA" horiz-adv-x="717" unicode="Ớ" d="M378 833h160l-122 -123h-122zM600 743l108 19q24 -48 24 -102q0 -48 -26.5 -78.5t-78.5 -31.5q56 -89 56 -206q0 -164 -91 -259.5t-240 -95.5q-146 0 -231.5 97.5t-85.5 245.5q0 154 90.5 253.5t237.5 99.5q61 0 123 -20q11 -4 32.5 -14t38 -15.5t28.5 -5.5q37 0 37 40 q0 34 -22 73zM360 110q75 0 118.5 64t43.5 165q0 95 -43.5 160t-119.5 65t-119.5 -66t-43.5 -165q0 -97 44.5 -160t119.5 -63z"/>
<glyph glyph-name="uni1EDB" horiz-adv-x="588" unicode="ớ" d="M304 702h141l-122 -152h-105zM478 566l106 18q23 -46 23 -94q0 -46 -25.5 -73.5t-71.5 -32.5q34 -58 34 -134q0 -126 -75.5 -193.5t-182.5 -67.5q-110 0 -181.5 68t-71.5 184q0 118 71.5 188.5t189.5 70.5q47 0 89 -13q4 -1 35.5 -14t45.5 -13q35 0 35 36q0 33 -21 70z M290 392q-51 0 -75.5 -43t-24.5 -104q0 -65 26.5 -106t73.5 -41q44 0 70.5 40.5t26.5 106.5q0 61 -24.5 104t-72.5 43z"/>
<glyph glyph-name="uni1EDC" horiz-adv-x="717" unicode="Ờ" d="M195 833h160l84 -121h-121zM600 743l108 19q24 -48 24 -102q0 -48 -26.5 -78.5t-78.5 -31.5q56 -89 56 -206q0 -164 -91 -259.5t-240 -95.5q-146 0 -231.5 97.5t-85.5 245.5q0 154 90.5 253.5t237.5 99.5q61 0 123 -20q11 -4 32.5 -14t38 -15.5t28.5 -5.5q37 0 37 40 q0 34 -22 73zM360 110q75 0 118.5 64t43.5 165q0 95 -43.5 160t-119.5 65t-119.5 -66t-43.5 -165q0 -97 44.5 -160t119.5 -63z"/>
<glyph glyph-name="uni1EDD" horiz-adv-x="588" unicode="ờ" d="M137 702h140l86 -152h-104zM478 566l106 18q23 -46 23 -94q0 -46 -25.5 -73.5t-71.5 -32.5q34 -58 34 -134q0 -126 -75.5 -193.5t-182.5 -67.5q-110 0 -181.5 68t-71.5 184q0 118 71.5 188.5t189.5 70.5q47 0 89 -13q4 -1 35.5 -14t45.5 -13q35 0 35 36q0 33 -21 70z M290 392q-51 0 -75.5 -43t-24.5 -104q0 -65 26.5 -106t73.5 -41q44 0 70.5 40.5t26.5 106.5q0 61 -24.5 104t-72.5 43z"/>
<glyph glyph-name="uni1EDE" horiz-adv-x="717" unicode="Ở" d="M394 706l-70 15q7 21 28 45t21 41q0 13 -8.5 21.5t-21.5 8.5q-21 0 -45 -34l-48 29q41 79 122 79q41 0 69.5 -25t28.5 -60q0 -26 -12.5 -44t-33 -37.5t-30.5 -38.5zM600 743l108 19q24 -48 24 -102q0 -48 -26.5 -78.5t-78.5 -31.5q56 -89 56 -206q0 -164 -91 -259.5 t-240 -95.5q-146 0 -231.5 97.5t-85.5 245.5q0 154 90.5 253.5t237.5 99.5q61 0 123 -20q11 -4 32.5 -14t38 -15.5t28.5 -5.5q37 0 37 40q0 34 -22 73zM360 110q75 0 118.5 64t43.5 165q0 95 -43.5 160t-119.5 65t-119.5 -66t-43.5 -165q0 -97 44.5 -160t119.5 -63z"/>
<glyph glyph-name="uni1EDF" horiz-adv-x="588" unicode="ở" d="M314 527l-73 16q6 23 30.5 51t24.5 47q0 15 -9 24t-21 9q-21 0 -44 -34l-49 30q38 79 121 79q42 0 70.5 -24.5t28.5 -62.5t-36.5 -79.5t-42.5 -55.5zM478 566l106 18q23 -46 23 -94q0 -46 -25.5 -73.5t-71.5 -32.5q34 -58 34 -134q0 -126 -75.5 -193.5t-182.5 -67.5 q-110 0 -181.5 68t-71.5 184q0 118 71.5 188.5t189.5 70.5q47 0 89 -13q4 -1 35.5 -14t45.5 -13q35 0 35 36q0 33 -21 70zM290 392q-51 0 -75.5 -43t-24.5 -104q0 -65 26.5 -106t73.5 -41q44 0 70.5 40.5t26.5 106.5q0 61 -24.5 104t-72.5 43z"/>
<glyph glyph-name="uni1EE0" horiz-adv-x="717" unicode="Ỡ" d="M296 715h-70v11q0 56 21 86t56 30q29 0 64 -20q30 -19 44 -19q12 0 18 9.5t9 33.5h68v-12q0 -113 -79 -113q-31 0 -65 19q-34 18 -42 18q-21 0 -24 -43zM600 743l108 19q24 -48 24 -102q0 -48 -26.5 -78.5t-78.5 -31.5q56 -89 56 -206q0 -164 -91 -259.5t-240 -95.5 q-146 0 -231.5 97.5t-85.5 245.5q0 154 90.5 253.5t237.5 99.5q61 0 123 -20q11 -4 32.5 -14t38 -15.5t28.5 -5.5q37 0 37 40q0 34 -22 73zM360 110q75 0 118.5 64t43.5 165q0 95 -43.5 160t-119.5 65t-119.5 -66t-43.5 -165q0 -97 44.5 -160t119.5 -63z"/>
<glyph glyph-name="uni1EE1" horiz-adv-x="588" unicode="ỡ" d="M217 558h-71v13q0 56 22 87t59 31q26 0 66 -20q32 -20 42 -20q12 0 18 9.5t8 35.5h70v-12q0 -117 -82 -117q-27 0 -69 22q-29 16 -38 16q-22 0 -25 -45zM478 566l106 18q23 -46 23 -94q0 -46 -25.5 -73.5t-71.5 -32.5q34 -58 34 -134q0 -126 -75.5 -193.5t-182.5 -67.5 q-110 0 -181.5 68t-71.5 184q0 118 71.5 188.5t189.5 70.5q47 0 89 -13q4 -1 35.5 -14t45.5 -13q35 0 35 36q0 33 -21 70zM290 392q-51 0 -75.5 -43t-24.5 -104q0 -65 26.5 -106t73.5 -41q44 0 70.5 40.5t26.5 106.5q0 61 -24.5 104t-72.5 43z"/>
<glyph glyph-name="uni1EE2" horiz-adv-x="717" unicode="Ợ" d="M360 -217q-30 0 -50 20.5t-20 47.5q0 29 20.5 49t49.5 20q28 0 47.5 -20t19.5 -49q0 -27 -19.5 -47.5t-47.5 -20.5zM600 743l108 19q24 -48 24 -102q0 -48 -26.5 -78.5t-78.5 -31.5q56 -89 56 -206q0 -164 -91 -259.5t-240 -95.5q-146 0 -231.5 97.5t-85.5 245.5 q0 154 90.5 253.5t237.5 99.5q61 0 123 -20q11 -4 32.5 -14t38 -15.5t28.5 -5.5q37 0 37 40q0 34 -22 73zM360 110q75 0 118.5 64t43.5 165q0 95 -43.5 160t-119.5 65t-119.5 -66t-43.5 -165q0 -97 44.5 -160t119.5 -63z"/>
<glyph glyph-name="uni1EE3" horiz-adv-x="588" unicode="ợ" d="M293 -80q29 0 48 -20t19 -51q0 -29 -19.5 -49.5t-49.5 -20.5q-29 0 -49.5 20.5t-20.5 49.5q0 31 20.5 51t51.5 20zM478 566l106 18q23 -46 23 -94q0 -46 -25.5 -73.5t-71.5 -32.5q34 -58 34 -134q0 -126 -75.5 -193.5t-182.5 -67.5q-110 0 -181.5 68t-71.5 184 q0 118 71.5 188.5t189.5 70.5q47 0 89 -13q4 -1 35.5 -14t45.5 -13q35 0 35 36q0 33 -21 70zM290 392q-51 0 -75.5 -43t-24.5 -104q0 -65 26.5 -106t73.5 -41q44 0 70.5 40.5t26.5 106.5q0 61 -24.5 104t-72.5 43z"/>
<glyph glyph-name="uni1EE4" horiz-adv-x="682" unicode="Ụ" d="M342 -217q-29 0 -49.5 20.5t-20.5 47.5q0 29 20.5 49t50.5 20q28 0 47 -20t19 -49q0 -27 -19.5 -47.5t-47.5 -20.5zM65 674h153v-388q0 -86 31.5 -130.5t90.5 -44.5q124 0 124 175v388h152v-378q0 -153 -73 -230t-208 -77q-270 0 -270 309v376z"/>
<glyph glyph-name="uni1EE5" horiz-adv-x="583" unicode="ụ" d="M293 -80q29 0 48.5 -20t19.5 -51q0 -29 -19.5 -49.5t-49.5 -20.5t-50 20.5t-20 49.5q0 31 20.5 51t50.5 20zM522 489v-332q0 -75 4 -157h-132l-7 69h-3q-51 -80 -153 -80q-79 0 -125.5 52.5t-46.5 160.5v287h153v-263q0 -114 76 -114q54 0 76 53q5 11 5 33v291h153z"/>
<glyph glyph-name="uni1EE6" horiz-adv-x="682" unicode="Ủ" d="M376 706l-70 15q7 21 28 45t21 41q0 13 -8.5 21.5t-20.5 8.5q-22 0 -46 -34l-48 29q41 79 122 79q41 0 69.5 -25t28.5 -60q0 -26 -12.5 -44t-33 -37.5t-30.5 -38.5zM65 674h153v-388q0 -86 31.5 -130.5t90.5 -44.5q124 0 124 175v388h152v-378q0 -153 -73 -230t-208 -77 q-270 0 -270 309v376z"/>
<glyph glyph-name="uni1EE7" horiz-adv-x="583" unicode="ủ" d="M318 527l-73 16q6 23 30 51t24 47q0 15 -8.5 24t-21.5 9q-23 0 -43 -34l-49 30q38 79 121 79q42 0 70.5 -24.5t28.5 -62.5t-36.5 -79.5t-42.5 -55.5zM522 489v-332q0 -75 4 -157h-132l-7 69h-3q-51 -80 -153 -80q-79 0 -125.5 52.5t-46.5 160.5v287h153v-263 q0 -114 76 -114q54 0 76 53q5 11 5 33v291h153z"/>
<glyph glyph-name="uni1EE8" horiz-adv-x="728" unicode="Ứ" d="M348 833h160l-123 -123h-122zM611 780l107 17q22 -44 22 -93q0 -99 -107 -109l-17 -2v-297q0 -153 -73 -230t-208 -77q-270 0 -270 309v376h153v-388q0 -86 31.5 -130.5t90.5 -44.5q124 0 124 175v388h116q30 0 41 9.5t11 29.5q0 33 -21 67z"/>
<glyph glyph-name="uni1EE9" horiz-adv-x="583" unicode="ứ" d="M323 702h141l-122 -152h-105zM493 596l106 18q23 -46 23 -91q0 -44 -25.5 -70.5t-66.5 -31.5l-8 -1v-263q0 -75 4 -157h-132l-7 69h-3q-51 -80 -153 -80q-79 0 -125.5 52.5t-46.5 160.5v286h153v-262q0 -114 76 -114q54 0 76 53q5 11 5 33v290h93q52 0 52 42q0 30 -21 66 z"/>
<glyph glyph-name="uni1EEA" horiz-adv-x="728" unicode="Ừ" d="M174 833h160l85 -121h-122zM611 780l107 17q22 -44 22 -93q0 -99 -107 -109l-17 -2v-297q0 -153 -73 -230t-208 -77q-270 0 -270 309v376h153v-388q0 -86 31.5 -130.5t90.5 -44.5q124 0 124 175v388h116q30 0 41 9.5t11 29.5q0 33 -21 67z"/>
<glyph glyph-name="uni1EEB" horiz-adv-x="583" unicode="ừ" d="M144 702h140l86 -152h-104zM493 596l106 18q23 -46 23 -91q0 -44 -25.5 -70.5t-66.5 -31.5l-8 -1v-263q0 -75 4 -157h-132l-7 69h-3q-51 -80 -153 -80q-79 0 -125.5 52.5t-46.5 160.5v286h153v-262q0 -114 76 -114q54 0 76 53q5 11 5 33v290h93q52 0 52 42q0 30 -21 66z "/>
<glyph glyph-name="uni1EEC" horiz-adv-x="728" unicode="Ử" d="M399 706l-70 15q7 21 28 45t21 41q0 13 -8.5 21.5t-20.5 8.5q-23 0 -45 -34l-48 29q40 79 122 79q40 0 68.5 -25t28.5 -60q0 -26 -12.5 -44t-33 -37.5t-30.5 -38.5zM611 780l107 17q22 -44 22 -93q0 -99 -107 -109l-17 -2v-297q0 -153 -73 -230t-208 -77q-270 0 -270 309 v376h153v-388q0 -86 31.5 -130.5t90.5 -44.5q124 0 124 175v388h116q30 0 41 9.5t11 29.5q0 33 -21 67z"/>
<glyph glyph-name="uni1EED" horiz-adv-x="583" unicode="ử" d="M325 527l-73 16q6 23 30 51t24 47q0 15 -8.5 24t-21.5 9q-23 0 -43 -34l-49 30q38 79 121 79q42 0 70.5 -24.5t28.5 -62.5t-36.5 -79.5t-42.5 -55.5zM493 596l106 18q23 -46 23 -91q0 -44 -25.5 -70.5t-66.5 -31.5l-8 -1v-263q0 -75 4 -157h-132l-7 69h-3 q-51 -80 -153 -80q-79 0 -125.5 52.5t-46.5 160.5v286h153v-262q0 -114 76 -114q54 0 76 53q5 11 5 33v290h93q52 0 52 42q0 30 -21 66z"/>
<glyph glyph-name="uni1EEE" horiz-adv-x="728" unicode="Ữ" d="M293 715h-70v8q0 58 20.5 88.5t57.5 30.5q30 0 63 -20q32 -19 44 -19q13 0 19 9.5t8 33.5h69v-9q0 -116 -79 -116q-31 0 -65 19q-36 18 -43 18q-19 0 -24 -43zM611 780l107 17q22 -44 22 -93q0 -99 -107 -109l-17 -2v-297q0 -153 -73 -230t-208 -77q-270 0 -270 309v376 h153v-388q0 -86 31.5 -130.5t90.5 -44.5q124 0 124 175v388h116q30 0 41 9.5t11 29.5q0 33 -21 67z"/>
<glyph glyph-name="uni1EEF" horiz-adv-x="583" unicode="ữ" d="M224 558h-72v10q0 57 22 89t60 32q25 0 65 -20q32 -20 42 -20q12 0 18 9.5t8 35.5h70v-12q0 -117 -82 -117q-27 0 -69 22q-29 16 -38 16q-22 0 -24 -45zM493 596l106 18q23 -46 23 -91q0 -44 -25.5 -70.5t-66.5 -31.5l-8 -1v-263q0 -75 4 -157h-132l-7 69h-3 q-51 -80 -153 -80q-79 0 -125.5 52.5t-46.5 160.5v286h153v-262q0 -114 76 -114q54 0 76 53q5 11 5 33v290h93q52 0 52 42q0 30 -21 66z"/>
<glyph glyph-name="uni1EF0" horiz-adv-x="728" unicode="Ự" d="M366 -80q29 0 48 -20t19 -51q0 -29 -19.5 -49.5t-49.5 -20.5t-50 20.5t-20 49.5q0 31 20.5 51t51.5 20zM611 780l107 17q22 -44 22 -93q0 -99 -107 -109l-17 -2v-297q0 -153 -73 -230t-208 -77q-270 0 -270 309v376h153v-388q0 -86 31.5 -130.5t90.5 -44.5q124 0 124 175 v388h116q30 0 41 9.5t11 29.5q0 33 -21 67z"/>
<glyph glyph-name="uni1EF1" horiz-adv-x="583" unicode="ự" d="M292 -80q29 0 48.5 -20t19.5 -51q0 -29 -19.5 -49.5t-49.5 -20.5t-50.5 20.5t-20.5 49.5q0 31 20.5 51t51.5 20zM493 596l106 18q23 -46 23 -91q0 -44 -25.5 -70.5t-66.5 -31.5l-8 -1v-263q0 -75 4 -157h-132l-7 69h-3q-51 -80 -153 -80q-79 0 -125.5 52.5t-46.5 160.5 v286h153v-262q0 -114 76 -114q54 0 76 53q5 11 5 33v290h93q52 0 52 42q0 30 -21 66z"/>
<glyph glyph-name="Ygrave" horiz-adv-x="603" unicode="Ỳ" d="M139 831h160l85 -121h-122zM374 0h-152v276l-213 398h174l69 -162q22 -51 52 -129h2q17 46 51 129l68 162h171l-222 -393v-281z"/>
<glyph glyph-name="ygrave" horiz-adv-x="523" unicode="ỳ" d="M115 702h141l86 -152h-104zM6 489h169l73 -240q18 -67 24 -91h3q4 15 11.5 48t10.5 43l60 240h163l-114 -322q-50 -140 -89.5 -211t-82.5 -110q-65 -56 -147 -67l-32 129q31 5 66 26q38 20 63 61q8 11 8 22t-7 25z"/>
<glyph glyph-name="uni1EF4" horiz-adv-x="603" unicode="Ỵ" d="M303 -217q-29 0 -49.5 20.5t-20.5 47.5q0 29 20 49t50 20q28 0 47.5 -20t19.5 -49q0 -27 -19.5 -47.5t-47.5 -20.5zM374 0h-152v276l-213 398h174l69 -162q22 -51 52 -129h2q17 46 51 129l68 162h171l-222 -393v-281z"/>
<glyph glyph-name="uni1EF5" horiz-adv-x="523" unicode="ỵ" d="M405 -80q29 0 48.5 -20t19.5 -51q0 -29 -19.5 -49.5t-49.5 -20.5t-50 20.5t-20 49.5q0 31 20.5 51t50.5 20zM6 489h169l73 -240q18 -67 24 -91h3q4 15 11.5 48t10.5 43l60 240h163l-114 -322q-50 -140 -89.5 -211t-82.5 -110q-65 -56 -147 -67l-32 129q31 5 66 26 q38 20 63 61q8 11 8 22t-7 25z"/>
<glyph glyph-name="uni1EF6" horiz-adv-x="603" unicode="Ỷ" d="M337 706l-70 15q7 22 28 45.5t21 40.5q0 13 -8.5 21.5t-21.5 8.5q-23 0 -45 -34l-48 29q39 79 122 79q40 0 68.5 -25t28.5 -60q0 -26 -12.5 -44t-32.5 -37.5t-30 -38.5zM374 0h-152v276l-213 398h174l69 -162q22 -51 52 -129h2q17 46 51 129l68 162h171l-222 -393v-281z "/>
<glyph glyph-name="uni1EF7" horiz-adv-x="523" unicode="ỷ" d="M299 527l-73 16q6 23 30 51t24 47q0 15 -8.5 24t-20.5 9q-21 0 -44 -34l-49 30q38 79 121 79q42 0 70.5 -24.5t28.5 -62.5t-36.5 -79.5t-42.5 -55.5zM6 489h169l73 -240q18 -67 24 -91h3q4 15 11.5 48t10.5 43l60 240h163l-114 -322q-50 -140 -89.5 -211t-82.5 -110 q-65 -56 -147 -67l-32 129q31 5 66 26q38 20 63 61q8 11 8 22t-7 25z"/>
<glyph glyph-name="uni1EF8" horiz-adv-x="603" unicode="Ỹ" d="M231 715h-70v11q0 56 21 86t56 30q29 0 64 -20q30 -19 44 -19q12 0 18 9.5t9 33.5h68v-12q0 -113 -79 -113q-31 0 -65 19q-34 18 -42 18q-21 0 -24 -43zM374 0h-152v276l-213 398h174l69 -162q22 -51 52 -129h2q17 46 51 129l68 162h171l-222 -393v-281z"/>
<glyph glyph-name="uni1EF9" horiz-adv-x="523" unicode="ỹ" d="M201 558h-72v10q0 57 22 89t60 32q25 0 65 -20q32 -20 42 -20q12 0 18 9.5t8 35.5h70v-12q0 -117 -82 -117q-27 0 -69 22q-29 16 -38 16q-23 0 -24 -45zM6 489h169l73 -240q18 -67 24 -91h3q4 15 11.5 48t10.5 43l60 240h163l-114 -322q-50 -140 -89.5 -211t-82.5 -110 q-65 -56 -147 -67l-32 129q31 5 66 26q38 20 63 61q8 11 8 22t-7 25z"/>
<glyph glyph-name="uni2010" horiz-adv-x="322" unicode="‐" d="M30 313h262v-101h-262v101z"/>
<glyph glyph-name="endash" horiz-adv-x="500" unicode="–" d="M30 301h440v-94h-440v94z"/>
<glyph glyph-name="emdash" horiz-adv-x="1000" unicode="—" d="M30 301h940v-94h-940v94z"/>
<glyph glyph-name="quoteleft" horiz-adv-x="260" unicode="‘" d="M169 415l-142 -9q49 156 120 271l92 8q-48 -132 -70 -270z"/>
<glyph glyph-name="quoteright" horiz-adv-x="260" unicode="’" d="M95 676l143 9q-48 -150 -120 -271l-92 -8q50 142 69 270z"/>
<glyph glyph-name="quotesinglbase" horiz-adv-x="260" unicode="‚" d="M108 -96l-92 -8q48 131 70 269l142 10q-49 -156 -120 -271z"/>
<glyph glyph-name="quotedblleft" horiz-adv-x="454" unicode="“" d="M363 415l-142 -9q49 156 120 271l92 7q-50 -140 -70 -269zM168 415l-142 -9q49 156 120 271l92 7q-48 -132 -70 -269z"/>
<glyph glyph-name="quotedblright" horiz-adv-x="454" unicode="”" d="M290 676l142 9q-49 -156 -120 -271l-92 -8q49 140 70 270zM95 676l142 9q-48 -150 -120 -271l-92 -8q49 140 70 270z"/>
<glyph glyph-name="quotedblbase" horiz-adv-x="459" unicode="„" d="M303 -96l-92 -8q49 139 70 269l142 10q-48 -150 -120 -271zM107 -96l-92 -8q48 131 70 269l142 10q-49 -156 -120 -271z"/>
<glyph glyph-name="dagger" horiz-adv-x="524" unicode="†" d="M193 674h138l-13 -201l171 12v-118l-171 12l13 -429h-138l14 429l-172 -12v118l172 -12z"/>
<glyph glyph-name="daggerdbl" horiz-adv-x="524" unicode="‡" d="M194 674h136l-11 -185l170 11v-117l-170 12v-158l170 12v-118l-170 12l11 -193h-136l10 193l-170 -12v118l170 -12v158l-170 -12v117l170 -11z"/>
<glyph glyph-name="bullet" horiz-adv-x="338" unicode="•" d="M169 130q-56 0 -93 38.5t-37 96.5q0 53 38 90t92 37t92 -38t38 -93t-37.5 -93t-92.5 -38z"/>
<glyph glyph-name="ellipsis" horiz-adv-x="1000" unicode="…" d="M834 -11q-40 0 -65 26t-25 66t25.5 66.5t64.5 26.5q40 0 64.5 -26t25.5 -67q0 -40 -25 -66t-65 -26zM500 -11q-40 0 -65 26t-25 66t25.5 66.5t64.5 26.5q40 0 64.5 -26t25.5 -67q0 -40 -25 -66t-65 -26zM166 -11q-39 0 -64 26t-25 66q0 41 25 67t65 26q39 0 64 -26 t25 -67q0 -40 -25 -66t-65 -26z"/>
<glyph glyph-name="perthousand" horiz-adv-x="1285" unicode="‰" d="M293 -11h-81l373 672h82zM206 578q-32 0 -49 -32.5t-17 -84.5q0 -53 17.5 -85t49.5 -32q64 0 64 117t-65 117zM209 661q82 0 128.5 -53.5t46.5 -139.5q0 -97 -52.5 -152t-127.5 -55q-76 0 -126.5 53.5t-50.5 142.5t50 146.5t132 57.5zM1079 308q-33 0 -50 -32.5 t-17 -84.5q0 -53 17.5 -85t49.5 -32q64 0 64 117t-64 117zM1081 391q82 0 128.5 -53.5t46.5 -139.5q0 -97 -52.5 -152t-127.5 -55q-76 0 -126 53t-51 143q0 89 50 146.5t132 57.5zM675 308q-66 0 -66 -121q0 -51 17.5 -82t48.5 -31q64 0 64 117t-64 117zM677 391 q82 0 128.5 -53.5t46.5 -139.5q0 -97 -52.5 -152t-127.5 -55q-76 0 -126 53.5t-51 142.5q0 89 50 146.5t132 57.5z"/>
<glyph glyph-name="guilsinglleft" horiz-adv-x="270" unicode="‹" d="M248 443l-119 -191l119 -191h-106l-116 191l116 191h106z"/>
<glyph glyph-name="guilsinglright" horiz-adv-x="270" unicode="›" d="M142 252l-120 191h105l117 -191l-117 -191h-105z"/>
<glyph glyph-name="fraction" horiz-adv-x="125" unicode="⁄" d="M-81 -11h-82l369 672h83z"/>
<glyph glyph-name="zero.superior" horiz-adv-x="378" unicode="⁰" d="M189 515q56 0 56 122q0 123 -56 123t-56 -123q0 -122 56 -122zM188 438q-82 0 -124.5 56t-42.5 144q0 87 42.5 143.5t125.5 56.5q82 0 125 -56t43 -145q0 -85 -42 -142t-127 -57z"/>
<glyph glyph-name="four.superior" horiz-adv-x="393" unicode="⁴" d="M212 607v74q0 14 2 39.5t2 34.5h-2q-26 -51 -36 -66l-53 -81l2 -1h85zM321 443h-109v90h-192v63l166 240h135v-229h51v-74h-51v-90z"/>
<glyph glyph-name="five.superior" horiz-adv-x="348" unicode="⁵" d="M299 833v-85h-161l-7 -49q3 0 12.5 0.5t13.5 0.5q73 0 113 -28q48 -33 48 -97q0 -59 -48.5 -98t-129.5 -39q-75 0 -119 22l18 77q43 -19 95 -19q29 0 52.5 13t23.5 38q0 58 -113 58q-25 0 -57 -4l27 210h232z"/>
<glyph glyph-name="six.superior" horiz-adv-x="363" unicode="⁶" d="M186 515q22 0 35.5 17t13.5 43t-14 43t-42 17q-17 0 -31 -10t-20 -24q-3 -7 -3 -19q0 -27 16.5 -47t44.5 -20zM295 836v-80q-10 2 -37 2q-107 -7 -130 -79l2 -1q36 27 85 27q56 0 91 -33t35 -91q0 -64 -45.5 -103.5t-107.5 -39.5q-82 0 -124 49.5t-42 121.5q0 108 69 169 q61 55 164 58q4 0 12 0.5t11 0.5q4 0 9.5 -0.5t7.5 -0.5z"/>
<glyph glyph-name="seven.superior" horiz-adv-x="333" unicode="⁷" d="M23 833h295v-65l-165 -325h-113l166 303v2h-183v85z"/>
<glyph glyph-name="eight.superior" horiz-adv-x="361" unicode="⁸" d="M179 768q-21 0 -33 -11t-12 -28q0 -32 53 -49q16 5 26.5 17t10.5 28q0 18 -12 30.5t-33 12.5zM181 509q21 0 35 12t14 31q0 41 -57 55q-44 -14 -44 -51q0 -19 14.5 -33t37.5 -14zM182 838q67 0 103 -30.5t36 -71.5q0 -57 -59 -83v-2q31 -11 53 -34.5t22 -59.5 q0 -53 -43 -86t-117 -33q-77 0 -115.5 33t-38.5 74q0 63 73 94v2q-60 28 -60 85q0 50 42 81t104 31z"/>
<glyph glyph-name="nine.superior" horiz-adv-x="358" unicode="⁹" d="M177 761q-21 0 -35.5 -16.5t-14.5 -42.5q0 -23 13.5 -40t38.5 -17q34 0 48 24q4 7 4 22q0 30 -13 50t-41 20zM58 439v79q11 -1 39 -1q51 3 81 20q40 22 52 63l-2 1q-27 -25 -79 -25q-53 0 -90.5 32.5t-37.5 88.5q0 59 45 100t111 41q79 0 119 -49.5t40 -119.5 q0 -116 -67 -175q-60 -53 -172 -56h-9q-7 0 -17 0.5t-13 0.5z"/>
<glyph glyph-name="parenleft.superior" horiz-adv-x="204" unicode="⁽" d="M110 868h76q-59 -107 -59 -239q0 -130 59 -238h-76q-69 101 -69 238q0 134 69 239z"/>
<glyph glyph-name="parenright.superior" horiz-adv-x="204" unicode="⁾" d="M94 391h-75q58 114 58 238q0 131 -58 239h75q69 -101 69 -239q0 -136 -69 -238z"/>
<glyph glyph-name="zero.inferior" horiz-adv-x="378" unicode="₀" d="M189 -74q56 0 56 122t-56 122t-56 -122t56 -122zM188 -152q-82 0 -124.5 56t-42.5 144t42.5 144t125.5 56q82 0 125 -56t43 -144q0 -86 -42 -143t-127 -57z"/>
<glyph glyph-name="one.inferior" d="M235 -147h-117v295h-2l-79 -35l-16 82l112 48h102v-390z" unicode="₁"/>
<glyph glyph-name="two.inferior" horiz-adv-x="352" unicode="₂" d="M15 -147v56l61 56q50 44 67 60t33.5 39.5t16.5 44.5t-16 34.5t-43 13.5q-45 0 -86 -28l-30 76q59 43 145 43q73 0 113 -34t40 -87q0 -33 -18.5 -65t-38 -50.5t-58.5 -50.5l-24 -19v-2h146v-87h-308z"/>
<glyph glyph-name="three.inferior" horiz-adv-x="347" unicode="₃" d="M47 144l-22 72q52 32 140 32q69 0 107 -28t38 -71q0 -31 -23 -54t-60 -34v-2q42 -5 69.5 -30t27.5 -62q0 -53 -49 -86t-131 -33q-84 0 -135 28l23 78q50 -26 98 -26q31 0 51 12.5t20 31.5q0 25 -25 38t-61 13h-30v68h28q29 0 53 10.5t24 31.5q0 35 -53 35q-44 0 -90 -24z "/>
<glyph glyph-name="four.inferior" horiz-adv-x="393" unicode="₄" d="M212 18v73q0 14 2 40.5t2 33.5l-2 1q-29 -57 -36 -67l-53 -80l2 -1h85zM321 -147h-109v90h-192v64l166 239h135v-228h51v-75h-51v-90z"/>
<glyph glyph-name="five.inferior" horiz-adv-x="348" unicode="₅" d="M299 243v-85h-161l-7 -49q7 1 26 1q73 0 113 -28q48 -31 48 -96q0 -60 -48.5 -99t-129.5 -39q-71 0 -119 22l18 78q40 -20 95 -20q29 0 52.5 13t23.5 39q0 58 -113 58q-25 0 -57 -4l27 209h232z"/>
<glyph glyph-name="six.inferior" horiz-adv-x="363" unicode="₆" d="M186 -74q21 0 35 17t14 42q0 26 -14 43.5t-42 17.5q-17 0 -31 -10t-20 -24q-3 -8 -3 -20q0 -27 16.5 -46.5t44.5 -19.5zM295 246v-79q-7 1 -26 1h-11q-107 -6 -130 -79h2q36 27 85 27q56 0 91 -33.5t35 -91.5q0 -64 -45.5 -103.5t-107.5 -39.5q-82 0 -124 50t-42 121 q0 107 69 170q59 54 164 58q31 0 40 -1z"/>
<glyph glyph-name="seven.inferior" horiz-adv-x="333" unicode="₇" d="M23 243h295v-64l-165 -326h-113l166 304v1h-183v85z"/>
<glyph glyph-name="eight.inferior" horiz-adv-x="361" unicode="₈" d="M179 178q-21 0 -33 -11t-12 -28q0 -33 53 -48q16 5 26.5 17t10.5 27q0 18 -12 30.5t-33 12.5zM181 -80q21 0 35 11.5t14 30.5q0 42 -57 56q-44 -15 -44 -51q0 -19 14.5 -33t37.5 -14zM182 248q67 0 103 -30t36 -71q0 -58 -59 -84v-1q75 -28 75 -95q0 -52 -43 -85.5 t-117 -33.5q-77 0 -115.5 33.5t-38.5 74.5q0 63 73 94v1q-60 30 -60 86q0 49 41.5 80t104.5 31z"/>
<glyph glyph-name="nine.inferior" horiz-adv-x="358" unicode="₉" d="M177 171q-21 0 -35.5 -16t-14.5 -42q0 -24 13.5 -40.5t38.5 -16.5q35 0 48 23q4 7 4 23q0 29 -13 49t-41 20zM58 -150v79q8 -1 28 -1h11q47 2 81 20q41 23 52 63l-2 1q-28 -26 -79 -26q-53 0 -90.5 32.5t-37.5 89.5q0 59 45 99.5t111 40.5q79 0 119 -49.5t40 -119.5 q0 -115 -67 -174q-58 -53 -172 -56h-13q-20 0 -26 1z"/>
<glyph glyph-name="parenleft.inferior" horiz-adv-x="204" unicode="₍" d="M110 278h76q-59 -107 -59 -238q0 -129 59 -239h-76q-69 101 -69 239q0 136 69 238z"/>
<glyph glyph-name="parenright.inferior" horiz-adv-x="204" unicode="₎" d="M94 -199h-75q58 114 58 239q0 130 -58 238h75q69 -101 69 -238t-69 -239z"/>
<glyph glyph-name="dong" horiz-adv-x="555" unicode="₫" d="M340 316v41q0 8 -2 20q-5 21 -24.5 36t-44.5 15q-37 0 -57 -26.5t-20 -68.5t21 -66.5t55 -24.5q25 0 45 14t24 36q3 11 3 24zM340 675h127v-57h64v-72h-64v-285q0 -71 3 -107h-114l-5 52h-2q-36 -60 -121 -60q-70 0 -117.5 50.5t-47.5 132.5q0 88 50.5 139.5t123.5 51.5 q70 0 101 -41h2v67h-119v72h119v57zM87 104h384v-89h-384v89z"/>
<glyph glyph-name="Euro" horiz-adv-x="555" unicode="€" d="M502 138l24 -111q-68 -38 -156 -38q-74 0 -138 29.5t-106 84.5q-43 54 -56 130h-65v71h55v17q0 5 0.5 15t0.5 15h-56v71h67q19 79 69 137q91 102 231 102q82 0 150 -30l-28 -114q-57 24 -111 24q-79 0 -123 -54q-21 -24 -32 -65h249v-71h-264q-1 -10 -1 -31v-16h265v-71 h-251q10 -44 33 -70q45 -51 129 -51q64 0 114 26z"/>
<glyph glyph-name="uni20B9" horiz-adv-x="555" unicode="₹" d="M521 588h-157q33 -37 42 -91h115v-71h-116q-11 -72 -63.5 -115t-129.5 -48q92 -95 227 -263h-164q-117 144 -217 250v103h62q120 0 140 73h-202v71h198q-26 56 -122 56h-76v106h463v-71z"/>
<glyph glyph-name="uni2113" horiz-adv-x="555" unicode="ℓ" d="M456 192l69 -67q-80 -136 -229 -136t-182 143q0 4 -1 6q-16 -11 -48 -31l-40 80q48 32 85 60v228q0 123 51 184.5t137 61.5q72 0 114.5 -47.5t42.5 -127.5q0 -87 -49 -163t-153 -165v-13q1 -45 22.5 -68t57.5 -23q63 0 123 78zM253 495v-142q89 95 89 192q0 36 -11 55.5 t-29 19.5q-49 0 -49 -125z"/>
<glyph glyph-name="uni2116" horiz-adv-x="969" unicode="№" d="M196 0h-131v650h166l106 -240q33 -74 86 -218l2 1q-11 113 -11 276v181h130v-650h-152l-112 248q-26 58 -87 224h-3q6 -123 6 -286v-186zM916 168h-295v75h295v-75zM768 560q-28 0 -43 -32t-15 -71q0 -42 16.5 -71t41.5 -29q28 0 43 28t15 74q0 41 -15 71t-43 30z M770 635q79 0 126 -48t47 -125q0 -89 -49.5 -134t-126.5 -45t-126 46t-49 127q0 82 49 130.5t129 48.5z"/>
<glyph glyph-name="trademark" horiz-adv-x="650" unicode="™" d="M639 401h-80l-5 120v50t-1 56h-5q-22 -101 -23 -106l-28 -115h-79l-25 116q-6 39 -17 105h-4q0 -13 -3 -106l-6 -120h-78l17 273h128l18 -67q7 -28 16 -88h1q11 53 20 88l20 67h119zM27 674h238v-67h-78v-206h-83v206h-77v67z"/>
<glyph glyph-name="Omega" horiz-adv-x="744" unicode="Ω" d="M331 0h-299v115h133v4q-50 40 -85.5 104t-35.5 146q0 133 94 224.5t240 91.5q148 0 234.5 -90t86.5 -215q0 -155 -122 -261v-4h135v-115h-297v89q127 97 127 261q0 89 -46 151.5t-121 62.5q-77 0 -125 -61.5t-48 -152.5q0 -80 37.5 -153.5t91.5 -107.5v-89z"/>
<glyph glyph-name="estimated" horiz-adv-x="817" unicode="℮" d="M646 340v184q0 12 -10 22q-95 95 -226 95q-133 0 -228 -98q-10 -10 -10 -23v-180q0 -5 5 -5h464q5 0 5 5zM782 316h-605q-5 0 -5 -4v-183q0 -10 9 -21q93 -99 229 -99q145 0 240 111h55q-52 -61 -130 -96t-166 -35q-155 0 -264.5 98.5t-109.5 237.5t109.5 237.5 t264.5 98.5t264 -98.5t109 -237.5v-9z"/>
<glyph glyph-name="partialdiff" horiz-adv-x="579" unicode="∂" d="M259 111q45 0 78 47t40 111q-9 28 -35 50.5t-62 22.5q-46 0 -75.5 -38t-29.5 -94q0 -46 23.5 -72.5t60.5 -26.5zM91 572l-44 102q84 58 197 58q128 0 213 -99t85 -261q0 -181 -86 -282t-213 -101q-105 0 -163 68.5t-58 154.5q0 105 61.5 176t160.5 71q53 0 90.5 -23 t56.5 -52h1v17q0 92 -46 149.5t-122 57.5q-72 0 -133 -36z"/>
<glyph glyph-name="Delta" horiz-adv-x="631" unicode="∆" d="M426 124l-74 245q-15 51 -41 160h-3q-33 -135 -37 -151l-77 -254h232zM589 0h-547v76l185 576h182l180 -575v-77z"/>
<glyph glyph-name="product" horiz-adv-x="663" unicode="∏" d="M651 525h-93v-615h-141v615h-173v-615h-141v615h-93v125h641v-125z"/>
<glyph glyph-name="summation" horiz-adv-x="543" unicode="∑" d="M539 -90h-524v86l217 281l-206 274v99h487v-125h-294v-3l177 -239l-187 -244v-4h330v-125z"/>
<glyph glyph-name="minus" horiz-adv-x="596" unicode="−" d="M40 314h516v-94h-516v94z"/>
<glyph glyph-name="uni2215" horiz-adv-x="125" unicode="∕" d="M-81 -11h-82l369 672h83z"/>
<glyph glyph-name="uni2219" horiz-adv-x="260" unicode="∙" d="M130 167q-40 0 -65 26t-25 66t25.5 66.5t64.5 26.5q40 0 64.5 -26t25.5 -67q0 -40 -25 -66t-65 -26z"/>
<glyph glyph-name="radical" horiz-adv-x="589" unicode="√" d="M612 840l-228 -919h-102l-158 411l-79 -31l-24 68l176 72l106 -297q11 -31 24 -82h2q14 71 17 85l164 693h102z"/>
<glyph glyph-name="infinity" horiz-adv-x="752" unicode="∞" d="M195 189q21 0 45.5 14t35.5 24t38 36l-18.5 18.5t-23 22t-21 16.5t-27.5 15t-26 4q-31 0 -52 -22t-21 -53q0 -33 20 -54t50 -21zM553 189q31 0 52 22t21 53q0 33 -20 54t-50 21q-21 0 -45.5 -14t-35.5 -24t-38 -36l18.5 -18.5t23 -22t21 -16.5t27.5 -15t26 -4zM555 97 q-34 0 -70 18t-56 35t-54 49q-2 -2 -18.5 -17.5t-21 -19t-19.5 -16.5t-22 -16.5t-22 -12t-26.5 -11.5t-26.5 -6t-31 -3q-71 0 -116 47.5t-45 119.5q0 69 47.5 118t121.5 49q34 0 70 -18t56 -35t54 -49q2 2 18.5 17.5t21 19t19.5 16.5t22 16.5t22 12t26.5 11.5t26.5 6t31 3 q71 0 116 -47.5t45 -119.5q0 -69 -47.5 -118t-121.5 -49z"/>
<glyph glyph-name="integral" horiz-adv-x="358" unicode="∫" d="M350 800l-14 -90q-20 4 -35 4q-33 0 -47 -27q-22 -34 -22 -148q0 -74 7.5 -215.5t7.5 -228.5q0 -126 -34 -185q-40 -75 -132 -75q-44 0 -70 11l16 93q17 -5 39 -5q25 0 43 21q25 33 25 135q0 88 -7 234.5t-7 224.5q0 148 60 214q42 45 113 45q35 0 57 -8z"/>
<glyph glyph-name="approxequal" horiz-adv-x="596" unicode="≈" d="M524 223l54 -57q-27 -45 -70.5 -72.5t-93.5 -27.5q-15 0 -29 2t-28 7t-22 8t-23.5 10t-19.5 9q-5 2 -22.5 10.5t-27 12t-27 7.5t-34.5 4q-56 0 -110 -63l-51 64q28 40 71.5 66.5t91.5 26.5q19 0 39.5 -4.5t29 -7.5t31.5 -14l23 -10q5 -2 22 -10t26.5 -12t26.5 -8t33 -4 q62 0 110 63zM520 435l56 -59q-27 -43 -69.5 -70.5t-92.5 -27.5q-13 0 -26 2t-22.5 4t-22 7t-18 7.5t-18.5 8.5t-16 8q-3 1 -27.5 12.5t-42.5 16.5t-40 5q-58 0 -111 -64l-51 63q28 41 70.5 67.5t92.5 26.5q20 0 39.5 -4t29.5 -8t30 -13t24 -11q6 -2 22.5 -10t26 -12 t26.5 -8t33 -4q52 0 107 63z"/>
<glyph glyph-name="notequal" horiz-adv-x="596" unicode="≠" d="M556 115h-309l-62 -101h-98l65 101h-112v93h172l75 119h-247v93h307l62 102h98l-65 -102h114v-93h-174l-76 -119h250v-93z"/>
<glyph glyph-name="lessequal" horiz-adv-x="596" unicode="≤" d="M538 0h-479v87h479v-87zM538 118l-480 176v91l480 177v-102l-351 -119v-2l351 -120v-101z"/>
<glyph glyph-name="greaterequal" horiz-adv-x="596" unicode="≥" d="M537 0h-479v87h479v-87zM538 294l-480 -176v101l351 120v2l-351 119v102l480 -177v-91z"/>
<glyph glyph-name="lozenge" horiz-adv-x="574" unicode="◊" d="M412 321l-113 226q-11 24 -13 31h-2q-13 -29 -14 -31l-109 -220l112 -226q8 -15 14 -30h2q6 12 14 30zM534 324l-192 -362h-111l-191 362l191 362h111z"/>
<glyph glyph-name="G_tildecomb" horiz-adv-x="682" unicode="" d="M316 715h-70v11q0 56 21 86t56 30q29 0 64 -20q30 -19 44 -19q13 0 18.5 9t8.5 34h68v-12q0 -113 -79 -113q-31 0 -65 19q-34 18 -42 18q-21 0 -24 -43zM629 386v-355q-112 -38 -225 -38q-180 0 -274 91q-95 89 -95 241q0 167 107 261.5t278 94.5q119 0 187 -33l-32 -122 q-67 29 -157 29q-99 0 -161 -56t-62 -162q0 -103 58.5 -162t153.5 -59q55 0 75 10v141h-104v119h251z"/>
<glyph glyph-name="M_uni0302" horiz-adv-x="846" unicode="" d="M365 833h115l101 -123h-107l-51 62h-2l-50 -62h-106zM646 0l-10 258q-6 162 -6 277h-3q-31 -128 -75 -261l-82 -263h-119l-72 261q-38 136 -61 263h-2q-1 -12 -5 -120.5t-7 -158.5l-12 -256h-141l43 674h203l66 -225q38 -142 57 -241h3q34 140 64 242l72 224h199l37 -674 h-149z"/>
<glyph glyph-name="N_uni0302" horiz-adv-x="690" unicode="" d="M288 833h114l101 -123h-107l-50 62h-2l-50 -62h-106zM206 0h-140v674h178l140 -247q63 -112 110 -231h3q-13 116 -13 281v197h140v-674h-160l-144 260q-71 128 -117 238l-3 -1q6 -133 6 -294v-203z"/>
<glyph glyph-name="g_tildecomb" horiz-adv-x="585" unicode="" d="M222 558h-72v10q0 57 22.5 89t59.5 32q25 0 65 -20q32 -20 42 -20q13 0 19 9.5t7 35.5h70v-12q0 -117 -82 -117q-27 0 -69 22q-27 16 -38 16q-22 0 -24 -45zM368 218v72q0 16 -3 28q-17 67 -82 67q-43 0 -71 -37t-28 -102q0 -57 26.5 -93.5t72.5 -36.5q29 0 51 17.5 t30 44.5q4 15 4 40zM393 489h132q-5 -52 -5 -145v-273q0 -154 -74 -220q-70 -60 -198 -60q-111 0 -176 38l30 115q64 -37 142 -37q57 0 92 32t35 97v32h-2q-45 -64 -132 -64q-91 0 -149 66.5t-58 172.5q0 115 64 186t157 71t134 -69h2z"/>
<glyph glyph-name="m_uni0302" horiz-adv-x="860" unicode="" d="M379 702h103l99 -152h-99l-51 87h-2l-50 -87h-99zM61 0v333q0 70 -4 156h128l7 -66h3q52 77 148 77q47 0 82.5 -22t51.5 -61h2q26 37 63 59q40 24 93 24q74 0 119.5 -53.5t45.5 -158.5v-288h-148v266q0 112 -72 112q-25 0 -43.5 -15t-26.5 -38q-6 -17 -6 -39v-286h-148 v274q0 104 -70 104q-51 0 -71 -55q-6 -14 -6 -38v-285h-148z"/>
<glyph glyph-name="n_uni0302" horiz-adv-x="586" unicode="" d="M61 0v333q0 70 -4 156h132l7 -67h3q19 30 58 54t93 24q79 0 127 -53t48 -157v-290h-152v271q0 106 -77 106q-29 0 -48.5 -16.5t-28.5 -40.5q-6 -13 -6 -38v-282h-152zM242 702h102l99 -152h-99l-50 87h-2l-50 -87h-99z"/>
<glyph glyph-name="zero.slashfitted" horiz-adv-x="555" unicode="" d="M280 661q51 0 92 -17.5t68.5 -48t46 -73.5t27 -91t8.5 -103q0 -156 -63 -247.5t-184 -91.5q-120 0 -181 94t-62 241q0 149 63.5 243t184.5 94zM371 414l-160 -270q24 -40 66 -40q47 0 74 56.5t27 165.5q0 43 -7 88zM186 240l158 264q-20 42 -66 42q-48 0 -74.5 -57.5 t-26.5 -162.5q0 -50 9 -86z"/>
<glyph glyph-name="dong.alt" horiz-adv-x="555" unicode="" d="M340 316v41q0 8 -2 20q-5 21 -24.5 36t-44.5 15q-37 0 -57 -26.5t-20 -68.5t21 -66.5t55 -24.5q25 0 45 14t24 36q3 11 3 24zM340 675h127v-57h64v-72h-64v-285q0 -71 3 -107h-114l-5 52h-2q-36 -60 -121 -60q-70 0 -117.5 50.5t-47.5 132.5q0 88 50.5 139.5t123.5 51.5 q70 0 101 -41h2v67h-119v72h119v57z"/>
<glyph glyph-name="breve_acutecomb" d="M-2 671h73q4 -27 25 -43.5t54 -16.5q36 0 57 17t23 43h72q-2 -63 -43.5 -101.5t-109.5 -38.5t-108.5 39t-42.5 101zM187 809h117l-124 -147h-79z" unicode=""/>
<glyph glyph-name="breve_gravecomb" d="M-3 671h72q5 -27 26 -43.5t54 -16.5q35 0 56.5 17.5t23.5 42.5h72q-2 -63 -44 -101.5t-109 -38.5q-68 0 -108.5 39t-42.5 101zM-3 809h117l85 -147h-79z" unicode=""/>
<glyph glyph-name="breve_hookabovecomb" d="M-2 671h73q4 -27 25 -43.5t54 -16.5q36 0 57 17t23 43h72q-2 -63 -43.5 -101.5t-109.5 -38.5t-108.5 39t-42.5 101zM173 650l-64 14q7 20 27 42.5t20 37.5q0 13 -8.5 21t-20.5 8q-21 0 -42 -33l-44 28q38 73 113 73q38 0 64 -23.5t26 -55.5q0 -24 -11.5 -41t-30.5 -35 t-29 -36z" unicode=""/>
<glyph glyph-name="breve_tildecomb" d="M3 672h72q4 -28 23.5 -46t50.5 -18q34 0 54 19t22 45h72q-2 -64 -41.5 -102.5t-106.5 -38.5q-68 0 -106 39t-40 102zM81 711h-72q0 49 21.5 78t59.5 29q29 0 65 -20q30 -17 43 -17q12 0 18 8.5t8 31.5h70v-10q0 -105 -82 -105q-26 0 -68 22q-28 14 -39 14q-20 0 -24 -31z " unicode=""/>
<glyph glyph-name="circumflex_acutecomb" d="M332 798h116l-116 -150h-77zM97 702h106l90 -152h-97l-45 87h-2l-44 -87h-97z" unicode=""/>
<glyph glyph-name="circumflex_gravecomb" d="M97 702h106l90 -152h-97l-45 87h-2l-44 -87h-97zM191 799h114l69 -151h-77z" unicode=""/>
<glyph glyph-name="circumflex_hookabovecomb" d="M333 633l-64 14q7 20 27 42.5t20 37.5q0 13 -8 21t-20 8q-22 0 -43 -33l-44 28q38 73 113 73q38 0 64 -23.5t26 -55.5q0 -33 -32 -66t-39 -46zM97 702h106l90 -152h-97l-45 87h-2l-44 -87h-97z" unicode=""/>
<glyph glyph-name="circumflex_tildecomb" d="M84 697h-72v6q0 49 22 78t60 29q29 0 64 -20q34 -16 43 -16q13 0 19 8t7 31h70v-10q0 -105 -82 -105q-25 0 -67 22q-28 14 -40 14q-21 0 -24 -37zM98 680h105l95 -130h-99l-48 71h-2l-47 -71h-99z" unicode=""/>
<glyph glyph-name="space_dotbelowcomb" d="M152 -80q29 0 48.5 -20t19.5 -51q0 -29 -19.5 -49.5t-49.5 -20.5t-50.5 20.5t-20.5 49.5q0 31 20.5 51t51.5 20z" unicode=""/>
<glyph glyph-name="space_hookabovecomb" d="M171 527l-73 16q6 23 30 51t24 47q0 15 -8.5 24t-21.5 9q-23 0 -43 -34l-49 30q38 79 121 79q42 0 70.5 -24.5t28.5 -62.5t-36.5 -79.5t-42.5 -55.5z" unicode=""/>
<glyph glyph-name="space_uni031B" d="M138 415v74h17q55 0 55 41q0 31 -22 66l107 18q22 -44 22 -92q0 -47 -33.5 -77t-94.5 -30h-51z" unicode=""/>
<glyph glyph-name="breve_acutecomb.cap" d="M171 924h136l-124 -113h-81zM9 821h69q13 -47 75 -47t75 47h67q-7 -52 -44 -87.5t-101 -35.5t-99.5 34t-41.5 89z" unicode=""/>
<glyph glyph-name="breve_gravecomb.cap" d="M10 821h69q13 -47 74 -47q62 0 75 47h67q-6 -52 -43.5 -87.5t-100.5 -35.5q-64 0 -99.5 34t-41.5 89zM1 924h136l69 -113h-81z" unicode=""/>
<glyph glyph-name="breve_hookabovecomb.cap" d="M11 821h69q13 -47 74 -47q62 0 75 47h67q-6 -52 -43.5 -87.5t-100.5 -35.5q-64 0 -99.5 34t-41.5 89zM176 798l-63 14q7 20 27 42.5t20 37.5q0 13 -8 21t-20 8q-23 0 -43 -33l-44 27q38 74 113 74q38 0 64 -23.5t26 -54.5q0 -25 -12 -42t-31.5 -35t-28.5 -36z" unicode=""/>
<glyph glyph-name="breve_tildecomb.cap" d="M8 821h69q13 -47 75 -47t75 47h67q-7 -52 -44 -87.5t-101 -35.5t-99.5 34t-41.5 89zM84 850h-72q-1 48 21 77t60 29q27 0 65 -19q30 -17 43 -17q12 0 18 8.5t8 31.5h70v-10q0 -106 -82 -106q-22 0 -68 22q-28 14 -39 14q-20 0 -24 -30z" unicode=""/>
<glyph glyph-name="circumflex_acutecomb.cap" d="M323 915h131l-134 -114h-73zM102 833h105l91 -123h-98l-45 63h-2l-44 -63h-97z" unicode=""/>
<glyph glyph-name="circumflex_gravecomb.cap" d="M97 833h106l90 -123h-98l-44 63h-2l-44 -63h-98zM182 901h131l66 -113h-80z" unicode=""/>
<glyph glyph-name="circumflex_hookabovecomb.cap" d="M341 758l-58 14q7 20 28 43.5t21 39.5q0 13 -8.5 21.5t-21.5 8.5q-26 0 -46 -36l-44 27q38 73 112 73q38 0 63.5 -22.5t25.5 -56.5q0 -23 -11.5 -39.5t-31 -35t-29.5 -37.5zM103 833h106l90 -123h-98l-44 63h-2l-44 -63h-97z" unicode=""/>
<glyph glyph-name="circumflex_tildecomb.cap" d="M86 849h-71v6q0 49 22 78t60 29q29 0 64 -20q34 -17 43 -17q12 0 18 8.5t8 31.5h70v-10q0 -105 -82 -105q-26 0 -68 22q-26 14 -39 14q-22 0 -25 -37zM96 833h114l101 -123h-107l-50 62h-2l-50 -62h-106z" unicode=""/>
<glyph glyph-name="space_dotbelowcomb.cap" d="M152 -217q-30 0 -50 20.5t-20 47.5q0 29 20 49t50 20q28 0 47.5 -20t19.5 -49q0 -27 -19.5 -47.5t-47.5 -20.5z" unicode=""/>
<glyph glyph-name="space_hookabovecomb.cap" d="M179 706l-70 15q7 21 28 45t21 41q0 13 -8.5 21.5t-20.5 8.5q-22 0 -46 -34l-48 29q41 79 122 79q41 0 69.5 -25t28.5 -60q0 -26 -12.5 -44t-33 -37.5t-30.5 -38.5z" unicode=""/>
<glyph glyph-name="space_uni031B.cap" d="M151 593v81h17q30 0 41.5 9t11.5 29q0 33 -20 68l106 17q23 -46 23 -93q0 -52 -33.5 -81.5t-99.5 -29.5h-46z" unicode=""/>
<glyph glyph-name="dotaccent.cap" d="M152 713q-30 0 -50 20.5t-20 47.5q0 29 20 49t50 20q28 0 47.5 -20t19.5 -49q0 -27 -19.5 -47.5t-47.5 -20.5z" unicode=""/>
<glyph glyph-name="breve.cap" d="M10 848h80q6 -46 59 -46t63 46h78q-2 -58 -37 -92t-103 -34q-70 0 -104.5 34t-35.5 92z" unicode=""/>
<glyph glyph-name="ogonek.cap" d="M82 2h81q-25 -47 -25 -73q0 -23 14.5 -38t38.5 -15q25 0 45 8l21 -71q-41 -32 -101 -32q-54 0 -83.5 27t-29.5 79q0 62 39 115z" unicode=""/>
<glyph glyph-name="cedilla.cap" d="M123 4h81l-23 -48q31 -7 52 -28t21 -54q0 -48 -35.5 -70t-84.5 -22q-51 0 -85 19l19 62q26 -14 57 -14q35 0 35 24q0 29 -78 38z" unicode=""/>
<glyph glyph-name="ring.cap" horiz-adv-x="400" unicode="" d="M200 842q-21 0 -32.5 -14t-11.5 -34q0 -18 12 -31.5t32 -13.5t32 13t12 33t-12 33.5t-32 13.5zM201 893q55 0 84.5 -27.5t29.5 -70.5q0 -42 -30.5 -69.5t-83.5 -27.5t-84 27.5t-31 68.5q0 42 30.5 70.5t84.5 28.5z"/>
<glyph glyph-name="tilde.cap" d="M80 715h-70v8q0 58 20.5 88.5t56.5 30.5q31 0 64 -20q32 -19 44 -19q13 0 19 9.5t8 33.5h69v-9q0 -116 -79 -116q-31 0 -65 19q-36 18 -43 18q-21 0 -24 -43z" unicode=""/>
<glyph glyph-name="circumflex.cap" d="M93 833h114l101 -123h-107l-50 62h-2l-50 -62h-106z" unicode=""/>
<glyph glyph-name="cent.denominator" horiz-adv-x="330" unicode="" d="M229 -5h-67v57q-58 9 -92 48q-34 37 -34 97q0 55 33 98t94 54v54h66v-51q33 -2 56 -11l-15 -76q-26 10 -52 10q-35 0 -55 -19.5t-20 -53.5q0 -36 21.5 -55t54.5 -19t58 10l13 -74q-25 -11 -61 -14v-55z"/>
<glyph glyph-name="dollar.denominator" horiz-adv-x="353" unicode="" d="M207 -51h-65v55q-65 3 -111 27l20 78q52 -27 110 -27q56 0 56 31q0 15 -13.5 24t-52.5 22q-59 19 -87.5 43.5t-28.5 67.5q0 42 28.5 71.5t80.5 39.5v54h65v-50q53 -1 94 -20l-19 -76q-50 22 -95 22q-50 0 -50 -29q0 -13 15 -22.5t61 -23.5q57 -18 82 -45t25 -69t-30 -73 t-85 -40v-60z"/>
<glyph glyph-name="hyphen.denominator" horiz-adv-x="206" unicode="" d="M18 222h170v-72h-170v72z"/>
<glyph glyph-name="parenleft.denominator" horiz-adv-x="204" unicode="" d="M110 425h76q-59 -107 -59 -238q0 -129 59 -239h-76q-69 101 -69 239q0 136 69 238z"/>
<glyph glyph-name="parenright.denominator" horiz-adv-x="204" unicode="" d="M94 -52h-75q58 114 58 239q0 130 -58 238h75q69 -101 69 -238t-69 -239z"/>
<glyph glyph-name="cent.numerator" horiz-adv-x="330" unicode="" d="M229 261h-67v57q-58 9 -92 48q-34 37 -34 97q0 55 33 98t94 54v54h66v-51q33 -2 56 -11l-15 -76q-26 10 -52 10q-35 0 -55 -19.5t-20 -53.5q0 -36 21.5 -55t54.5 -19t58 10l13 -74q-25 -11 -61 -14v-55z"/>
</font>
</defs>
</svg>
